<?xml version="1.0" standalone="no"?>
<!DOCTYPE svg PUBLIC "-//W3C//DTD SVG 1.1//EN" "http://www.w3.org/Graphics/SVG/1.1/DTD/svg11.dtd" >
<svg>
<metadata>
Created by FontForge 20090914 at Sun Jul 31 20:35:26 2016
 By www-data
FREE FOR PERSONAL USE
</metadata>
<defs>
<font id="TheConstellationofHeracles" horiz-adv-x="180" >
  <font-face 
    font-family="The Constellation of Heracles"
    font-weight="400"
    font-style="italic"
    font-stretch="normal"
    units-per-em="1000"
    panose-1="0 0 0 0 0 0 0 0 0 0"
    ascent="750"
    descent="-250"
    x-height="119.998"
    cap-height="407.001"
    bbox="-249 -229.998 784.797 494.143"
    underline-thickness="50"
    underline-position="-50"
    slope="-12"
    unicode-range="U+0020-U+2122"
  />
<missing-glyph horiz-adv-x="235" 
 />
    <glyph glyph-name=".notdef" horiz-adv-x="235" 
 />
    <glyph glyph-name="space" unicode=" " horiz-adv-x="235" 
 />
    <glyph glyph-name="exclam" unicode="!" horiz-adv-x="322" 
d="M57 -44c3.33301 -2.66699 5 -4.33105 5 -4.99805c0 -2.66699 -1 -5 -3 -7l-1 -2c0 -0.666992 0.333008 -1.33398 1 -2.00098v-1c0 -2 -1 -4.16699 -3 -6.5s-4 -4.16602 -6 -5.49902l-12 -8l-8 15c-0.666992 0.666992 -1.66699 2.33398 -3 5.00098v1
c-0.666992 2 -1 5 -1 9c0.666992 1.33301 1.16699 2.66602 1.5 3.99902s0.833008 2.66602 1.5 3.99902l2 4l4 5h2c1.33301 0 3 -0.666992 5 -2c4.66699 -2.66699 9.66699 -5.33398 15 -8.00098zM294 466.003c4 0.666992 7.16895 -0.000976562 9.50195 -2.00098
s3.83301 -4.66699 4.5 -8s0.666992 -6.66602 0 -9.99902s-1.33398 -6.33301 -2.00098 -9c-1.33301 -4 -6.5 -16.667 -15.5 -38s-22.667 -51.166 -41 -89.499s-42.333 -84.833 -72 -139.5s-65.834 -117.334 -108.501 -188.001c-2.66699 -4 -4.66699 -6 -6 -6
c-2 0 -3 1.66699 -3 5l76 160l66.5 143.5l49 108.5l24.5 55c3.33301 6.66699 5.33301 11 6 13s4.66699 3.66699 12 5z" />
    <glyph glyph-name="dollar" unicode="$" horiz-adv-x="335" 
d="M57 165c27.333 5.33301 54.833 10.9961 82.5 16.9961s52.5 9 74.5 9c9.33301 0 17.333 -0.5 24 -1.5s11.667 -1.83301 15 -2.5c-4 4 -8.83301 12 -14.5 24s-11.334 25 -17.001 39l-16 41c-5 13.333 -8.5 23.333 -10.5 30l-13.5 39
c-4.33301 12.667 -6.5 26.334 -6.5 41.001c0 4 0.833008 7.66699 2.5 11s5.16699 5.66602 10.5 6.99902c12.667 0 25 -3 37 -9s22.667 -14 32 -24s16.833 -21.667 22.5 -35s8.5 -27.333 8.5 -42c0 -7.33301 -0.666992 -13.666 -2 -18.999s-2.33301 -9 -3 -11v-1
c-1.33301 0 -2.83301 -0.666992 -4.5 -2s-3.83398 -2 -6.50098 -2c-1.33301 0 -3.16602 0.5 -5.49902 1.5s-3.5 2.5 -3.5 4.5v1v-1l3 6c2.66699 5.33301 4 12.666 4 21.999c0 8.66699 -1.5 18 -4.5 28s-7.33301 19.333 -13 28s-12.5 16.334 -20.5 23.001
s-17.333 11.334 -28 14.001c-5.33301 0.666992 -8.5 1 -9.5 1h-2.5c0 -11.333 2.66699 -27.166 8 -47.499s11.5 -41.5 18.5 -63.5s14.333 -42.833 22 -62.5s13.834 -34.167 18.501 -43.5c1.33301 -2 2 -5.33301 2 -10s-2 -7 -6 -7c-7.33301 0 -14.333 0.666992 -21 2
s-14.667 2 -24 2c-29.333 0 -57 -3 -83 -9s-51.667 -9 -77 -9c-6 0 -10.667 0.333008 -14 1s-5 2.66699 -5 6c0 2 1 4.33301 3 7s3.66699 4.66699 5 6c1.33301 0.666992 2 1.33398 2 2.00098s0.666992 1 2 1s2 -0.666992 2 -2c0 -2 -1 -4 -3 -6s-3.33301 -4 -4 -6h7.5
c3 0 6.83301 0.666992 11.5 2zM249 452.996c6 1.33301 9.50098 -0.333008 10.501 -5s1.16699 -8.66699 0.5 -12s-2.66699 -12.166 -6 -26.499s-8.83301 -34.5 -16.5 -60.5s-18 -57.833 -31 -95.5s-29.5 -80.834 -49.5 -129.501c-0.666992 -2.66699 -2 -4 -4 -4l-2 1
l32.5 109l27.5 98.5l19.5 74l9.5 37.5c1.33301 4 2.16602 6.83301 2.49902 8.5s2.5 3.16699 6.5 4.5z" />
    <glyph glyph-name="quotesingle" unicode="'" horiz-adv-x="69" 
d="M45 262c-0.666992 0 -1.66895 0.666016 -3.00195 1.99902s-1.33301 3 0 5c6.66699 6 11.334 13.167 14.001 21.5s4.5 16.333 5.5 24l2.5 19.5c0.666992 5.33301 2.33398 8 5.00098 8c1.33301 0 5.5 0.333008 12.5 1s12.5 -0.666016 16.5 -3.99902
c4.66699 -4.66699 5.5 -11 2.5 -19s-7.83301 -16 -14.5 -24s-14 -15.333 -22 -22s-14.333 -10.667 -19 -12z" />
    <glyph glyph-name="asterisk" unicode="*" horiz-adv-x="178" 
d="M97 388c-1.33301 -2 -3.67188 -2.3291 -7.00488 -0.996094s-5.66602 2.66602 -6.99902 3.99902c0 0.666992 -0.166992 2 -0.5 4s-0.833008 5.33301 -1.5 10l-7 -12c-0.666992 -0.666992 -1 -1.33398 -1 -2.00098s-0.333008 -1 -1 -1c-3.33301 0 -5.66602 1 -6.99902 3
s-2.66602 4.33301 -3.99902 7c4 10 8 18 12 24l-24 -10c-2 -1.33301 -4 0 -6 4s-2.33301 7.33301 -1 10c0.666992 0.666992 2 1.33398 4 2.00098c1.33301 0.666992 3.5 1.5 6.5 2.5s7.16699 2.83301 12.5 5.5c-3.33301 1.33301 -7.16602 2.66602 -11.499 3.99902l-16.5 5
c-0.666992 1.33301 -0.166992 3.5 1.5 6.5s3.16699 4.5 4.5 4.5l29 -6c-4.66699 5.33301 -8 9.66602 -10 12.999s-3.66699 5.66602 -5 6.99902c-1.33301 2 -2.33301 3 -3 3v1c0 2.66699 1.83301 4.5 5.5 5.5s6.5 1.16699 8.5 0.5c0 0.666992 3.33301 -3.33301 10 -12l-1 16
c-0.666992 0 -1 0.5 -1 1.5s0.333008 1.5 1 1.5c2 2 4.33301 3 7 3v1c0.666992 1.33301 2.5 1.5 5.5 0.5s4.83301 -2.16699 5.5 -3.5l2 -26l11 19c1.33301 2.66699 3.83301 2.83398 7.5 0.500977s5.83398 -4.5 6.50098 -6.5
c-0.666992 -0.666992 -1.33398 -1.66699 -2.00098 -3c-1.33301 -2 -4 -7 -8 -15l19 7h1c0.666992 0 1 0.166992 1 0.5s0.333008 0.5 1 0.5c3.33301 -2.66699 5 -5 5 -7s-0.666992 -4.66699 -2 -8c-5.33301 -2.66699 -9.83301 -5 -13.5 -7s-7.5 -3.66699 -11.5 -5
c7.33301 -2 13 -3.33301 17 -4s7 -1.33398 9 -2.00098l4 -1l1 -1c1.33301 -1.33301 0.833008 -3.5 -1.5 -6.5s-4.16602 -4.83301 -5.49902 -5.5c-0.666992 0 -3 0.166992 -7 0.5s-10 1.5 -18 3.5l17 -24c0 -1.33301 -1.5 -2.83301 -4.5 -4.5s-5.16699 -2.16699 -6.5 -1.5
l-15 18l2 -19c0.666992 -2 -1.33301 -3.66699 -6 -5h-1v0z" />
    <glyph glyph-name="plus" unicode="+" horiz-adv-x="322" 
d="M201 279c4.66699 -1.33301 8.16895 -3.83105 10.502 -7.49805s3.83301 -6.5 4.5 -8.5c-1.33301 -1.33301 -4 -8.83301 -8 -22.5s-11 -31.5 -21 -53.5c40.667 2 65.334 3.66699 74.001 5h6.5c1 0 2.16699 -3 3.5 -9c1.33301 -6.66699 0.333008 -12 -3 -16
c-2 -2.66699 -4 -4.66699 -6 -6c2 1.33301 -4.66699 1 -20 -1s-38.333 -2.33301 -69 -1c-13.333 -26 -30.333 -55 -51 -87c-2 -2 -3.33301 -3 -4 -3c-0.666992 0.666992 -1.66699 2 -3 4l35 87c-16 1.33301 -33.5 3.16602 -52.5 5.49902s-39.167 5.83301 -60.5 10.5
c-2 0 -3.33301 1 -4 3c0 1.33301 0.666992 2.66602 2 3.99902c21.333 0 42.666 0.166992 63.999 0.5s41.333 0.833008 60 1.5c8.66699 23.333 15.667 42.833 21 58.5l10 29.5c1.33301 3.33301 2.16602 5.5 2.49902 6.5s3.16602 0.833008 8.49902 -0.5zM217.002 263.002
c0 -0.666992 -0.333008 -0.666992 -1 0h1z" />
    <glyph glyph-name="comma" unicode="," horiz-adv-x="73" 
d="M-4 -67c-0.666992 0 -1.66895 0.666016 -3.00195 1.99902s-1.33301 3 0 5c6.66699 6 11.334 13.167 14.001 21.5s4.5 16.333 5.5 24l2.5 19.5c0.666992 5.33301 2.33398 8 5.00098 8c1.33301 0 5.5 0.333008 12.5 1s12.5 -0.666016 16.5 -3.99902
c4.66699 -4.66699 5.5 -11 2.5 -19s-7.83301 -16 -14.5 -24s-14 -15.333 -22 -22s-14.333 -10.667 -19 -12z" />
    <glyph glyph-name="hyphen" unicode="-" horiz-adv-x="340" 
d="M282 42c2 -6.66699 0.501953 -12.3301 -4.49805 -16.9971s-6.5 -6.33398 -4.5 -5.00098c2 0.666992 -1.83301 0.5 -11.5 -0.5s-24.334 -1.66699 -44.001 -2s-43.834 0.666992 -72.501 3s-61 7.16602 -97 14.499c-2 0 -3.33301 1 -4 3
c0 1.33301 0.666992 2.66602 2 3.99902c26 0 51.833 0.333008 77.5 1s48.834 1.5 69.501 2.5s38.167 2 52.5 3s23.166 1.83301 26.499 2.5h6.5c1 0 2.16699 -3 3.5 -9z" />
    <glyph glyph-name="period" unicode="." horiz-adv-x="73" 
d="M25 20c3.33301 0 8.33203 -1.66895 14.999 -5.00195s10.667 -6.66602 12 -9.99902c0 -10 -4.33301 -18 -13 -24l-11 -8c-4 6.66699 -7.16699 12.834 -9.5 18.501s-2.16602 12.167 0.500977 19.5c3.33301 6 5.33301 9 6 9z" />
    <glyph glyph-name="slash" unicode="/" horiz-adv-x="163" 
d="M193 466c4 0.666992 7.16895 -0.000976562 9.50195 -2.00098s3.83301 -4.66699 4.5 -8s0.666992 -6.66602 0 -9.99902s-1.33398 -6.33301 -2.00098 -9c-1.33301 -4 -6.5 -16.667 -15.5 -38s-22.667 -51.166 -41 -89.499s-42.333 -84.833 -72 -139.5
s-65.834 -117.334 -108.501 -188.001c-2.66699 -4 -4.66699 -6 -6 -6c-2 0 -3 1.66699 -3 5l76 160l66.5 143.5l49 108.5l24.5 55c3.33301 6.66699 5.33301 11 6 13s4.66699 3.66699 12 5z" />
    <glyph glyph-name="zero" unicode="0" horiz-adv-x="395" 
d="M346 462c12.667 -9.33301 22.5 -22.6699 29.5 -40.0029s10.5 -37.666 10.5 -60.999c0 -22.667 -3.83301 -47.834 -11.5 -75.501s-18.334 -55.5 -32.001 -83.5s-29.834 -55.167 -48.501 -81.5s-39.167 -49.666 -61.5 -69.999s-46 -36.833 -71 -49.5
s-50.5 -19.334 -76.5 -20.001c-14 0.666992 -26 3.83398 -36 9.50098s-18 12.834 -24 21.501s-10.333 18 -13 28s-4 19.333 -4 28c0 18.667 3.66699 39.667 11 63s17.333 47.166 30 71.499s27.334 48.833 44.001 73.5s34.334 47.667 53.001 69s37.5 40.333 56.5 57
s37.5 29.334 55.5 38.001c-2 0 -4 0.666992 -6 2h-1c-10 4.66699 -15 10.334 -15 17.001v-1l-1 1c0 0.666992 0.666992 2 2 4s4 4 8 6s10 3.83301 18 5.5s19 2.5 33 2.5c20 0 36.667 -5 50 -15zM99 -5.00391c34.667 6 67.5 21.998 98.5 47.998s58.167 56.5 81.5 91.5
s41.666 72.5 54.999 112.5s20 77 20 111c0 26.667 -4.66699 47.834 -14 63.501s-24.666 23.5 -45.999 23.5c-1.33301 0 -3.66602 -0.166992 -6.99902 -0.5s-5.66602 -0.833008 -6.99902 -1.5c3.33301 0 6.66602 -2.16699 9.99902 -6.5s5 -8.5 5 -12.5
c0 -2.66699 -0.833008 -4.16699 -2.5 -4.5s-5.16699 -1.83301 -10.5 -4.5c-36 -16.667 -69.5 -41.334 -100.5 -74.001s-57.667 -67 -80 -103s-39.833 -70.167 -52.5 -102.5s-19 -56.5 -19 -72.5c0 -19.333 6.16699 -36.166 18.5 -50.499s29.166 -20.166 50.499 -17.499z" />
    <glyph glyph-name="one" unicode="1" horiz-adv-x="290" 
d="M269 436c-30 -68.667 -64.499 -135.167 -103.499 -199.5l-116.5 -195.5l-32 -54c-2.66699 -6.66699 -5.33398 -10 -8.00098 -10l-2 1l-1 1c0 0.666992 1.16699 3.33398 3.5 8.00098l6.5 13c4 8.66699 11.833 24.5 23.5 47.5l42.5 83.5l54.5 108l60.5 120
c-24 -22 -48.167 -45.5 -72.5 -70.5s-51.166 -46.167 -80.499 -63.5h-1c-1.33301 -0.666992 -2.33301 -1 -3 -1h-5c-3.33301 0 -8 0.833008 -14 2.5s-9 5.16699 -9 10.5c0 2 1.16699 4 3.5 6s6.16602 5 11.499 9c34.667 23.333 69.167 51.833 103.5 85.5
s66.5 67.5 96.5 101.5c10 11.333 17.5 19.166 22.5 23.499s8.16699 6.5 9.5 6.5c13.333 -1.33301 19.333 -4.83301 18 -10.5s-4 -13.167 -8 -22.5z" />
    <glyph glyph-name="two" unicode="2" horiz-adv-x="374" 
d="M357 453c6.66699 -7.33301 8.66895 -17.002 6.00195 -29.002c0 -4.66699 -4.16699 -15.667 -12.5 -33s-19.5 -38 -33.5 -62s-30.167 -50.167 -48.5 -78.5s-37.333 -56 -57 -83s-39.334 -51.667 -59.001 -74s-37.834 -39.833 -54.501 -52.5
c17.333 -23.333 31.833 -41.166 43.5 -53.499s24.167 -18.5 37.5 -18.5c14 0 26.833 5.16699 38.5 15.5s20.5 18.5 26.5 24.5l5 6c2 2 3.66699 3 5 3s2 -1.33301 2 -4l-3 -7c-2.66699 -3.33301 -6.33398 -8.33301 -11.001 -15s-10.167 -13.334 -16.5 -20.001
s-13.833 -12.5 -22.5 -17.5s-18.334 -7.5 -29.001 -7.5c-12 0 -23.167 2.66699 -33.5 8s-19.666 11.833 -27.999 19.5s-16 15.667 -23 24s-12.833 15.833 -17.5 22.5l-2 2c-6.66699 -3.33301 -13.334 -6.16602 -20.001 -8.49902s-13.667 -3.5 -21 -3.5h-1
c-14.667 0 -22 9 -22 27c0 4.66699 0.333008 10 1 16s2.33398 11.667 5.00098 17s6.33398 9.66602 11.001 12.999s10.667 5 18 5c10 0 18.833 -4 26.5 -12s14.167 -15.667 19.5 -23c18.667 18 37.834 39.167 57.501 63.5s38.834 50.166 57.501 77.499s36.5 55 53.5 83
s32.167 54.667 45.5 80l9.5 21c3.66699 8 7 15.833 10 23.5s5.5 14.334 7.5 20.001s3.33301 8.83398 4 9.50098c-12.667 4 -28.334 2.5 -47.001 -4.5s-37.5 -16.167 -56.5 -27.5s-36.833 -23.833 -53.5 -37.5s-29.334 -25.5 -38.001 -35.5l-3 -2
c0 -0.666992 -2.5 -2 -7.5 -4s-10.167 -3 -15.5 -3c-8 0 -12 2.66699 -12 8c0 3.33301 4.66699 11.333 14 24s29.333 30.667 60 54l23.5 18c9.66699 7.33301 20.667 14.333 33 21s25.833 12.334 40.5 17.001s30 7 46 7c6.66699 0 14.167 -1.16699 22.5 -3.5
s14.5 -5.83301 18.5 -10.5zM25.002 23.998c6 0 12.001 1.16992 18.001 3.50293s11.667 5.16602 17 8.49902c-1.33301 1.33301 -3.83301 4.16602 -7.5 8.49902s-6.83398 7.5 -9.50098 9.5c-6 4.66699 -11.333 4.66699 -16 0s-7 -9.33398 -7 -14.001
c0 -7.33301 0.666992 -11.833 2 -13.5s2.33301 -2.5 3 -2.5z" />
    <glyph glyph-name="three" unicode="3" horiz-adv-x="345" 
d="M335 383c0 -9.33301 -1.83594 -24.3379 -5.50293 -45.0049s-9.33398 -41.5 -17.001 -62.5s-17.5 -39.5 -29.5 -55.5s-26.333 -24.333 -43 -25h-1c12 -4.66699 21.5 -12.667 28.5 -24s10.5 -23.666 10.5 -36.999c0 -19.333 -4.5 -38.166 -13.5 -56.499
s-20.833 -34.666 -35.5 -48.999s-31 -25.833 -49 -34.5s-36 -13 -54 -13c-11.333 0 -22.166 1.83301 -32.499 5.5s-20 8 -29 13s-17 10.5 -24 16.5s-12.5 11.333 -16.5 16c-6.66699 7.33301 -10.834 12 -12.501 14s-2.5 3.33301 -2.5 4l-1 3v-1
c0 4.66699 0.666992 8.66699 2 12s3.16602 6.33301 5.49902 9s5.5 4 9.5 4c2.66699 0 5 -1.66699 7 -5c11.333 -14.667 25 -28 41 -40s34.333 -18 55 -18c14.667 0 29.834 3.66699 45.501 11s29.834 17 42.501 29s23 25.5 31 40.5s12 29.833 12 44.5
s-3.16699 25.667 -9.5 33s-13.666 12.333 -21.999 15s-16.666 4 -24.999 4s-14.166 0.333008 -17.499 1c-11.333 0.666992 -17 2.33398 -17 5.00098c0 1.33301 1.33301 2.33301 4 3h28c28 0 52.667 13.833 74 41.5s32 70.5 32 128.5c0 5.33301 -0.333008 11.5 -1 18.5
s-2.66699 13.5 -6 19.5s-8.33301 11.167 -15 15.5s-15.667 6.5 -27 6.5h-1c-10.667 -0.666992 -21.834 -2.5 -33.501 -5.5s-24.5 -8.16699 -38.5 -15.5c-22 -11.333 -38.667 -22.166 -50 -32.499s-17.666 -15.5 -18.999 -15.5h-1c0 -0.666992 -3 -1 -9 -1
c-4.66699 0 -9.16699 1.16699 -13.5 3.5s-6.5 5.16602 -6.5 8.49902c0 0.666992 3.5 5.83398 10.5 15.501s17.167 20 30.5 31s30 21 50 30s42.667 13.5 68 13.5c28 0 50.167 -6 66.5 -18s24.5 -32.333 24.5 -61z" />
    <glyph glyph-name="four" unicode="4" horiz-adv-x="341" 
d="M330 460c4 -2.66699 4.33398 -7.66602 1.00098 -14.999c-2 -6 -5.33301 -15 -10 -27s-11.5 -28.333 -20.5 -49l-34 -78l-51.5 -115c19.333 -1.33301 31.166 -2.33301 35.499 -3s6.5 -1.66699 6.5 -3v-2c0 -0.666992 -0.333008 -1.33398 -1 -2.00098h-1
c-0.666992 -0.666992 -1.16699 -1 -1.5 -1h-5c-3 0 -7.66699 -0.333008 -14 -1s-15.5 -2 -27.5 -4l-39 -83.5l-40 -83.5c-1.33301 -1.33301 -2.66602 -4.33301 -3.99902 -9s-3 -7 -5 -7h-2c-0.666992 0.666992 -1 2.33398 -1 5.00098c0 -0.666992 1.33301 3.16602 4 11.499
l11.5 35.5c5 15.333 11.5 33.833 19.5 55.5s17.667 46.167 29 73.5c-16.667 -1.33301 -34.167 -2.83301 -52.5 -4.5s-35.5 -3 -51.5 -4s-29.833 -1.83301 -41.5 -2.5s-18.834 -1 -21.501 -1h-2c-1.33301 1.33301 -2.66602 3.33301 -3.99902 6c-2 4 -3 9.66699 -3 17
c0 2.66699 2 4.66699 6 6l22.5 21.5l52.5 51l67.5 66.5l69 68l56 55.5l28.5 28.5c1.33301 1.33301 4.66602 1.5 9.99902 0.5s10 -3.16699 14 -6.5zM188.001 179.001l42.501 104.5l43.5 106.5c-18 -20 -38.833 -40.5 -62.5 -61.5l-71 -60.5l-66 -53
c-20.333 -16 -36.5 -28.333 -48.5 -37c26 0 52.167 0.5 78.5 1.5s54.166 0.833008 83.499 -0.5z" />
    <glyph glyph-name="five" unicode="5" horiz-adv-x="375" 
d="M341 439c6 -4 9.49609 -9.33008 10.4961 -15.9971s0.5 -13.5 -1.5 -20.5s-5.16699 -13.833 -9.5 -20.5s-8.5 -12 -12.5 -16l-1 -1h-1l-4 0.5c-2.66699 0.333008 -5.66699 1 -9 2s-6.33301 2.33301 -9 4s-4 3.83398 -4 6.50098c0 0.666992 0.666992 2.33398 2 5.00098
c7.33301 13.333 11.833 21.666 13.5 24.999s2.5 5.33301 2.5 6c-17.333 0 -35 1 -53 3s-35.167 4.66699 -51.5 8s-31.166 6.83301 -44.499 10.5s-24.333 7.16699 -33 10.5c-2.66699 -15.333 -6.33398 -30.833 -11.001 -46.5l-14 -47
c-4.66699 -15.667 -9 -31.334 -13 -47.001s-6.33301 -31.5 -7 -47.5l26.5 -3l38 -4.5l41.5 -5l39 -4.5c20 -2.66699 36.667 -12.834 50 -30.501s20 -42.834 20 -75.501c0 -22 -3.16699 -43.333 -9.5 -64s-15.833 -39 -28.5 -55s-28.5 -28.667 -47.5 -38
s-40.833 -14 -65.5 -14s-46.167 3.33301 -64.5 10s-33.5 14.667 -45.5 24s-21 19 -27 29s-9 18.667 -9 26s1.16699 12.5 3.5 15.5s3.83301 4.5 4.5 4.5c2 0 3 -1.33301 3 -4v-1c0 -2 -0.166992 -4.33301 -0.5 -7s-0.5 -4.33398 -0.5 -5.00098
c0 -9.33301 3.66699 -18.166 11 -26.499s16.833 -15.5 28.5 -21.5s24.834 -10.833 39.501 -14.5s29.334 -5.5 44.001 -5.5c44 0 76.833 13.333 98.5 40s32.5 63 32.5 109c0 23.333 -3.33301 40.166 -10 50.499s-11.667 16.166 -15 17.499h-1
c-0.666992 0 -1.16699 0.166992 -1.5 0.5s-1.16602 0.5 -2.49902 0.5h-2c-4 1.33301 -9.16699 2.33301 -15.5 3l-28 3c-12.333 1.33301 -28.333 3.5 -48 6.5s-44.834 7.5 -75.501 13.5c-5.33301 5.33301 -8.66602 9.66602 -9.99902 12.999s-2 7 -2 11
c0 12 2.66699 26.333 8 43s11.5 34 18.5 52s14.333 35.5 22 52.5s13.834 31.5 18.501 43.5c0 0.666992 0.333008 1.33398 1 2.00098c-6.66699 2 -12.167 4.16699 -16.5 6.5s-6.5 4.16602 -6.5 5.49902c0 0.666992 4.33301 0.333984 13 -0.999023s19.334 -3.33301 32.001 -6
s26.167 -5 40.5 -7s27.5 -3 39.5 -3c7.33301 0 15.833 0.666992 25.5 2s19.5 2.33301 29.5 3s19.667 0.333984 29 -0.999023s17.666 -4.33301 24.999 -9z" />
    <glyph glyph-name="six" unicode="6" horiz-adv-x="311" 
d="M288 461c3.33301 -1.33301 6.33203 -3.49512 8.99902 -6.49512s4 -6.5 4 -10.5c0 0.666992 -5.16699 -2.5 -15.5 -9.5s-23.166 -17 -38.499 -30s-32.166 -28.5 -50.499 -46.5s-35.5 -38 -51.5 -60c-9.33301 -12 -20.5 -28 -33.5 -48s-25.667 -41.5 -38 -64.5
s-22.833 -46.833 -31.5 -71.5s-13 -47.667 -13 -69c0 -8 1.16699 -16.167 3.5 -24.5s6.16602 -15.833 11.499 -22.5s12.333 -12 21 -16s19.334 -6 32.001 -6c17.333 0.666992 36 4.5 56 11.5s38.5 16.667 55.5 29s31.167 27 42.5 44s17 36.167 17 57.5
c0 22.667 -5.33301 39.167 -16 49.5s-23.834 16.666 -39.501 18.999s-32.334 2 -50.001 -1s-33.5 -6.16699 -47.5 -9.5h-1l-3 1c-2 0.666992 -4.33301 2 -7 4s-5.16699 4.33301 -7.5 7s-3.5 5.66699 -3.5 9c0 2.66699 1 4.5 3 5.5s4 2.16699 6 3.5h2
c22 6 44.5 9.66699 67.5 11s43.833 -0.833984 62.5 -6.50098s34 -15.334 46 -29.001s18 -32.167 18 -55.5c0 -24.667 -6.16699 -46.667 -18.5 -66s-28.166 -36 -47.499 -50s-40.666 -25.167 -63.999 -33.5s-46 -13.5 -68 -15.5c-32.667 0 -56.334 8.66699 -71.001 26
s-22 39.666 -22 66.999c0 26 5 53.833 15 83.5s23.167 59 39.5 88s34.5 57 54.5 84s39.833 51.167 59.5 72.5s38.5 39.166 56.5 53.499s32.667 23.5 44 27.5h1c3.33301 0 7 -0.666992 11 -2z" />
    <glyph glyph-name="seven" unicode="7" horiz-adv-x="311" 
d="M282 462c0.666992 0 2.33301 -1.00293 5 -3.00293s5.16699 -4.16699 7.5 -6.5s4.5 -4.83301 6.5 -7.5s3 -4.33398 3 -5.00098c-0.666992 -5.33301 -3.83398 -13.833 -9.50098 -25.5l-24 -49l-38 -79l-52.5 -115.5c6.66699 0 14.167 -0.333008 22.5 -1l25 -2
c8.33301 -0.666992 15.833 -1.33398 22.5 -2.00098s11.334 -1 14.001 -1l14 -1c3.33301 -1.33301 5.66602 -1.83301 6.99902 -1.5s2 -0.833984 2 -3.50098c0 -1.33301 -0.666992 -2 -2 -2l-6 -2c-2.66699 0 -7.66699 -0.5 -15 -1.5s-16.333 -2 -27 -3
s-22.167 -2.16699 -34.5 -3.5s-24.833 -2.33301 -37.5 -3c-6 -14 -12.833 -29 -20.5 -45l-23 -47l-22 -43l-17.5 -34c-0.666992 -1.33301 -2 -4.16602 -4 -8.49902s-3.66699 -6.5 -5 -6.5l-2 1c-0.666992 0.666992 -1 2.33398 -1 5.00098
c0 1.33301 5.66699 17.666 17 48.999s28.333 73.333 51 126c-20.667 -1.33301 -39.334 -2.66602 -56.001 -3.99902s-26.667 -2 -30 -2h-2c0 0.666992 -1 2.83398 -3 6.50098s-3.33301 9.16699 -4 16.5c0 3.33301 0.5 5.33301 1.5 6s2.5 1.33398 4.5 2.00098h1
c11.333 1.33301 26.5 3 45.5 5s37.5 2.33301 55.5 1l31.5 74.5l31.5 70.5l27.5 60l20.5 44c-19.333 -4.66699 -38.166 -9.5 -56.499 -14.5l-55 -15c-18.333 -5 -37.166 -9.66699 -56.499 -14s-39.333 -8.16602 -60 -11.499
c-11.333 -1.33301 -18.833 -2.16602 -22.5 -2.49902s-5.5 0.166992 -5.5 1.5s0.333008 2.33301 1 3l1 1c1.33301 0 2.33301 0.333008 3 1c0.666992 0 1.16699 0.166992 1.5 0.5s0.833008 0.5 1.5 0.5c4.66699 2 14.167 5.5 28.5 10.5l50.5 17.5l61 20.5l59.5 20l46 15.5
l21.5 7h1v0z" />
    <glyph glyph-name="eight" unicode="8" horiz-adv-x="345" 
d="M286 470c8.66699 0 16.166 -2.16504 22.499 -6.49805s11.5 -9.83301 15.5 -16.5s7 -14 9 -22s3 -16 3 -24c0 -10 -1.83301 -21.667 -5.5 -35s-8.66699 -26.5 -15 -39.5s-14.166 -24.833 -23.499 -35.5s-20 -19 -32 -25c7.33301 -10.667 12.666 -23.167 15.999 -37.5
s5 -29.166 5 -44.499c0 -23.333 -5.83301 -48.166 -17.5 -74.499s-27 -50.5 -46 -72.5s-40.667 -39.833 -65 -53.5s-48.833 -19.5 -73.5 -17.5c-22.667 3.33301 -40.334 15.5 -53.001 36.5s-19 46.167 -19 75.5c0 40 7.16699 72.5 21.5 97.5s30.333 44.5 48 58.5
s34.5 23.833 50.5 29.5s25.667 8.83398 29 9.50098c-4.66699 5.33301 -8 11.666 -10 18.999s-3 14.666 -3 21.999c0 13.333 2.83301 27.166 8.5 41.499s13.334 27.666 23.001 39.999s21 23.333 34 33s26.833 16.834 41.5 21.501c0 1.33301 -0.333008 2.5 -1 3.5
s-1 2.16699 -1 3.5s0.5 2.16602 1.5 2.49902s2.16699 1.16602 3.5 2.49902l1 1c4.66699 2 9.33398 3.66699 14.001 5s10.667 2 18 2zM75.999 -14.998c11.333 -3.33301 23.502 -2.66504 36.502 2.00195s26 12 39 22s25.333 22.167 37 36.5s22.167 29.166 31.5 44.499
s16.666 30.833 21.999 46.5s8 30.167 8 43.5c0 14.667 -1.66699 28.167 -5 40.5s-8 21.833 -14 28.5c-13.333 3.33301 -27 4.16602 -41 2.49902s-27.833 -5.5 -41.5 -11.5s-26.5 -13.833 -38.5 -23.5s-23 -20.5 -33 -32.5c-4 -4.66699 -8.33301 -11 -13 -19
s-9.33398 -17.167 -14.001 -27.5s-8.5 -21.833 -11.5 -34.5s-4.5 -26 -4.5 -40c0 -38.667 14 -64.667 42 -78zM300.001 364.003c1.33301 5.33301 2.50293 12.001 3.50293 20.001s1.16699 15.833 0.5 23.5s-2.83398 14.334 -6.50098 20.001s-9.5 8.83398 -17.5 9.50098
c0 -1.33301 0.166992 -2.33301 0.5 -3s0.5 -1.66699 0.5 -3c0 -2.66699 -2 -4.66699 -6 -6l-5 -2c-14.667 -6 -28.167 -13.667 -40.5 -23s-23 -19.5 -32 -30.5s-16.167 -22.333 -21.5 -34s-8 -22.834 -8 -33.501c0 -1.33301 0.333008 -5 1 -11s1.66699 -9 3 -9l4 1
c13.333 3.33301 27.5 4.66602 42.5 3.99902s25.5 -4 31.5 -10c11.333 8 21.666 20.167 30.999 36.5s15.666 33.166 18.999 50.499z" />
    <glyph glyph-name="nine" unicode="9" horiz-adv-x="317" 
d="M211 469c27.333 0 50.8271 -7.49805 70.4941 -22.498s29.5 -38.167 29.5 -69.5c0 -19.333 -3.83301 -41.833 -11.5 -67.5s-18.167 -52.167 -31.5 -79.5s-29 -54.833 -47 -82.5s-37.333 -53.5 -58 -77.5s-42.167 -45.333 -64.5 -64s-44.166 -32.334 -65.499 -41.001h-1h-2
c-4 0 -8.83301 1.66699 -14.5 5s-8.5 7.66602 -8.5 12.999c0 4 1.33301 6.16699 4 6.5s6.33398 1.83301 11.001 4.5c16.667 8 39 24 67 48s55 53.333 81 88c10 14 21.833 31.667 35.5 53s26.667 43.666 39 66.999s22.833 46.666 31.5 69.999s13 43.666 13 60.999
c0 24.667 -6.16699 42.334 -18.5 53.001s-27.666 15.834 -45.999 15.501s-38.166 -5 -59.499 -14s-41.166 -20.667 -59.499 -35s-33.666 -30.5 -45.999 -48.5s-18.5 -35.667 -18.5 -53c0 -20.667 8 -37.667 24 -51s36.667 -20 62 -20c16 0.666992 29.5 2.16699 40.5 4.5
s19.167 4.83301 24.5 7.5l10 3c0 -0.666992 3.33301 -2.5 10 -5.5s10 -8.16699 10 -15.5c0 -3.33301 -2.66699 -6 -8 -8l-5 -2c-12 -6 -25.333 -10.333 -40 -13s-30.334 -4 -47.001 -4c-12 0.666992 -24.5 2.83398 -37.5 6.50098s-25 9.5 -36 17.5s-20 18.333 -27 31
s-10.5 28 -10.5 46c0 22.667 6.16699 44.5 18.5 65.5s28.333 39.5 48 55.5s41.334 28.667 65.001 38s46.5 14 68.5 14z" />
    <glyph glyph-name="colon" unicode=":" horiz-adv-x="94" 
d="M54 121c3.33301 -0.666992 7.99902 -3.00098 13.999 -7.00098s9.66699 -7.66699 11 -11c-1.33301 -9.33301 -6.66602 -16.666 -15.999 -21.999l-12 -7c-3.33301 7.33301 -5.66602 13.833 -6.99902 19.5s-0.333008 12.167 3 19.5c3.33301 6 5.66602 8.66699 6.99902 8z
M37.999 17.999c3.33301 -0.666992 7.99805 -3.00098 13.998 -7.00098s9.66699 -7.66699 11 -11c-1.33301 -10 -6.66602 -17.333 -15.999 -22l-12 -7c-3.33301 7.33301 -5.66602 13.833 -6.99902 19.5s-0.333008 12.167 3 19.5c2 2.66699 3.33301 4.83398 4 6.50098
s1.66699 2.16699 3 1.5z" />
    <glyph glyph-name="semicolon" unicode=";" horiz-adv-x="132" 
d="M18 -64c-1.33301 0.666992 -2.00391 1.66797 -2.00391 3.00098c-1.33301 1.33301 -1 3 1 5c8 4 14.333 9.66699 19 17s8.33398 14.666 11.001 21.999s4.83398 13.5 6.50098 18.5s3.83398 7.16699 6.50098 6.5c1.33301 0 5.5 -0.5 12.5 -1.5s12.167 -3.5 15.5 -7.5
c3.33301 -5.33301 2.5 -11.5 -2.5 -18.5s-11.667 -13.833 -20 -20.5s-17.166 -12.167 -26.499 -16.5s-16.333 -6.83301 -21 -7.5zM87.9961 103.001c3.33301 -0.666992 7.83203 -3.33301 13.499 -8s8.83398 -8.66699 9.50098 -12c-2 -10 -8 -17 -18 -21l-13 -5
c-2.66699 7.33301 -4.33398 14 -5.00098 20s1 12.333 5 19c4.66699 4.66699 7.33398 7 8.00098 7z" />
    <glyph glyph-name="equal" unicode="=" horiz-adv-x="313" 
d="M292 204c2 -6.66699 0.501953 -12.3301 -4.49805 -16.9971s-6.5 -6.33398 -4.5 -5.00098c2 0.666992 -1.83301 0.5 -11.5 -0.5s-24.334 -1.66699 -44.001 -2s-43.834 0.666992 -72.501 3s-61 7.16602 -97 14.499c-2 0 -3.33301 1 -4 3
c0 1.33301 0.666992 2.66602 2 3.99902c26 0 51.833 0.333008 77.5 1s48.834 1.5 69.501 2.5s38.167 2 52.5 3s23.166 1.83301 26.499 2.5h6.5c1 0 2.16699 -3 3.5 -9zM278.002 148.004c2 -6.66699 0.501953 -12.3301 -4.49805 -16.9971s-6.5 -6.33398 -4.5 -5.00098
c2 0.666992 -1.83301 0.5 -11.5 -0.5s-24.334 -1.66699 -44.001 -2s-43.834 0.666992 -72.501 3s-61 7.16602 -97 14.499c-2 0 -3.33301 1 -4 3c0 1.33301 0.666992 2.66602 2 3.99902c26 0 51.833 0.333008 77.5 1s48.834 1.5 69.501 2.5s38.167 2 52.5 3
s23.166 1.83301 26.499 2.5h6.5c1 0 2.16699 -3 3.5 -9z" />
    <glyph glyph-name="question" unicode="?" horiz-adv-x="441" 
d="M44 -34c3.33301 0 8.33203 -1.66895 14.999 -5.00195s10.667 -6.66602 12 -9.99902c0 -10 -4.33301 -18 -13 -24l-11 -8c-4 6.66699 -7.16699 12.834 -9.5 18.501s-2.16602 12.167 0.500977 19.5c3.33301 6 5.33301 9 6 9zM373.999 438.998
c0 -15.333 -6.33105 -34.166 -18.998 -56.499s-27.5 -45 -44.5 -68s-34.167 -44.833 -51.5 -65.5l-41 -50l-48.5 -63.5l-47 -65.5l-36 -52.5c-9.66699 -14.333 -14.834 -22.833 -15.501 -25.5c-0.666992 -4 -2.66699 -6 -6 -6l-1 1
c-0.666992 0.666992 -1 2.33398 -1 5.00098c2 4.66699 4 9 6 13l6.5 13l8.5 16.5c3.33301 6.33301 7.66602 14.166 12.999 23.499c9.33301 16.667 21.5 36.167 36.5 58.5l49 71.5l56 79.5l56.5 82.5l14.5 21.5l16 24.5c5 8 9.16699 15.333 12.5 22s4.33301 11.334 3 14.001
c-2 4.66699 -8 6 -18 4s-22 -6.16699 -36 -12.5s-29 -14.166 -45 -23.499s-31 -18.833 -45 -28.5s-26 -19 -36 -28s-15.667 -15.833 -17 -20.5l-2 -1c-1.33301 -0.666992 -3.33301 -1.33398 -6 -2.00098c-5.33301 -1.33301 -9.66602 -2 -12.999 -2
c-9.33301 0 -14 2.66699 -14 8c0 1.33301 1 3.66602 3 6.99902s4.33301 6.66602 7 9.99902c4.66699 6 13.667 16 27 30s29.333 28 48 42s39.167 26.333 61.5 37s44.833 16 67.5 16c11.333 0 22.666 -1.66699 33.999 -5s17 -11.333 17 -24z" />
    <glyph glyph-name="A" unicode="A" horiz-adv-x="405" 
d="M14 96c-0.666992 0 -2.33594 1.83398 -5.00293 5.50098s-4 9.16699 -4 16.5c0 4 0.666992 6.5 2 7.5s3.66602 1.5 6.99902 1.5c18 2 38.833 2.66699 62.5 2s46.834 -1 69.501 -1c53.333 70.667 101.333 125.5 144 164.5s80 67.667 112 86s58.667 29.166 80 32.499
s37 5 47 5c9.33301 0 18 -0.833008 26 -2.5s12.667 -5.16699 14 -10.5c0.666992 -3.33301 0.333984 -7 -0.999023 -11c-0.666992 -2 -1.33398 -3.66699 -2.00098 -5l-13 -19.5l-33.5 -49.5l-58.5 -84l-88 -122c2.66699 -0.666992 6.33398 -1.16699 11.001 -1.5
s15.667 -1.5 33 -3.5c1.33301 0 2.83301 -0.333008 4.5 -1s2.5 -1.66699 2.5 -3c0 -2.66699 -4.33301 -4 -13 -4h-17.5c-8.33301 0 -18.5 -0.333008 -30.5 -1l-53 -75.5l-33 -46.5l-16.5 -23.5l-4.5 -6.5l-2 1c-0.666992 0.666992 -1 2.33398 -1 5.00098
c13.333 26.667 26.833 51.5 40.5 74.5l42.5 71.5c-27.333 -1.33301 -59 -2.33301 -95 -3s-69 -1 -99 -1l-52 -60.5c-15.333 -17 -28.333 -30.167 -39 -39.5c-6 -6 -10.333 -9 -13 -9c-2 0 -3 1 -3 3c0 1.33301 0.333008 2.16602 1 2.49902s2.33398 2.16602 5.00098 5.49902
c2.66699 2.66699 11.334 12.834 26.001 30.501s32.667 40.5 54 68.5h-106zM274.998 240.001c-19.333 -19.333 -37.832 -38.834 -55.499 -58.501l-48.5 -54.5l74.5 -5c29.667 -2 63.167 -4.66699 100.5 -8l46.5 74.5l49.5 76.5l44.5 68l33.5 50h-8
c-4.66699 0 -12.834 -1 -24.501 -3s-26.167 -6.66699 -43.5 -14c-25.333 -11.333 -52.333 -27.666 -81 -48.999s-58 -47 -88 -77z" />
    <glyph glyph-name="B" unicode="B" horiz-adv-x="361" 
d="M-78 -16c-0.666992 0 -2.49805 2.16309 -5.49805 6.49609s-4.5 9.16602 -4.5 14.499c0 2.66699 0.333008 5.33398 1 8.00098s2.66699 4 6 4c4 0 8.66699 -1.33301 14 -4l3 -1c19.333 -11.333 43.333 -19.333 72 -24s54.667 -8.33398 78 -11.001
c20 -2.66699 40.833 -1.16699 62.5 4.5s43 13.667 64 24s40.833 22.333 59.5 36s35 27.334 49 41.001s24.833 26.667 32.5 39s10.834 22.5 9.50098 30.5c-10 8.66699 -24.667 15.334 -44 20.001s-39.333 8 -60 10s-40.167 3.33301 -58.5 4s-31.5 1.66699 -39.5 3h-15
l-28.5 -32.5l-30 -33l-26.5 -28.5c-8 -8.66699 -13.667 -15 -17 -19l-20 -22c-2.66699 -2.66699 -4.66699 -4 -6 -4c-2 0 -3 0.666992 -3 2s0.333008 2.33301 1 3l5 8c2 3.33301 6 9 12 17l21 29l27 37.5l31 42.5h-15h-61h-3c-0.666992 0 -1 0.333008 -1 1h-1h-4.5
c-1.66699 0 -2.5 1 -2.5 3s1.33301 3 4 3l94 7l33.5 45.5l34 48l30.5 42.5l22 30c-10 3.33301 -21 5.5 -33 6.5s-22.667 1.5 -32 1.5c-16 0 -28.833 -1.66699 -38.5 -5s-15.167 -5 -16.5 -5h-1l-4.5 0.5c-3 0.333008 -6.33301 1 -10 2s-6.83398 2.66699 -9.50098 5
s-4 5.16602 -4 8.49902c0 0.666992 1.16699 2.33398 3.5 5.00098s6.66602 5.66699 12.999 9s15.333 6.33301 27 9s26.5 4 44.5 4c23.333 0 48.666 -3.33301 75.999 -10s52.666 -16 75.999 -28l26 -16c10.667 -6.66699 20.667 -14.667 30 -24s17.5 -19.833 24.5 -31.5
s10.5 -23.834 10.5 -36.501c-1.33301 -14.667 -6.16602 -26 -14.499 -34s-19 -14.167 -32 -18.5s-27.667 -7.5 -44 -9.5s-33.5 -4.33301 -51.5 -7c13.333 0 27.833 -1.16699 43.5 -3.5s29 -6.66602 40 -12.999s17.5 -15.166 19.5 -26.499s-3.66699 -25.666 -17 -42.999
c-18 -23.333 -37.667 -45.166 -59 -65.499s-43.833 -37.833 -67.5 -52.5s-48.5 -26.167 -74.5 -34.5s-52.667 -12.5 -80 -12.5c-25.333 0 -49.333 2.83301 -72 8.5s-47.667 13.167 -75 22.5l-4 2c-5.33301 2.66699 -10 4.66699 -14 6v1zM185.002 207.996
c16.667 1.33301 35.667 3 57 5s42 4.66699 62 8s38 7.5 54 12.5s27.667 11.167 35 18.5l1 1v2v1c0 17.333 -10 36 -30 56s-49.667 36 -89 48c-15.333 -26.667 -33 -52.5 -53 -77.5l-62 -76.5z" />
    <glyph glyph-name="C" unicode="C" horiz-adv-x="274" 
d="M32 -17c-10 10.667 -15.0039 24.333 -15.0039 41s4.5 33.667 13.5 51s19.833 33.666 32.5 48.999s26 29.666 40 42.999l36 34c32.667 29.333 65.167 56.5 97.5 81.5s61.833 46.833 88.5 65.5s49.167 33.834 67.5 45.501l35.5 22.5v1h4
c5.33301 0 11.666 -1.16699 18.999 -3.5s10.333 -6.16602 9 -11.499l-38 -51.5l-31.5 -46l-22 -34c-5.66699 -9 -8.5 -14.5 -8.5 -16.5h-1c-0.666992 -0.666992 -1.66699 -1 -3 -1h-7c-4 0 -8.33301 0.166992 -13 0.5s-7 2.83301 -7 7.5v1c0 1.33301 1 4 3 8s3 7.33301 3 10
l1 1c3.33301 6.66699 9.16602 16.334 17.499 29.001s19.166 25.667 32.499 39l-4 -3c-40 -26.667 -79.5 -54.5 -118.5 -83.5s-77.5 -59.833 -115.5 -92.5l-38.5 -34.5c-13 -11.667 -25 -23.667 -36 -36s-20 -25 -27 -38s-10.5 -26.167 -10.5 -39.5
c0 -17.333 5.66699 -30.5 17 -39.5s25.333 -15.333 42 -19s33.834 -5 51.501 -4s33.167 2.83301 46.5 5.5c10 2 20.333 5 31 9s20.334 8 29.001 12s15.834 7.5 21.501 10.5s8.83398 4.5 9.50098 4.5l1 1h-1c0 -0.666992 3.16699 -2.33398 9.5 -5.00098s9.5 -7 9.5 -13
c0 -2 -1 -3.83301 -3 -5.5s-4.33301 -3.16699 -7 -4.5c-1.33301 -1.33301 -4.66602 -3.83301 -9.99902 -7.5s-12.666 -7.5 -21.999 -11.5s-20.833 -7.66699 -34.5 -11s-29.5 -5 -47.5 -5c-11.333 0 -23.833 0.666992 -37.5 2s-27.167 3.5 -40.5 6.5
s-26.166 7.33301 -38.499 13s-22.5 13.167 -30.5 22.5z" />
    <glyph glyph-name="D" unicode="D" horiz-adv-x="542" 
d="M18 12c-0.666992 0.666992 -1.33789 2.00293 -2.00488 4.00293c-1.33301 4 -2 7.66699 -2 11c0 2.66699 0.5 6 1.5 10s3.16699 6 6.5 6c2.66699 0 5.66699 -1 9 -3l2 -1c2.66699 -1.33301 5.5 -2.66602 8.5 -3.99902s6.16699 -2.66602 9.5 -3.99902l53 -24.5
c18.667 -9 37.334 -14.167 56.001 -15.5c2.66699 5.33301 9.33398 16.5 20.001 33.5l38.5 62l49 79l53 83l49.5 76l38 57.5c-4 0 -7.83301 0.166992 -11.5 0.5s-7.5 0.5 -11.5 0.5c-26.667 0 -49.834 -1.83301 -69.501 -5.5s-36.334 -7.83398 -50.001 -12.501
s-24.167 -9 -31.5 -13s-11.666 -6.33301 -12.999 -7l-1 -1h-11h-2c-3.33301 0 -7.66602 0.5 -12.999 1.5s-8 3.5 -8 7.5c0 2.66699 1 5 3 7c-0.666992 -0.666992 2.83301 1.83301 10.5 7.5s19.834 12.167 36.501 19.5s38 14 64 20s57 9 93 9s66.333 -4.16699 91 -12.5
s44.5 -19.5 59.5 -33.5s25.667 -30.667 32 -50s9.5 -40 9.5 -62c0 -42.667 -9 -83.167 -27 -121.5s-42.667 -71.833 -74 -100.5s-67.833 -51 -109.5 -67s-85.834 -22.667 -132.501 -20c-17.333 1.33301 -33.166 2.66602 -47.499 3.99902s-28.166 3.33301 -41.499 6
c-1.33301 -1.33301 -2 -2.33301 -2 -3s-0.333008 -1.33398 -1 -2.00098s-1 -1.33398 -1 -2.00098l-1 -2c-0.666992 -2.66699 -2 -4 -4 -4l-2 1c0 0.666992 -0.166992 1 -0.5 1s-0.5 0.333008 -0.5 1c0 1.33301 0.333008 2.83301 1 4.5l3 7.5
c-3.33301 0.666992 -7 1.66699 -11 3l-17 5.5c-7.33301 2.33301 -16.666 5.66602 -27.999 9.99902s-26.333 10.5 -45 18.5c-7.33301 3.33301 -13 6.33301 -17 9s-6.66699 4 -8 4h-1v1zM443.996 379.003c2.66699 2 0 -3.16602 -8 -15.499l-34.5 -51.5l-52.5 -75.5l-61.5 -87
l-62 -87l-53.5 -74.5c22.667 -6.66699 46 -10.167 70 -10.5s47 1.33398 69 5.00098s42 8.33398 60 14.001s32.333 11.167 43 16.5c20 12.667 38.333 27.667 55 45s31.334 36.166 44.001 56.499s22.667 41.666 30 63.999s11.666 44.833 12.999 67.5
c0 39.333 -8.5 68.666 -25.5 87.999s-45.833 34.333 -86.5 45z" />
    <glyph glyph-name="E" unicode="E" horiz-adv-x="286" 
d="M27 -17c-10.667 9.33301 -16.002 22.3389 -16.002 39.0059c0 19.333 5 37.166 15 53.499s19 29.833 27 40.5c-5.33301 1.33301 -9 2.16602 -11 2.49902s-3 1.83301 -3 4.5c0 0.666992 0.666992 1.66699 2 3h20c22 26.667 47.5 53.5 76.5 80.5s59.667 53.167 92 78.5
s65 49.166 98 71.499s64.5 42.166 94.5 59.499l1 1h5c2 0 4.66699 -0.166992 8 -0.5s6.5 -1.16602 9.5 -2.49902s5.5 -3 7.5 -5s2.33301 -4.33301 1 -7l-18 -25l-32.5 -46l-32.5 -47.5c-10 -15 -15.667 -24.833 -17 -29.5h-1c0 -0.666992 -0.666992 -1 -2 -1h-8
c-5.33301 0 -9.83301 0.333008 -13.5 1s-5.5 3 -5.5 7v1c0 2 0.333008 4.33301 1 7c1.33301 5.33301 3 9 5 11l1 1c2.66699 7.33301 8.33398 17.166 17.001 29.499s19.667 25.166 33 38.499l-5 -3c-13.333 -8.66699 -29.166 -19.667 -47.499 -33l-66.5 -49l-11 -8
c-11.333 -8 -23.666 -17.333 -36.999 -28l-41 -33.5l-41.5 -35c-13.667 -11.667 -25.834 -22.834 -36.501 -33.501c14 0 29 -0.166992 45 -0.5s30.833 -0.833008 44.5 -1.5s25.334 -1.33398 35.001 -2.00098s15.5 -1.33398 17.5 -2.00098l1 -1c2 0 3 -6 3 -18
c0 -5.33301 -0.333008 -8.66602 -1 -9.99902s-2 -2 -4 -2h-1h-10c-24.667 0 -48.834 2 -72.501 6s-48.167 8.66699 -73.5 14c-12 -13.333 -23 -27.833 -33 -43.5s-15 -32.167 -15 -49.5c0 -3.33301 0.833008 -8.16602 2.5 -14.499s6.16699 -12.5 13.5 -18.5
s18 -11.333 32 -16s33.667 -7 59 -7c14.667 0 29.5 1.66699 44.5 5s28.667 7.33301 41 12s23.333 9.33398 33 14.001l22.5 11c0 -0.666992 3.16699 -2.33398 9.5 -5.00098s9.5 -7 9.5 -13c0 -2 -1.16699 -3.83301 -3.5 -5.5l-6.5 -4.5c-17.333 -12.667 -38 -22 -62 -28
s-48.5 -8.5 -73.5 -7.5s-48.833 5.16699 -71.5 12.5s-40.667 18 -54 32z" />
    <glyph glyph-name="F" unicode="F" horiz-adv-x="271" 
d="M4 -54c-2 0 -2.99902 1.66895 -2.99902 5.00195l2 10.5c1.33301 7 5.16602 17 11.499 30s16.166 29.333 29.499 49s32 42.5 56 68.5c-5.33301 1.33301 -10.666 2.5 -15.999 3.5s-12.333 2.83301 -21 5.5c-4.66699 0 -7 1.66699 -7 5c0 1.33301 0.666992 2 2 2l1 1h3h1h53
c28.667 30 60.667 61 96 93l101 89l83.5 70.5l45.5 37.5h1c3.33301 0.666992 7 0.666992 11 0s7.5 -1.66699 10.5 -3s5 -3.5 6 -6.5s0.166992 -6.5 -2.5 -10.5c-2 -2 -8.16699 -9.66699 -18.5 -23l-32.5 -43.5c-11.333 -15.667 -21.666 -30.834 -30.999 -45.501
s-14 -24.667 -14 -30h-1c-0.666992 -0.666992 -1.66699 -1 -3 -1h-7c-4 0 -8.33301 0.166992 -13 0.5s-7 2.83301 -7 7.5v1c0 8 3.16699 16.667 9.5 26s11.5 17.333 15.5 24l-38.5 -32.5l-52 -43.5l-61.5 -52l-66 -58c3.33301 -0.666992 8.33301 -1 15 -1
c10.667 -0.666992 21.167 -1.16699 31.5 -1.5s19.666 -0.833008 27.999 -1.5s15.333 -1.16699 21 -1.5s9.16699 -0.5 10.5 -0.5l2 -1c0 -1.33301 0.333008 -3 1 -5c1.33301 -4 2 -8.66699 2 -14s-0.5 -8.5 -1.5 -9.5s-2.5 -1.5 -4.5 -1.5h-1c-15.333 0 -31 0.5 -47 1.5
s-34 3.5 -54 7.5c-4.66699 1.33301 -9.16699 2.16602 -13.5 2.49902s-8.83301 1.16602 -13.5 2.49902c-37.333 -37.333 -66 -69.166 -86 -95.499s-30 -44.833 -30 -55.5v-1c-1.33301 -1.33301 -2 -2.5 -2 -3.5s-0.666992 -1.5 -2 -1.5z" />
    <glyph glyph-name="G" unicode="G" horiz-adv-x="370" 
d="M28 -18c-10.667 11.333 -16.002 25.3389 -16.002 42.0059c0 22 10.333 47.167 31 75.5s46.334 57.333 77.001 87s64 58.5 100 86.5l99.5 74.5c30.333 21.667 55.5 38.834 75.5 51.501s29.333 18.667 28 18h1h3c4.66699 0 10.667 -1 18 -3s10.666 -6 9.99902 -12
c-3.33301 -4 -10.333 -13.167 -21 -27.5l-33.5 -46c-11.667 -16.333 -22.167 -31.666 -31.5 -45.999s-14 -23.833 -14 -28.5h-1c-0.666992 -0.666992 -1.66699 -1 -3 -1h-7c-3.33301 0 -7.5 0.166992 -12.5 0.5s-7.5 2.83301 -7.5 7.5v1c0 6 2.16699 13.167 6.5 21.5
s9.5 16.666 15.5 24.999s12.333 16.166 19 23.499s12 13 16 17l-1 -1c-10 -8 -26.333 -19.833 -49 -35.5l-76 -54c-28 -20.333 -56.5 -42.333 -85.5 -66s-54.833 -46.834 -77.5 -69.501c-6 -6 -12.667 -13.167 -20 -21.5s-14 -17.166 -20 -26.499s-11 -18.833 -15 -28.5
s-6 -18.834 -6 -27.501c0 -12 4.16699 -21.833 12.5 -29.5s19.166 -14.834 32.499 -21.501c14 -4 30.833 -5.83301 50.5 -5.5s39.334 2.66602 59.001 6.99902s37.834 11.166 54.501 20.499s28.667 21.666 36 36.999c-16.667 2.66699 -33.667 5.66699 -51 9
s-34.666 7.66602 -51.999 12.999l-12 3c-4.66699 2 -7 3.66699 -7 5c0 0.666992 0.666992 1.66699 2 3h5c14 0.666992 31.333 0.833984 52 0.500977s40.834 -0.833008 60.501 -1.5s36.834 -1.33398 51.501 -2.00098s23.667 -1.33398 27 -2.00098l2 -1
c0 -0.666992 0.5 -2.5 1.5 -5.5s1.5 -7.5 1.5 -13.5c0 -7.33301 -2 -11.333 -6 -12h-1h-13.5c-5.66699 0 -15.167 0.666992 -28.5 2c-0.666992 -0.666992 -1 -1.66699 -1 -3c-6.66699 -13.333 -15.834 -25 -27.501 -35s-24.834 -18.167 -39.501 -24.5s-30.667 -11 -48 -14
s-35.333 -4.5 -54 -4.5c-3.33301 0 -9.33301 0.333008 -18 1s-18.5 2.33398 -29.5 5.00098s-22 6.5 -33 11.5s-20.833 11.833 -29.5 20.5z" />
    <glyph glyph-name="H" unicode="H" horiz-adv-x="434" 
d="M20 101c-2 1.33301 -3.66992 3.33398 -5.00293 6.00098c-3.33301 4.66699 -5 10.667 -5 18c0 4.66699 3.33301 7 10 7h2c2 0 4.5 0.166992 7.5 0.5s8.33301 0.5 16 0.5h33.5h61l53 73.5l51.5 71l40 55c11 15 17.167 23.833 18.5 26.5l1 1h2
c0.666992 0 1.5 0.166992 2.5 0.5s2.16699 0.5 3.5 0.5h1c1.33301 0 5 -0.333008 11 -1s9 -3 9 -7c0 -2.66699 -1 -6 -3 -10l-1 -1l-13 -22.5c-5.33301 -9 -13.666 -21.333 -24.999 -37s-26.5 -35.5 -45.5 -59.5l-74.5 -91c22 -0.666992 48.833 -2.16699 80.5 -4.5
l110.5 -8.5l63.5 96l59.5 90l46 69c12.667 18.667 20.334 29.667 23.001 33v1c1.33301 0 2.66602 0.333008 3.99902 1c2.66699 1.33301 5.66699 2 9 2c4 0 8 -1 12 -3s6 -4.33301 6 -7c0 -2 -1.33301 -5 -4 -9l-1 -2c-3.33301 -6 -9 -15.5 -17 -28.5
s-19.5 -30.5 -34.5 -52.5l-56 -80.5l-81.5 -111.5c2.66699 -0.666992 6.33398 -1.16699 11.001 -1.5s15.667 -1.5 33 -3.5c4.66699 0 7 -1.33301 7 -4c0 -1.33301 -1 -2.33301 -3 -3l-10 -1h-17.5c-8.33301 0 -18.5 -0.333008 -30.5 -1l-9 -12l-26 -36l-26 -37l-29.5 -41
l-25 -35c-7 -10 -11.5 -16.333 -13.5 -19l-2 1c-0.666992 0 -1 0.333008 -1 1c0 1.33301 0.333008 2.66602 1 3.99902c1.33301 4.66699 2.33301 7.66699 3 9l2 4c2.66699 6 7 14.333 13 25l21.5 37.5c8.33301 14.333 17.833 29.833 28.5 46.5l34 52
c-15.333 -0.666992 -31.666 -1.16699 -48.999 -1.5l-53.5 -1c-18.333 -0.333008 -36.5 -0.5 -54.5 -0.5h-51l-36.5 -43.5l-31 -35.5l-22 -24.5l-8.5 -9.5l-2 -2c-0.666992 -0.666992 -1.66699 -1 -3 -1c-2 0 -3 0.666992 -3 2c0 0.666992 3.16699 5.66699 9.5 15l22 32.5
l25.5 37l21 29.5h-66.5c-16.333 0 -25.833 0.333008 -28.5 1h-1v0z" />
    <glyph glyph-name="I" unicode="I" horiz-adv-x="93" 
d="M28 -51c-12.667 4.66699 -18.998 13.335 -18.998 26.002c1.33301 16.667 11.666 42 30.999 76c8 14.667 18.5 31.834 31.5 51.501l42 61l45.5 63l42.5 56.5l32.5 41.5c8.66699 11 14 17.5 16 19.5l1 1h6c2 0 6.16699 -0.833008 12.5 -2.5s9.5 -4.5 9.5 -8.5
c0 -2.66699 -1 -5.33398 -3 -8.00098l-1 -1l-44 -57l-54.5 -69l-56.5 -72.5l-50.5 -68c-15 -21 -27.167 -39.333 -36.5 -55s-14 -26.834 -14 -33.501c0 -3.33301 1.16699 -6.33301 3.5 -9s4.5 -4.33398 6.5 -5.00098c1.33301 0 2.66602 -0.666992 3.99902 -2
c0.666992 -0.666992 1 -1.33398 1 -2.00098c0 -1.33301 -0.666992 -2.16602 -2 -2.49902s-2.33301 -0.5 -3 -0.5h-1zM289.002 407.001c2 0 6.83203 -2 14.499 -6s11.5 -7.33301 11.5 -10c0 -4 -1.33301 -7.83301 -4 -11.5s-5.66699 -7.16699 -9 -10.5l-12 -9
c-5.33301 9.33301 -8.66602 15.666 -9.99902 18.999s-2 6 -2 8c0 3.33301 1 7.33301 3 12s4.66699 7.33398 8 8.00098z" />
    <glyph glyph-name="J" unicode="J" horiz-adv-x="193" 
d="M38 -62c-5.33301 -4 -11.001 -3.49805 -17.001 1.50195s-9 10.833 -9 17.5s0.833008 13.167 2.5 19.5s3.5 12.833 5.5 19.5l10.5 30c3 8.66699 6.33301 17.5 10 26.5s7.33398 18.667 11.001 29l12.5 36.5h1c0 0.666992 0.333008 1.16699 1 1.5
s3.33398 0.833008 8.00098 1.5c1.33301 0 3.5 0.166992 6.5 0.5s5.66699 0.166016 8 -0.500977s4.33301 -1.66699 6 -3s1.83398 -3.66602 0.500977 -6.99902v-1c-1.33301 -6 -3.83301 -14.167 -7.5 -24.5l-19.5 -52.5c-3.33301 -9.33301 -8 -19.833 -14 -31.5
s-10.333 -21.834 -13 -30.501c5.33301 5.33301 13.833 15.166 25.5 29.499l40.5 51.5l50 65.5l54 72l52 71.5l45 63l-69.5 -10l-60.5 -9c-18 -2.66699 -33 -5 -45 -7s-19.333 -3 -22 -3h-1c-2.66699 1.33301 -5 3.33301 -7 6c-4.66699 4.66699 -7 10.667 -7 18
c0 3.33301 3 5.66602 9 6.99902l1 1c36 8 73 13.833 111 17.5l114 10.5c7.33301 10 13.166 18.333 17.499 25s7.16602 10.667 8.49902 12l1 1c3.33301 1.33301 9.16602 1.83301 17.499 1.5s12.5 -3.5 12.5 -9.5c0 -2 -1.66699 -5.66699 -5 -11l-4.5 -7l-5.5 -9
c18.667 1.33301 36.667 2.5 54 3.5s33 1.83301 47 2.5s25.833 1.16699 35.5 1.5s15.834 0.5 18.501 0.5c1.33301 0 3.33301 -0.666992 6 -2s2.33398 -3 -0.999023 -5c-13.333 -2.66699 -35.333 -6.16699 -66 -10.5s-68.334 -10.166 -113.001 -17.499
c-4 -2 -14 -14.5 -30 -37.5l-64 -88.5l-95.5 -123c-37 -46 -78.5 -93.333 -124.5 -142z" />
    <glyph glyph-name="K" unicode="K" horiz-adv-x="224" 
d="M-22 -36c0.666992 1.33301 7.5 12.167 20.5 32.5l48.5 76.5l63.5 99.5l66.5 102.5l57 85.5c16.667 24.333 28 40.166 34 47.499l1 1c0.666992 0 1.66699 0.333008 3 1c1.33301 0 2.66602 0.166992 3.99902 0.5s3 0.5 5 0.5c4 0 8 -1 12 -3s6 -4.33301 6 -7
c0 -3.33301 -1 -6.33301 -3 -9l-17 -26.5c-7.33301 -11.667 -18 -27.5 -32 -47.5l-53 -74.5l-78 -106.5c16 17.333 34.5 35.833 55.5 55.5l65 59.5l66.5 58l60 50.5l45.5 37.5l23.5 19l1 1h1c3.33301 0 7 -0.5 11 -1.5s7.5 -2.5 10.5 -4.5s4.66699 -4.33301 5 -7
s-1.5 -5.66699 -5.5 -9l-33.5 -47.5l-30.5 -43c-9.33301 -13 -16.833 -24.167 -22.5 -33.5s-8.5 -15.333 -8.5 -18h-1c-4 -1.33301 -9.66699 -2 -17 -2s-11.666 3 -12.999 9v1c0 1.33301 1 4 3 8s3 7.33301 3 10l1 1c2 4 4.33301 8.33301 7 13s6.66699 10.667 12 18
l-49.5 -41l-60 -48.5l-64 -52.5l-61.5 -53c-1.33301 2 -0.166016 -0.833008 3.50098 -8.5s9 -18 16 -31s15.167 -27.333 24.5 -43l28 -45.5c9.33301 -14.667 18.333 -27.5 27 -38.5s15.667 -18.167 21 -21.5l-1 -1c-0.666992 -0.666992 -1.33398 -1 -2.00098 -1l-8 2
c-4.66699 1.33301 -13.167 7.5 -25.5 18.5s-25.5 24.5 -39.5 40.5s-27.5 33.333 -40.5 52s-22.5 36.667 -28.5 54c-8 -6.66699 -18 -17.334 -30 -32.001l-35.5 -45l-31.5 -42.5c-9.33301 -13 -15.333 -21.167 -18 -24.5h-1c-0.666992 -2.66699 -1.66699 -4 -3 -4l-2 1
c-0.666992 0.666992 -1 2.33398 -1 5.00098l3 7c1.33301 2.66699 2 4.33398 2 5.00098z" />
    <glyph glyph-name="L" unicode="L" horiz-adv-x="265" 
d="M42 -53c-6 0 -14.002 2.66406 -24.002 7.99707s-15 12 -15 20c0 6 2.66699 10.333 8 13s11.5 4.5 18.5 5.5s14.167 1.33301 21.5 1s13 -0.5 17 -0.5c13.333 13.333 28.333 30.833 45 52.5s33.834 45.5 51.501 71.5l53 80.5l49.5 79l40.5 67l26.5 44.5l4 5
c-1.33301 1.33301 1.5 3.5 8.5 6.5s12.833 4.5 17.5 4.5c1.33301 0 3.16602 -0.333008 5.49902 -1s3.5 -2.66699 3.5 -6s-2.66699 -9.66602 -8 -18.999v-1c-4.66699 -9.33301 -12.5 -23.333 -23.5 -42l-38.5 -63l-48 -75l-52.5 -77.5l-51.5 -70.5
c-16.667 -22 -31.667 -40.333 -45 -55l-1 -2c39.333 -0.666992 76.833 -3.33398 112.5 -8.00098s64.167 -8.66699 85.5 -12l69 -10c1.33301 0 4 -0.5 8 -1.5s6 -2.16699 6 -3.5s-0.666992 -2.16602 -2 -2.49902s-2.66602 -0.5 -3.99902 -0.5l-21 2
c0.666992 0 -7.66602 0.833008 -24.999 2.5s-39.333 3.33398 -66 5.00098s-56 3.33398 -88 5.00098s-63 2.5 -93 2.5h-2l-19 -16.5c-6.66699 -5.66699 -14.667 -8.5 -24 -8.5z" />
    <glyph glyph-name="M" unicode="M" horiz-adv-x="597" 
d="M288 41c-2 -2 -3.33691 -3.00781 -4.00391 -3.00781c-1.33301 0 -2.33301 1 -3 3v1c0 6.66699 3 15.334 9 26.001s14.333 24.334 25 41.001l38 60c14.667 23.333 31 51 49 83l17 31c8.66699 16 16.667 32.667 24 50s11.833 32.833 13.5 46.5s-2.83301 20.5 -13.5 20.5
c-10 0 -22.167 -3.16699 -36.5 -9.5s-29.5 -14.666 -45.5 -24.999s-32.167 -21.666 -48.5 -33.999s-31.666 -24.5 -45.999 -36.5s-27 -23.167 -38 -33.5s-18.833 -18.166 -23.5 -23.499l-135.5 -186c-37 -49.333 -61.167 -84.333 -72.5 -105c-1.33301 0 -2 0.666992 -2 2
c-1.33301 0 1.83398 8.16699 9.50098 24.5s20.334 40.333 38.001 72s41.167 70.334 70.5 116.001s65.666 97.5 108.999 155.5c-15.333 -8 -30.833 -13.833 -46.5 -17.5s-27.834 -5.5 -36.501 -5.5h-6.5c-2.33301 0 -3.83301 0.333008 -4.5 1l-1 1
c-0.666992 0.666992 -1.33398 2 -2.00098 4s-1 6 -1 12c0 6.66699 0.5 10.667 1.5 12s2.83301 2 5.5 2h1c0.666992 0.666992 1.33398 1 2.00098 1h1c9.33301 0 24.333 2.16699 45 6.5s46.334 14.833 77.001 31.5c9.33301 13.333 17.333 24.333 24 33s10.667 14 12 16h1
c-0.666992 0 0.333008 0.5 3 1.5s5.83398 1.5 9.50098 1.5s7.16699 -0.666992 10.5 -2s5.66602 -4 6.99902 -8c0 -1.33301 -0.166992 -2.83301 -0.5 -4.5s-1.83301 -4.16699 -4.5 -7.5c-3.33301 -4 -6.66602 -8.66699 -9.99902 -14s-8 -11.666 -14 -18.999l39 25
c12 8 24 15 36 21s24.333 10.833 37 14.5s26.667 5.5 42 5.5c17.333 -3.33301 27.666 -11 30.999 -23s3.33301 -25.333 0 -40s-8.83301 -29.167 -16.5 -43.5l-18.5 -34.5l11.5 10c7.66699 6.66699 18 14.167 31 22.5s28.333 16 46 23s36.5 11.167 56.5 12.5
c18 0 33.667 -5.16699 47 -15.5s20 -26.5 20 -48.5c0 -18.667 -4.16699 -39 -12.5 -61s-18.5 -43.667 -30.5 -65s-24.667 -41.5 -38 -60.5s-24.666 -34.5 -33.999 -46.5l-1 -2l-15.5 -22c-5 -7.33301 -7.5 -13.666 -7.5 -18.999s1.83301 -10.666 5.5 -15.999s9.5 -8 17.5 -8
c8.66699 0 18.167 1.66699 28.5 5s18.833 7.33301 25.5 12c1.33301 1.33301 3.83301 1.83301 7.5 1.5s4.16699 -1.83301 1.5 -4.5l-34 -18.5c-9.33301 -5 -18.333 -7.5 -27 -7.5c-11.333 0 -20.666 2.66699 -27.999 8s-11.333 13.666 -12 24.999c0 10 3 21.333 9 34
s13 25.334 21 38.001s16 24.667 24 36s14 20.666 18 27.999l16 31c6 12 11.667 24.333 17 37s9.66602 25.167 12.999 37.5s5 23.833 5 34.5c0 22.667 -10.333 34 -31 34c-9.33301 0 -20.833 -2 -34.5 -6s-28.167 -10.333 -43.5 -19c-30 -16.667 -50.5 -31.5 -61.5 -44.5
s-17.167 -19.5 -18.5 -19.5h-1c-2.66699 -4 -8 -11 -16 -21l-27.5 -34.5l-33 -41l-32.5 -40.5l-26 -34c-7.33301 -10 -11.666 -17 -12.999 -21z" />
    <glyph glyph-name="N" unicode="N" horiz-adv-x="372" 
d="M1 -53c-0.666992 0.666992 -0.998047 2.3252 -0.998047 4.99219c0.666992 0.666992 1.66699 2.66699 3 6v1c1.33301 2.66699 2 4.33398 2 5.00098l1 1c3.33301 7.33301 12.833 24 28.5 50l57 91.5l72.5 112l76 111.5c-20 -10 -39.167 -18.5 -57.5 -25.5
s-34.833 -10.5 -49.5 -10.5h-6c-2.66699 0 -4.66699 0.333008 -6 1c-0.666992 0.666992 -1.5 2.33398 -2.5 5.00098s-1.5 6.66699 -1.5 12c0 6.66699 0.666992 10.667 2 12s3 2 5 2h1c22 0 44.167 4.16699 66.5 12.5s45.166 19.166 68.499 32.499
c2.66699 1.33301 5.83398 4 9.50098 8l10.5 12l9 11l4 5l1 1c0.666992 0 1.66699 0.333008 3 1c1.33301 0 2.66602 0.166992 3.99902 0.5s2.66602 0.5 3.99902 0.5c3.33301 0 7.5 -0.833008 12.5 -2.5s7.16699 -4.16699 6.5 -7.5c0 -2.66699 -1.83301 -7 -5.5 -13
l-12.5 -19.5l-14.5 -21l-12.5 -17.5l17 11c7.33301 4.66699 16 9.33398 26 14.001s21.167 8.66699 33.5 12s25.5 5 39.5 5c20 0 34.667 -6 44 -18s14 -25.667 14 -41c0 -17.333 -3.5 -35.666 -10.5 -54.999s-15.667 -38.5 -26 -57.5s-21.5 -37.167 -33.5 -54.5
s-23.333 -32.666 -34 -45.999c-1.33301 -1.33301 -6.33301 -7.83301 -15 -19.5s-16.667 -24 -24 -37s-11.333 -24.833 -12 -35.5s6.66602 -16 21.999 -16c8.66699 0 16.667 1.5 24 4.5s13 5.5 17 7.5c11.333 5.33301 17.666 8 18.999 8s2.33301 -0.833008 3 -2.5
s0 -2.83398 -2 -3.50098c-9.33301 -6 -19.5 -11.833 -30.5 -17.5s-22.833 -8.5 -35.5 -8.5c-5.33301 0 -11.333 1.83301 -18 5.5s-11.667 10.167 -15 19.5c-0.666992 2.66699 -1 6 -1 10c0 8.66699 3.16699 19.334 9.5 32.001s14 25.834 23 39.501l27.5 40.5
c9.33301 13.333 17 25 23 35l19.5 35.5c7 13 13.333 26 19 39s10.334 25.833 14.001 38.5s5.5 24.334 5.5 35.001c0 11.333 -2.16699 19 -6.5 23s-12.166 6 -23.499 6c-12 -1.33301 -25.667 -5 -41 -11s-32 -13.667 -50 -23c-16 -10 -29.333 -19.167 -40 -27.5
s-19.334 -15.666 -26.001 -21.999s-11.5 -11.333 -14.5 -15s-4.83301 -5.5 -5.5 -5.5v-1l-47.5 -61l-51.5 -69l-23 -31c-15.333 -20 -28 -37.167 -38 -51.5l-24.5 -35.5c-6.33301 -9.33301 -11.166 -16.666 -14.499 -21.999s-6 -9 -8 -11h-1v-2h-1
c-0.666992 -2.66699 -1.66699 -4 -3 -4h-1z" />
    <glyph glyph-name="O" unicode="O" horiz-adv-x="330" 
d="M317 -41c-16 0 -33.1689 3.49805 -51.502 10.498s-34.5 15.167 -48.5 24.5l-33 -15.5c-12 -5.66699 -24.667 -10.5 -38 -14.5s-27.333 -6.66699 -42 -8s-29.334 0.333984 -44.001 5.00098c-13.333 4.66699 -25 13.334 -35 26.001s-15 27.667 -15 45c0 18 5 38.5 15 61.5
s23.333 46.667 40 71s35.834 48.333 57.501 72s44.167 45.334 67.5 65.001s47 36.5 71 50.5s46.333 23 67 27h-1h-2c-5.33301 4 -9.66602 6.66699 -12.999 8s-5.66602 4.66602 -6.99902 9.99902c0 3.33301 2 6 6 8s11.667 3 23 3c30 0 54.667 -7.16699 74 -21.5
s29 -38.833 29 -73.5c0 -21.333 -5 -46 -15 -74s-23.5 -56.167 -40.5 -84.5s-37 -55 -60 -80s-47.5 -45.5 -73.5 -61.5c13.333 -7.33301 25.666 -12.5 36.999 -15.5s21.333 -5.16699 30 -6.5c0.666992 -0.666992 2.33398 -3 5.00098 -7s4 -9 4 -15
c0 -4.66699 -0.833008 -7.5 -2.5 -8.5s-3.16699 -1.5 -4.5 -1.5zM88.998 -31.002c18 -2 37.502 1.00293 58.502 9.00293s39.833 16.667 56.5 26c-28 26 -42 57.333 -42 94c0.666992 18 3.66699 35.167 9 51.5s11.5 31.666 18.5 45.999s14.667 27.5 23 39.5
s16.166 22.333 23.499 31c13.333 16 27.666 30.667 42.999 44s30.333 24.666 45 33.999c-46.667 -20.667 -88 -45.667 -124 -75s-66.5 -59 -91.5 -89s-44.167 -58.333 -57.5 -85s-20.333 -47.334 -21 -62.001c0 -16 4.66699 -30 14 -42s24.333 -19.333 45 -22zM233 23.001
c23.333 16.667 45.499 37.332 66.499 61.999s39.5 50.334 55.5 77.001s28.833 53.167 38.5 79.5s14.5 50.166 14.5 71.499c0 44.667 -22.333 67 -67 67c9.33301 -4.66699 15 -11.667 17 -21c0 -4 -1.83301 -7.16699 -5.5 -9.5s-7.16699 -4.16602 -10.5 -5.49902
c-1.33301 -1.33301 -9 -6.83301 -23 -16.5s-29.333 -24.834 -46 -45.501c-25.333 -32 -44.833 -63.667 -58.5 -95s-20.5 -59.666 -20.5 -84.999c0 -19.333 3.83301 -35.5 11.5 -48.5s16.834 -23.167 27.501 -30.5z" />
    <glyph glyph-name="P" unicode="P" horiz-adv-x="388" 
d="M71 50c-15.333 10.667 -25.6611 22.002 -30.9941 34.002s-8.33301 22.667 -9 32s0.666016 19.166 3.99902 29.499s8 15.833 14 16.5c2 0 2.33301 -2.33301 1 -7c-4 -9.33301 -6.66699 -16 -8 -20s-2 -8.66699 -2 -14c0 -10 3 -20.5 9 -31.5s15.667 -20.167 29 -27.5
l41.5 65.5l48.5 73.5l48.5 73l42.5 64.5l32 47l15 21.5l1 1c0.666992 0 1.66699 0.333008 3 1c2.66699 1.33301 6 2 10 2c3.33301 0 7 -1 11 -3s6 -4.33301 6 -7c0 -2 -1.66699 -5.66699 -5 -11l-6.5 -10.5l-8.5 -13.5l24.5 14c9.66699 5.33301 20 10.333 31 15
s22 8.5 33 11.5s21.5 4.5 31.5 4.5c14 0 25 -2 33 -6s14.167 -9 18.5 -15s7 -12.667 8 -20s1.5 -14.333 1.5 -21c-0.666992 -20 -4.83398 -42.167 -12.501 -66.5s-18.334 -49 -32.001 -74s-29.334 -49.333 -47.001 -73s-36.834 -45 -57.501 -64s-42 -34.333 -64 -46
s-44 -17.834 -66 -18.501c-22.667 0 -44.834 2.5 -66.501 7.5s-43.834 13.167 -66.501 24.5c-25.333 -34 -44.666 -61.833 -57.999 -83.5s-21.333 -32.5 -24 -32.5h-2c0 0.666992 -0.166992 1 -0.5 1s-0.5 0.666992 -0.5 2c0 0.666992 0.166992 1.16699 0.5 1.5
s0.5 0.833008 0.5 1.5c10.667 22 21.5 42.5 32.5 61.5s23.167 38.833 36.5 59.5zM98.0049 55.002c-1.33301 -1.33301 -2.33398 -2.66602 -3.00098 -3.99902c15.333 -7.33301 31.833 -13.333 49.5 -18s37.5 -7 59.5 -7c22.667 0 44.834 6.5 66.501 19.5
s42.167 29.5 61.5 49.5s37.166 42.5 53.499 67.5s30.333 49.5 42 73.5s20.834 46 27.501 66s10 35.667 10 47c0 8.66699 -1.66699 15.667 -5 21s-10 8 -20 8c-11.333 0 -25.5 -3.5 -42.5 -10.5s-34.167 -15.5 -51.5 -25.5s-33.5 -20.5 -48.5 -31.5
s-25.833 -20.833 -32.5 -29.5l-2 -2c-8 -8 -17.333 -19 -28 -33l-34.5 -47l-38.5 -55.5c-13.333 -19.667 -27 -38.834 -41 -57.501z" />
    <glyph glyph-name="Q" unicode="Q" horiz-adv-x="367" 
d="M69 -39c-15.333 4.66699 -27.668 14.332 -37.001 28.999s-14 30 -14 46c0 21.333 6.5 45.5 19.5 72.5s30.167 54.167 51.5 81.5s45.5 53.666 72.5 78.999s54.5 47.333 82.5 66c12 8 22.667 14.5 32 19.5s17.333 9 24 12s12.667 5.33301 18 7l14 4.5
c-4 0 -7.83301 2.33301 -11.5 7s-6.16699 9 -7.5 13c0 4.66699 3.5 7.83398 10.5 9.50098s13.167 2.5 18.5 2.5c38 0 65 -9 81 -27s24 -41.333 24 -70c0 -24 -6.66699 -52.833 -20 -86.5s-31.333 -66.667 -54 -99s-48.667 -61.833 -78 -88.5s-60.333 -45.334 -93 -56.001
c12 -6 24.5 -11 37.5 -15s25.167 -6 36.5 -6c19.333 0 36.333 5.16699 51 15.5s25.334 23.833 32.001 40.5c0.666992 2 1.83398 5.83301 3.50098 11.5s3.5 11.5 5.5 17.5s4 11.5 6 16.5s3.66699 7.5 5 7.5c2 0 3 -1.33301 3 -4c-8 -46 -21 -79.333 -39 -100s-43 -31 -75 -31
c-17.333 0 -35.5 3.16699 -54.5 9.5s-35.833 13.5 -50.5 21.5c-4 -1.33301 -8.33301 -2.66602 -13 -3.99902c-4 -1.33301 -8.5 -2.66602 -13.5 -3.99902s-9.83301 -2.33301 -14.5 -3c-6.66699 -1.33301 -13.834 -1.83301 -21.501 -1.5s-18.167 2.5 -31.5 6.5z
M60.998 101.998c-6.66699 -13.333 -12.167 -25.668 -16.5 -37.001s-6.5 -22 -6.5 -32c0 -15.333 4.66699 -29.166 14 -41.499s24 -19.833 44 -22.5c7.33301 -1.33301 15.166 -1 23.499 1s17.166 4.33301 26.499 7c-27.333 15.333 -48 31 -62 47s-22.333 26.333 -25 31v2
c0.666992 4 2 7.66699 4 11c1.33301 2.66699 3.33301 5.16699 6 7.5s5.66699 3.5 9 3.5c1.33301 0 4.5 -2.5 9.5 -7.5s11.833 -11.5 20.5 -19.5s19.334 -17.333 32.001 -28s27.667 -21.667 45 -33c25.333 12 51.5 30 78.5 54s51.833 51 74.5 81s41.167 61.333 55.5 94
s21.5 63 21.5 91c0 22.667 -5.33301 39.334 -16 50.001s-25.667 16 -45 16c3.33301 0 6.16602 -2.33301 8.49902 -7s3.5 -8.33398 3.5 -11.001c0 -3.33301 -1.66699 -5.66602 -5 -6.99902s-6.66602 -2 -9.99902 -2c-25.333 -6.66699 -52.666 -19.5 -81.999 -38.5
s-57.5 -40.833 -84.5 -65.5s-51.5 -49.834 -73.5 -75.501s-38.667 -48.5 -50 -68.5z" />
    <glyph glyph-name="R" unicode="R" horiz-adv-x="353" 
d="M170 -41c-16 20 -29.4951 39.8301 -40.4951 59.4971s-20.167 34.834 -27.5 45.501l-1 1c-0.666992 1.33301 -1.33398 2.33301 -2.00098 3s-1.33398 1.66699 -2.00098 3l-12 -16c-30 -40 -52.5 -72.333 -67.5 -97s-23.833 -36.334 -26.5 -35.001h-1
c-0.666992 0.666992 -1 2.66699 -1 6c0 1.33301 0.666992 3.33301 2 6s2.66602 5 3.99902 7c3.33301 7.33301 9.66602 19.166 18.999 35.499s20.666 34.833 33.999 55.5l41.5 65.5l50.5 78l52.5 80l48 72l35.5 53.5c9.33301 14 15 22.333 17 25l1 1
c1.33301 0 2.66602 0.333008 3.99902 1c2.66699 1.33301 5.66699 2 9 2s7 -1 11 -3s6 -4.33301 6 -7c0 -3.33301 -1.66699 -7 -5 -11c-1.33301 -3.33301 -3.33301 -6.83301 -6 -10.5s-5.66699 -8.16699 -9 -13.5c5.33301 2.66699 11.833 6.66699 19.5 12
s16.5 10.333 26.5 15s21.167 8.83398 33.5 12.501s25.833 5.5 40.5 5.5h1c19.333 0 34.5 -6 45.5 -18s16.5 -28.667 16.5 -50c0 -18 -3.66699 -37.333 -11 -58s-18 -43 -32 -67c-11.333 -18.667 -25 -39.667 -41 -63s-34 -45.333 -54 -66s-41.833 -38 -65.5 -52
s-48.167 -21 -73.5 -21c-7.33301 0 -16 1.66699 -26 5s-19.333 9.33301 -28 18c3.33301 -5.33301 6.5 -10.666 9.5 -15.999l10.5 -19c2.66699 -5.33301 6.66699 -12.666 12 -21.999s11.333 -18.333 18 -27s14 -16.167 22 -22.5s16.667 -9.5 26 -9.5c8 0 16.667 3 26 9
s16.666 12.333 21.999 19l6 6c3.33301 0 5 -1.33301 5 -4c-2 -4 -4.66699 -8.66699 -8 -14s-7.66602 -10.5 -12.999 -15.5s-11.666 -9.33301 -18.999 -13s-15.666 -5.5 -24.999 -5.5s-17.833 1.83301 -25.5 5.5s-14.834 8.33398 -21.501 14.001s-12.5 11.5 -17.5 17.5
s-9.5 11.667 -13.5 17zM123.005 93.9971c4 -4 9.00195 -9.66797 15.002 -17.001s12.5 -14.333 19.5 -21s14.667 -12.5 23 -17.5s16.833 -7.5 25.5 -7.5c29.333 2 53.166 9.5 71.499 22.5s38.166 32.167 59.499 57.5c42.667 50 73 94.167 91 132.5s27 71.5 27 99.5
c0 9.33301 -2 17.5 -6 24.5s-11.667 10.5 -23 10.5c-19.333 0 -43.666 -7.33301 -72.999 -22c-9.33301 -4.66699 -19 -10.334 -29 -17.001l-30 -21c-10 -7.33301 -19.167 -14.666 -27.5 -21.999s-14.833 -14 -19.5 -20c-14 -17.333 -32.333 -42.166 -55 -74.499l-73 -101.5
l1.5 -1.5c0.333008 -0.333008 1.16602 -1.83301 2.49902 -4.5z" />
    <glyph glyph-name="S" unicode="S" horiz-adv-x="430" 
d="M57 -28c23.333 4 46.8301 8.66016 70.4971 13.9932s47 10.333 70 15s45.333 8.5 67 11.5s42.167 4.5 61.5 4.5c16 0 29.833 -0.833008 41.5 -2.5s20.167 -3.16699 25.5 -4.5c-6.66699 6.66699 -14.834 20.167 -24.501 40.5s-19.334 42.666 -29.001 66.999l-27 71
l-18.5 51.5l-23.5 67.5c-7.66699 21.667 -11.5 44.834 -11.5 69.501c0 7.33301 1.66699 14 5 20s9 10 17 12c22 0 43.333 -5.16699 64 -15.5s39.167 -24.166 55.5 -41.499s29.333 -37.5 39 -60.5s14.5 -46.833 14.5 -71.5c0 -13.333 -1.33301 -24.5 -4 -33.5
s-4.66699 -15.167 -6 -18.5v-1c-1.33301 -0.666992 -3.66602 -2 -6.99902 -4s-7 -3 -11 -3c-3.33301 0 -6.83301 0.666992 -10.5 2s-5.5 3.66602 -5.5 6.99902c0 0.666992 0.166992 1.16699 0.5 1.5s0.5 0.833008 0.5 1.5c-0.666992 -0.666992 -1 -1.33398 -1 -2.00098
c2 2.66699 4 6.33398 6 11.001c1.33301 4 2.66602 8.83301 3.99902 14.5s2 12.834 2 21.501c0 15.333 -2.5 31.5 -7.5 48.5s-12.333 33 -22 48s-21.5 28.167 -35.5 39.5s-30 19.333 -48 24c-8.66699 1.33301 -13.834 2 -15.501 2h-4.5c0 -13.333 2 -30.166 6 -50.499
s9.5 -42.5 16.5 -66.5s14.667 -48.667 23 -74l25 -73c8.33301 -23.333 16.5 -44.666 24.5 -63.999s14.667 -34.333 20 -45c0.666992 -1.33301 1.33398 -3.66602 2.00098 -6.99902s0.833984 -6.66602 0.500977 -9.99902s-1.16602 -6.16602 -2.49902 -8.49902
s-3.66602 -3.5 -6.99902 -3.5c-12 0 -24.167 1.16699 -36.5 3.5s-26.166 3.5 -41.499 3.5c-25.333 0 -49.666 -1.5 -72.999 -4.5s-46.333 -6.5 -69 -10.5s-45 -7.5 -67 -10.5s-44 -4.5 -66 -4.5c-10 0 -17.833 0.333008 -23.5 1s-8.5 4 -8.5 10
c0 3.33301 1.83301 7.33301 5.5 12s6.5 8 8.5 10c3.33301 3.33301 5.66602 5 6.99902 5c2 0 3 -1 3 -3c0 -3.33301 -1.66699 -6.66602 -5 -9.99902s-5.66602 -7 -6.99902 -11c8.66699 0 19.667 1.33301 33 4z" />
    <glyph glyph-name="T" unicode="T" horiz-adv-x="122" 
d="M125 -11c-1.33301 -3.33301 -4.33594 -6.33398 -9.00293 -9.00098s-10 -5 -16 -7s-12.333 -3.66699 -19 -5s-13 -2 -19 -2c-10 0 -19.667 2 -29 6s-14 12.333 -14 25c0 12 3.83301 26.833 11.5 44.5s17.834 37.167 30.501 58.5s27.334 44 44.001 68l53 74
c-45.333 0 -90.166 0.166992 -134.499 0.5s-84.5 0.833008 -120.5 1.5s-66.167 1.16699 -90.5 1.5s-38.833 0.5 -43.5 0.5h-1c-3.33301 1.33301 -6.33301 3.33301 -9 6c-5.33301 5.33301 -8 11.333 -8 18c0 3.33301 1.33301 5.33301 4 6s6.33398 1 11.001 1
c72.667 -2 142 -3.33301 208 -4s133.333 -2.33398 202 -5.00098l42.5 58.5l37 48.5l27.5 34.5c7.33301 9 12 14.5 14 16.5h1c0.666992 0 1.66699 0.333008 3 1c1.33301 0 2.5 0.166992 3.5 0.5s2.16699 0.5 3.5 0.5h1c4 0 8.16699 -1.16699 12.5 -3.5
s6.5 -5.16602 6.5 -8.49902c0 -1.33301 -1.66699 -4.33301 -5 -9l-2 -2l-12.5 -15.5l-19.5 -25l-29.5 -38.5l-42.5 -57c-1.33301 -1.33301 -2 -2.33301 -2 -3c66.667 -2.66699 119 -5 157 -7s66.5 -4 85.5 -6s30.833 -3.66699 35.5 -5s7 -2.33301 7 -3
c0 -2.66699 -1.66699 -4 -5 -4h-12h-5h-111.5c-50.333 0 -106.833 0.333008 -169.5 1l-66 -87.5c-24.667 -33 -47 -65.5 -67 -97.5l-1 -1l-18.5 -32c-6.33301 -11.333 -9.5 -21.666 -9.5 -30.999c0 -6 4.16699 -9.83301 12.5 -11.5s16.166 -2.5 23.499 -2.5
c14.667 0 26.167 2.66699 34.5 8s14.5 8 18.5 8c2 0 3 -1 3 -3c0 -0.666992 -0.666992 -1.66699 -2 -3z" />
    <glyph glyph-name="U" unicode="U" horiz-adv-x="314" 
d="M312 -8l5 2.99805c2 0 3 -1 3 -3c0 -2.66699 -2.16699 -5.5 -6.5 -8.5s-9.83301 -5.83301 -16.5 -8.5s-13.834 -4.83398 -21.501 -6.50098s-14.5 -2.5 -20.5 -2.5c-10 0 -19.667 2 -29 6s-14 12.333 -14 25c0 10 2.83301 20.833 8.5 32.5s11.5 22.834 17.5 33.501
c-9.33301 -7.33301 -20 -14.666 -32 -21.999s-24.5 -13.833 -37.5 -19.5s-26 -10.334 -39 -14.001s-24.833 -5.5 -35.5 -5.5h-2c-14 0 -25.167 2.33301 -33.5 7s-15 10.667 -20 18s-8.33301 16 -10 26s-2.5 20.333 -2.5 31c2 20.667 6.5 40.5 13.5 59.5s14.5 36.5 22.5 52.5
s15.667 30.167 23 42.5s13 22.166 17 29.499c-8.66699 -4 -19 -8.33301 -31 -13l-42 -16c-2.66699 -1.33301 -4 -1.83301 -4 -1.5s-0.333008 0.5 -1 0.5c-2.66699 0 -4 1.33301 -4 4c6 4.66699 14.333 10.667 25 18l33.5 23.5c11.667 8.33301 23.5 17.5 35.5 27.5
s22.667 20.333 32 31c2 2 4.66699 3.5 8 4.5s6.83301 1 10.5 0s6.83398 -2.5 9.50098 -4.5s4 -5 4 -9c0 -3.33301 -2.66699 -9.66602 -8 -18.999s-10.333 -17.333 -15 -24l-15 -23c-6.66699 -10 -14 -22.5 -22 -37.5l-29 -53.5c-6 -15.333 -13.167 -32 -21.5 -50
s-12.5 -38.667 -12.5 -62c0 -15.333 4.66699 -25.666 14 -30.999s20.333 -8 33 -8c9.33301 0 21.333 1.66699 36 5c20 5.33301 37.167 11.5 51.5 18.5s26.5 14.167 36.5 21.5s18 14.666 24 21.999s10.667 13.666 14 18.999l38 57.5l46 66l48 66.5l43.5 59.5l33 44
c9 11.667 14.833 18.834 17.5 21.501c0.666992 0 1.83398 0.333008 3.50098 1s4.16699 1 7.5 1h1c4 0 8.16699 -1.16699 12.5 -3.5s6.5 -5.16602 6.5 -8.49902c0 -2 -2.33301 -5.66699 -7 -11l-12.5 -15.5l-20 -25l-30 -38.5l-41.5 -57l-34 -45l-39.5 -52.5l-41 -57
l-38.5 -57.5l-1 -1l-18.5 -32c-6.33301 -11.333 -9.5 -21.666 -9.5 -30.999c0 -6 3.83301 -10 11.5 -12s15.5 -3 23.5 -3c15.333 0 27.166 2.5 35.499 7.5s12.833 7.16699 13.5 6.5z" />
    <glyph glyph-name="V" unicode="V" horiz-adv-x="238" 
d="M29 371c3.33301 6 8.00293 12.4971 14.0029 19.4971s12.667 11.167 20 12.5h1c5.33301 0 9.33301 -1.5 12 -4.5s4.66699 -5.16699 6 -6.5c2.66699 -4 4.66699 -7.83301 6 -11.5s2.66602 -7.83398 3.99902 -12.501c2 -6.66699 4 -14 6 -22
c7.33301 -33.333 13.5 -66.166 18.5 -98.499s9 -63 12 -92s5.33301 -55.5 7 -79.5s3.16699 -44 4.5 -60l3 -40c2 12 7.33301 26.5 16 43.5s19.667 35.667 33 56s28.333 41.666 45 63.999l51 66.5l7 9l40.5 53.5c13 17.667 24.667 34.334 35 50.001s18.666 30 24.999 43
s9.5 23.5 9.5 31.5c0 4 -2 6 -6 6c-4.66699 2 -7.33398 6 -8.00098 12s-1 10.667 -1 14c0 2 1 3.5 3 4.5s3.66699 1.5 5 1.5c0.666992 0 3 -0.333008 7 -1s8.5 -2.16699 13.5 -4.5s9.5 -6.16602 13.5 -11.499s6 -12.666 6 -21.999c0 -16 -6.16699 -34.833 -18.5 -56.5
s-28.666 -45.667 -48.999 -72s-43.5 -54.833 -69.5 -85.5l-80 -97c-13.333 -16 -25 -32.167 -35 -48.5s-18.333 -31.166 -25 -44.499c-8 -15.333 -14.667 -30 -20 -44c-1.33301 0 -2.33301 1.33301 -3 4c0 2 -0.166992 5.16699 -0.5 9.5s-1.33301 11.333 -3 21l-6.5 39
c-2.66699 16.333 -6 37.833 -10 64.5c-2 0 -3.66699 0.333008 -5 1l-11 3c-12.667 4 -24.834 12.167 -36.501 24.5s-22 27 -31 44s-16.167 35.833 -21.5 56.5s-8 42 -8 64c0 36 8 68 24 96zM58.0029 358.997c-14 -21.333 -21.0029 -47.999 -21.0029 -79.999
c0 -23.333 2.66699 -44.333 8 -63s11.833 -34.834 19.5 -48.501s15.834 -25 24.501 -34s16.667 -15.167 24 -18.5l-9 59c-2.66699 18 -5.66699 35.333 -9 52l-1 3l-12.5 62c-4.33301 20.667 -9.5 41 -15.5 61c-1.33301 3.33301 -2.66602 6.5 -3.99902 9.5
s-2.66602 2.16699 -3.99902 -2.5z" />
    <glyph glyph-name="W" unicode="W" horiz-adv-x="417" 
d="M546 271c-14 -18.667 -31.667 -40.3271 -53 -64.9941l-65 -75l-61.5 -73.5c-19 -23.667 -33.167 -43.834 -42.5 -60.501c-2.66699 -4.66699 -5 -9.83398 -7 -15.501s-4 -11 -6 -16s-3.83301 -9.16699 -5.5 -12.5s-2.83398 -5 -3.50098 -5c-2 0 -3 1 -3 3v1
c-0.666992 0.666992 -1 1.66699 -1 3v4c-0.666992 6.66699 -3.66699 22.667 -9 48s-11 54.666 -17 87.999l-8 44v2c-18 -24 -34.5 -47.167 -49.5 -69.5s-27.667 -42.333 -38 -60s-18.333 -32.5 -24 -44.5s-8.5 -19.333 -8.5 -22
c0 -0.666992 -0.666992 -0.833984 -2 -0.500977s-1.66602 0.5 -0.999023 0.5c-1.33301 0 -2.16602 4.66699 -2.49902 14s-1.16602 17.666 -2.49902 24.999l-1 15c-0.666992 10 -1.83398 21 -3.50098 33s-3.66699 23.167 -6 33.5s-5.5 16.166 -9.5 17.499l-10 3
c-13.333 4.66699 -25.833 13.167 -37.5 25.5s-22 27.333 -31 45s-16.167 37 -21.5 58s-8 42.5 -8 64.5c0 34 8.33301 64.667 25 92c4.66699 7.33301 9.66699 14 15 20s11.666 10 18.999 12h1c6 0 10.833 -2 14.5 -6s6.66699 -8.83301 9 -14.5s4.33301 -11.834 6 -18.501
l4.5 -18c8 -33.333 14.333 -66.166 19 -98.499s8.5 -63 11.5 -92s5.33301 -55.5 7 -79.5s3.16699 -44 4.5 -60l2 -38c8 24.667 22 54.334 42 89.001s43 71 69 109l-13 78c-3.33301 20 -5 35.667 -5 47c0 4 1 8.5 3 13.5s6 7.5 12 7.5c3.33301 0 6.83301 -1.16699 10.5 -3.5
s6.16699 -6.16602 7.5 -11.499c1.33301 -6 2.5 -15.833 3.5 -29.5s3.83301 -34.5 8.5 -62.5l35 53c11.333 17.333 21.333 33.833 30 49.5s15.667 30 21 43s8 23.5 8 31.5c-1.33301 3.33301 -3.16602 5.66602 -5.49902 6.99902s-4.83301 4.66602 -7.5 9.99902
c-2.66699 4 -4 8.33301 -4 13c0 4 0.666992 6.5 2 7.5s3.33301 1.5 6 1.5c0.666992 0 3 -0.333008 7 -1s8.33301 -2.16699 13 -4.5s9.16699 -6 13.5 -11s7.16602 -11.833 8.49902 -20.5c0 -28 -10.667 -59 -32 -93s-51 -76.333 -89 -127l4.5 -45s3.16699 -35 4.5 -53l4 -52
c1.33301 -16.667 2.33301 -30.667 3 -42c4 10.667 10.833 24.667 20.5 42s21.5 36.333 35.5 57l45.5 64l49.5 64l12 16l43.5 55.5c14.333 18.333 27 35.5 38 51.5s19.833 30.167 26.5 42.5s10 21.5 10 27.5l-1 1l-1 2c0 2.66699 -1 5 -3 7s-3 6.33301 -3 13
c0 4.66699 1.66699 7.66699 5 9c8.66699 0 16.5 -2.33301 23.5 -7s11.167 -12.667 12.5 -24c0 -15.333 -5.66699 -32.5 -17 -51.5s-30.333 -45.833 -57 -80.5zM91 134.007c6 -6.66699 11.334 -11.1699 16.001 -13.5029s8 -4.16602 10 -5.49902c-2 14 -4.66699 30.667 -8 50
l-11 61c-4.66699 24.667 -9.83398 48.334 -15.501 71.001l-16.5 68v-1c-4 -2 -7.5 -6.33301 -10.5 -13s-5.66699 -14.167 -8 -22.5s-4 -17.166 -5 -26.499s-1.5 -17.333 -1.5 -24c0 -34 5 -63 15 -87s21.667 -43 35 -57z" />
    <glyph glyph-name="X" unicode="X" horiz-adv-x="225" 
d="M75 226c-3.33301 8 -4.83691 21.8271 -4.50391 41.4941s2.5 39.667 6.5 60s10.333 38.333 19 54s20 23.5 34 23.5c10 0 17.833 -4.5 23.5 -13.5s10.167 -16.5 13.5 -22.5c8 -18 15.333 -41 22 -69s11.667 -57.333 15 -88l64 77l54 61.5l39.5 42.5
c10.333 10.667 16.833 17 19.5 19c4 1.33301 10.333 2 19 2s13 -3.33301 13 -10c0 -2 -0.833008 -3.83301 -2.5 -5.5s-3.16699 -3.83398 -4.5 -6.50098l-65.5 -70l-51.5 -58l-43 -50.5l-39 -46.5c0.666992 -7.33301 1 -15 1 -23v-23c0 -19.333 -1.33301 -38.166 -4 -56.499
s-6 -35.166 -10 -50.499s-8.16699 -28.666 -12.5 -39.999s-8.16602 -19.666 -11.499 -24.999l-2 1c-0.666992 0 -1 0.333008 -1 1c0 1.33301 0.333008 2.33301 1 3c0 2.66699 3.33301 15.5 10 38.5s10 57.167 10 102.5c0 7.33301 -0.166992 15 -0.5 23s-0.833008 16 -1.5 24
l-72.5 -87l-73.5 -85c-23.333 -26 -44.166 -47.333 -62.499 -64s-31.166 -24.667 -38.499 -24c-1.33301 1.33301 -1.5 3 -0.5 5s2.83301 3.66699 5.5 5c-1.33301 0 4.66699 7 18 21s31 33.833 53 59.5l76.5 92.5c29 36 59.167 76 90.5 120c-4 30 -9.33301 61.667 -16 95
s-18.667 62.666 -36 87.999h-1c-0.666992 0 -1 -0.333008 -1 -1s-0.333008 -1.33398 -1 -2.00098c-8 -16.667 -14.167 -32.167 -18.5 -46.5s-6.5 -29.166 -6.5 -44.499c0 -11.333 0.666992 -20.166 2 -26.499s2 -11.166 2 -14.499v-1
c0.666992 -1.33301 -1.66602 -5.16602 -6.99902 -11.499s-10.333 -9.5 -15 -9.5c-2.66699 0 -4.5 1.33301 -5.5 4s-2.16699 6.33398 -3.5 11.001z" />
    <glyph glyph-name="Y" unicode="Y" horiz-adv-x="213" 
d="M384 402c2 0 4.99707 -0.671875 8.99707 -2.00488s6 -3.66602 6 -6.99902c0 -2 -1.66699 -6.33301 -5 -13c-4 -8.66699 -10.167 -18.834 -18.5 -30.501s-19.5 -29.167 -33.5 -52.5l-33 -53c-14 -22.667 -30.5 -47.834 -49.5 -75.501l-62 -88
c-22.333 -31 -45.5 -61.5 -69.5 -91.5l-28 -34c-10 -12 -20 -23.167 -30 -33.5s-19.667 -19 -29 -26s-17 -10.5 -23 -10.5h-1c-3.33301 0 -5.16602 1.16699 -5.49902 3.5s-0.833008 4.5 -1.5 6.5c0 4.66699 0.166992 7.33398 0.5 8.00098s1.16602 1 2.49902 1
c2.66699 0 3.83398 -1.33301 3.50098 -4s0.166992 -4.66699 1.5 -6c5.33301 0 16.5 9.5 33.5 28.5s38.167 46.5 63.5 82.5c-2 -0.666992 -5.66699 -1 -11 -1c-15.333 0 -27.166 5.66699 -35.499 17s-14.666 25.5 -18.999 42.5s-7 35.5 -8 55.5s-1.5 38.333 -1.5 55
c0 15.333 0.166992 31.333 0.5 48s1.5 35.667 3.5 57l3 37c0 3.33301 0.166992 7.83301 0.5 13.5s-2.16699 8.5 -7.5 8.5c-2 0 -5.16699 -0.833008 -9.5 -2.5s-8.83301 -3.66699 -13.5 -6s-9 -4.33301 -13 -6s-6.33301 -2.5 -7 -2.5
c-5.33301 -2.66699 -10.166 -2.16699 -14.499 1.5s-6.5 9.5 -6.5 17.5c0 2.66699 2 5.33398 6 8.00098l18.5 12.5c10.333 7 23.833 10.5 40.5 10.5c10 0 19.5 -2.33301 28.5 -7s12.833 -14 11.5 -28l-1 -20l-11 -127c-1.33301 -13.333 -2.16602 -27.166 -2.49902 -41.499
s-0.5 -28.5 -0.5 -42.5c0 -7.33301 0.333008 -16.166 1 -26.499s2.33398 -20.166 5.00098 -29.499s6.66699 -17.166 12 -23.499s12.666 -9.5 21.999 -9.5c3.33301 0 6.66602 0.5 9.99902 1.5s6.66602 2.16699 9.99902 3.5l50.5 75l52 80l48.5 77l41.5 67l31.5 50.5l17 26.5
c0.666992 0.666992 2.5 1.66699 5.5 3s6.83301 2 11.5 2z" />
    <glyph glyph-name="Z" unicode="Z" horiz-adv-x="413" 
d="M435 394c0 -2.66699 -0.167969 -5.33008 -0.500977 -7.99707s-1.5 -5 -3.5 -7c-20.667 -25.333 -44.834 -49.5 -72.501 -72.5l-79.5 -66.5l-124.5 -108c-33 -29.333 -58.833 -54 -77.5 -74l-11.5 -14l-12.5 -15.5c-4 -5 -7.5 -9.16699 -10.5 -12.5l-4.5 -5
c7.33301 1.33301 17.333 2.66602 30 3.99902s24.667 2 36 2c28 0 61.833 -4 101.5 -12s81.167 -18.667 124.5 -32l41 -12.5c12 -3.66699 21.667 -5.5 29 -5.5c3.33301 0 6.66602 0.5 9.99902 1.5s5 4.16699 5 9.5c0 6.66699 -2.33301 13.667 -7 21
c-3.33301 4.66699 -5 7.33398 -5 8.00098s-0.333008 1.66699 -1 3c0 3.33301 0.666992 5 2 5c2 0 4.33301 -1.5 7 -4.5s5.16699 -6.5 7.5 -10.5s4.33301 -8 6 -12s2.5 -7.33301 2.5 -10c0 -10 -3.66699 -16.667 -11 -20s-15.666 -5 -24.999 -5c-22 2 -45.333 5.33301 -70 10
l-74.5 14.5c-25 5 -49.333 9.33301 -73 13s-45.5 5.5 -65.5 5.5s-36.5 -1.16699 -49.5 -3.5s-21.167 -3.5 -24.5 -3.5c-4.66699 -0.666992 -7.66699 0 -9 2l-4 8c-2.66699 5.33301 -4 9.66602 -4 12.999s3 6 9 8h1c4 10 13 23.5 27 40.5s31.833 36.667 53.5 59l74 73
l87.5 81.5l66 61l28.5 27.5c9.66699 9 18.834 18.167 27.501 27.5c-39.333 -6.66699 -77.833 -18.5 -115.5 -35.5s-71.667 -35.667 -102 -56s-55.5 -40.333 -75.5 -60s-32 -34.834 -36 -45.501v-1c-2.66699 -2 -4.66699 -4.5 -6 -7.5s-2.66602 -5.83301 -3.99902 -8.5h-1
c-2.66699 -6.66699 -5.33398 -10 -8.00098 -10c-3.33301 0 -6.33301 2.16699 -9 6.5s-4 10.5 -4 18.5c0 12.667 6 27.167 18 43.5s28.5 33.166 49.5 50.499s45.833 34.5 74.5 51.5s59.667 33.167 93 48.5c16 7.33301 37.333 15.166 64 23.499s55.334 12.5 86.001 12.5
c6.66699 0 11.667 -1.66699 15 -5s5 -6.66602 5 -9.99902z" />
    <glyph glyph-name="backslash" unicode="\" horiz-adv-x="177" 
d="M-24 466c7.33301 -1.33301 11.332 -3 11.999 -5s2.66699 -6.33301 6 -13c2.66699 -7.33301 10.667 -25.666 24 -54.999l49.5 -108.5l66.5 -143.5l76 -160c0 -3.33301 -1 -5 -3 -5c-1.33301 0 -3.33301 2 -6 6c-42.667 70.667 -78.834 133.334 -108.501 188.001
s-53.667 101.167 -72 139.5s-32 68.166 -41 89.499s-14.167 34 -15.5 38c-1.33301 2.66699 -2.16602 5.66699 -2.49902 9s-0.166016 6.66602 0.500977 9.99902s2.16699 6 4.5 8s5.5 2.66699 9.5 2z" />
    <glyph glyph-name="underscore" unicode="_" horiz-adv-x="621" 
d="M578 -38c2 -6.66699 0.499023 -12.332 -4.50098 -16.999s-6.5 -6.33398 -4.5 -5.00098c1.33301 0.666992 -7.33398 0.833984 -26.001 0.500977s-43.334 -0.833008 -74.001 -1.5s-65.167 -1.16699 -103.5 -1.5s-77 0 -116 1s-76.333 2.66699 -112 5
s-65.5 6.16602 -89.5 11.499c-2 0 -3.33301 1 -4 3c0 1.33301 0.666992 2.66602 2 3.99902c17.333 0 42 0.166992 74 0.5s67 0.833008 105 1.5l116.5 2c39.667 0.666992 75.834 1.33398 108.501 2.00098s59.834 1.16699 81.501 1.5s33.834 0.833008 36.501 1.5h6.5
c1 0 2.16699 -3 3.5 -9z" />
    <glyph glyph-name="grave" unicode="`" horiz-adv-x="210" 
d="M153 160c-4 -2.66699 -11.168 -4.66309 -21.501 -5.99609s-20.666 -1.5 -30.999 -0.5s-19.5 3 -27.5 6s-12 7.83301 -12 14.5c0 5.33301 2.5 10.166 7.5 14.499s8.16699 7.16602 9.5 8.49902c2 2 5.16699 1.33301 9.5 -2l16 -12
c6.33301 -4.66699 13.5 -8.83398 21.5 -12.501s16.333 -4.83398 25 -3.50098c2.66699 -0.666992 4 -2 4 -4c0 -1.33301 -0.333008 -2.33301 -1 -3z" />
    <glyph glyph-name="a" unicode="a" 
d="M12 -2c-8.66699 0 -15.167 3.66895 -19.5 11.002s-5.83301 15 -4.5 23c2 14.667 7.33301 27.667 16 39s18.834 20.833 30.501 28.5s24 13.5 37 17.5s24.833 6 35.5 6c6 0 13.333 -1.66699 22 -5s13 -7.66602 13 -12.999c0 -2 -1.66699 -4.83301 -5 -8.5
s-6 -6.83398 -8 -9.50098c0 -0.666992 -1.33301 -2.83398 -4 -6.50098l-9.5 -13c-3.66699 -5 -6.83398 -10.333 -9.50098 -16s-4 -11.167 -4 -16.5c0 -9.33301 5 -14 15 -14c8 0.666992 17 2.66699 27 6l24 8l14 5c3.33301 1.33301 4.83301 2 4.5 2s0.166992 0 1.5 0
c2 0 3 -1.33301 3 -4l-1 -1l-4 -3c-0.666992 -0.666992 -3.16699 -2.83398 -7.5 -6.50098s-10 -7.5 -17 -11.5s-14.833 -7.66699 -23.5 -11s-17.667 -5 -27 -5c-8.66699 0 -15.834 2.66699 -21.501 8s-9.83398 12.333 -12.501 21c-9.33301 -6 -19.166 -12.667 -29.499 -20
s-22.166 -11 -35.499 -11zM20 37.002c-1.33301 -1.33301 -2.50195 -3.33398 -3.50195 -6.00098s-0.833008 -4.66699 0.5 -6c0.666992 -1.33301 4.33398 -0.666016 11.001 2.00098c13.333 4.66699 23.5 9.33398 30.5 14.001s12.5 9.66699 16.5 15s7.33301 10.666 10 15.999
s6 11 10 17c-7.33301 0 -17.666 -3.33301 -30.999 -10s-28 -20.667 -44 -42z" />
    <glyph glyph-name="b" unicode="b" horiz-adv-x="210" 
d="M136 9c-10.667 -8.66699 -26.002 -12.999 -46.002 -12.999c-2 0 -5 0.166992 -9 0.5s-8.16699 1.16602 -12.5 2.49902s-8.16602 2.83301 -11.499 4.5s-5 4.16699 -5 7.5c-8.66699 -9.33301 -13.334 -15 -14.001 -17c-3.33301 0 -8.5 1.5 -15.5 4.5
s-10.5 7.16699 -10.5 12.5c0 4.66699 3.16699 10.334 9.5 17.001l16.5 18c-21.333 -10.667 -36.666 -17.667 -45.999 -21s-16 -5.33301 -20 -6c-2 0 -3 0.666992 -3 2c0 3.33301 3.16699 6 9.5 8s16.166 7 29.499 15s30.333 20.667 51 38s45.667 43 75 77
c2 2 4.33301 4.5 7 7.5s4 5.16699 4 6.5l44 57.5c14 18.333 26.667 35.833 38 52.5l40 57c0.666992 0 2 0.333008 4 1s4.66699 1 8 1s7 -0.833008 11 -2.5s6.66699 -3.5 8 -5.5c-2 -6 -6.5 -14.5 -13.5 -25.5l-24.5 -37.5c-9.33301 -14 -19.666 -28.5 -30.999 -43.5
l-33 -43.5c-10.667 -14 -20.667 -26.5 -30 -37.5s-16.666 -19.167 -21.999 -24.5c7.33301 -2 14 -6.66699 20 -14s9 -16.333 9 -27c0 -15.333 -4 -30.333 -12 -45c-1.33301 -1.33301 -2 -2.66602 -2 -3.99902c5.33301 -1.33301 10.333 -2 15 -2c8 0 14 0.166992 18 0.5
s8 1.16602 12 2.49902l8 2c0.666992 0 1 0.166992 1 0.5s0.333008 0.5 1 0.5h1c4 0 6 -0.666992 6 -2v1c0 -3.33301 -2 -6.33301 -6 -9c-3.33301 -2.66699 -8.83301 -4.83398 -16.5 -6.50098s-18.834 -2.5 -33.501 -2.5c-3.33301 0 -6.16602 0.166992 -8.49902 0.5
s-5.16602 0.5 -8.49902 0.5c-2 -1.33301 -3.83301 -2.83301 -5.5 -4.5s-3.83398 -3.16699 -6.50098 -4.5zM126.998 89.001c-2.66699 -6 -4 -12.667 -4 -20c0 -8.66699 2.33301 -15.667 7 -21c3.33301 5.33301 5.83301 10.666 7.5 15.999s2.5 10 2.5 14
c0 10.667 -4.33301 14.334 -13 11.001zM68.998 28.001c6 -6 14.166 -7.49707 24.499 -4.49707s18.5 6.83301 24.5 11.5c-6.66699 5.33301 -10.667 11.166 -12 17.499s-2.66602 13.166 -3.99902 20.499l-5.5 -5.5c-3.66699 -3.66699 -7.5 -7.83398 -11.5 -12.501
s-7.66699 -9.5 -11 -14.5s-5 -8.83301 -5 -11.5v-1z" />
    <glyph glyph-name="c" unicode="c" horiz-adv-x="145" 
d="M77 71c1.33301 1.33301 3.99902 4.16992 7.99902 8.50293s6.66699 7.83301 8 10.5h-3c-2 0 -5.66699 -0.666992 -11 -2s-11.333 -3.66602 -18 -6.99902s-13.5 -7.83301 -20.5 -13.5s-13.167 -12.834 -18.5 -21.501c-1.33301 -3.33301 -1.83301 -5.33301 -1.5 -6
s0.5 -1.33398 0.5 -2.00098v-1c0.666992 -0.666992 1.33398 -1.83398 2.00098 -3.50098s2.5 -3.33398 5.5 -5.00098s7.83301 -3.16699 14.5 -4.5s16.334 -2 29.001 -2c24 0 44 2.83301 60 8.5s24.333 9.16699 25 10.5c2.66699 0 4.33398 -0.333008 5.00098 -1
c0 -1.33301 -0.333008 -3 -1 -5c-8.66699 -6.66699 -18.334 -12.334 -29.001 -17.001c-9.33301 -4.66699 -20.5 -8.66699 -33.5 -12s-27.833 -5.66602 -44.5 -6.99902h-5c-5.33301 0 -11.333 0.666992 -18 2s-13 3.66602 -19 6.99902s-11 7.5 -15 12.5s-6 11.167 -6 18.5
c0 12.667 3.83301 24.167 11.5 34.5s17.167 19 28.5 26s23.5 12.5 36.5 16.5s25.167 6.33301 36.5 7c4.66699 0 9 -1 13 -3c3.33301 -1.33301 6.33301 -3.66602 9 -6.99902s4 -8.66602 4 -15.999c0 -6.66699 -2.66699 -12.334 -8 -17.001s-11.333 -8.5 -18 -11.5
s-12.834 -5.16699 -18.501 -6.5s-9.16699 -2 -10.5 -2l-1 1c-1.33301 0 -2 1.33301 -2 4v1l5 5v0z" />
    <glyph glyph-name="d" unicode="d" horiz-adv-x="207" 
d="M128 40c-2.66699 -7.33301 -0.661133 -13.499 6.00586 -18.499s13 -7.5 19 -7.5c5.33301 0 12.166 2.33301 20.499 7l34.5 19c4 2 6.16699 2.83301 6.5 2.5s0.833008 -0.5 1.5 -0.5c1.33301 0 2.33301 -0.333008 3 -1c0 -4 -2.66699 -8.5 -8 -13.5s-11.833 -10 -19.5 -15
s-15.667 -9 -24 -12s-15.5 -4.5 -21.5 -4.5c-14.667 0 -25.334 4.33301 -32.001 13c-6 6.66699 -9 14.334 -9 23.001c0 8 1 15 3 21c-3.33301 -3.33301 -6.83301 -7.16602 -10.5 -11.499s-8.16699 -8.83301 -13.5 -13.5c-6.66699 -6 -14.5 -12.5 -23.5 -19.5
s-20.167 -11.5 -33.5 -13.5c-2.66699 0 -6.5 0.166992 -11.5 0.5s-10.167 3.16602 -15.5 8.49902c-3.33301 3.33301 -6.66602 7.16602 -9.99902 11.499s-5 9.83301 -5 16.5c0 11.333 5.66699 22.5 17 33.5s24.166 20.667 38.499 29s28.166 15 41.499 20s22.333 7.5 27 7.5
l1 -1c3.33301 -2.66699 5.5 -5.33398 6.5 -8.00098s2.16699 -6.66699 3.5 -12l19 26.5l21.5 29.5l18 24.5c5 7 8.16699 11.167 9.5 12.5c11.333 15.333 21.666 30 30.999 44l24 36l34 51h8c3.33301 0 7.66602 -0.666992 12.999 -2s8 -3.66602 8 -6.99902
c0 -0.666992 -0.666992 -3 -2 -7h-1c-3.33301 -7.33301 -10 -18 -20 -32s-23 -33.333 -39 -58c-19.333 -29.333 -39.333 -57.833 -60 -85.5s-39.334 -58.834 -56.001 -93.501zM103.006 81.001c3.33301 3.33301 5.66602 6.00195 6.99902 8.00195l-18 -6
c-2 -0.666992 -7.16699 -2.83398 -15.5 -6.50098s-17.166 -8.16699 -26.499 -13.5s-17.666 -11 -24.999 -17s-11 -11.333 -11 -16c0 -6.66699 3.66699 -10 11 -10s17.666 3.33301 30.999 10c4 3.33301 8.33301 7.66602 13 12.999c4 4.66699 8.83301 10 14.5 16
s12.167 13.333 19.5 22z" />
    <glyph glyph-name="e" unicode="e" horiz-adv-x="148" 
d="M157 35c-9.33301 -6 -19.667 -12.0029 -31 -18.0029s-23.166 -10.833 -35.499 -14.5s-25.333 -6 -39 -7s-26.834 0.5 -39.501 4.5c-7.33301 3.33301 -13 7.33301 -17 12s-6.66699 11.334 -8 20.001v1c0 10 3.33301 20.333 10 31s15.167 20.334 25.5 29.001
s21.5 15.834 33.5 21.501s23 8.5 33 8.5c7.33301 0 15.5 -1.66699 24.5 -5s13.5 -10.333 13.5 -21c0 -11.333 -4.16699 -21.166 -12.5 -29.499s-18.333 -15.166 -30 -20.499s-23.834 -9.33301 -36.501 -12s-23.334 -4 -32.001 -4c0 -2.66699 2 -4.83398 6 -6.50098
s8.5 -2.83398 13.5 -3.50098s10 -1.16699 15 -1.5s8.83301 -0.5 11.5 -0.5c11.333 0 23 1.16699 35 3.5s22.667 4.83301 32 7.5c10.667 3.33301 17.334 6 20.001 8s4.33398 3 5.00098 3c2.66699 0 4 -1 4 -3v-2zM33.999 56.9971
c-1.33301 -1.33301 -3.5 -3.33398 -6.5 -6.00098s-3.5 -3.66699 -1.5 -3c2.66699 0.666992 7.5 2.66699 14.5 6s12.833 6.33301 17.5 9l10 7c4 3.33301 8.16699 7 12.5 11s7.16602 7.33301 8.49902 10c-1.33301 0 -4.16602 -0.833008 -8.49902 -2.5s-8.5 -3.5 -12.5 -5.5
l-5 -3l-14 -10c-4.66699 -3.33301 -9.66699 -7.66602 -15 -12.999z" />
    <glyph glyph-name="f" unicode="f" horiz-adv-x="182" 
d="M-105 -206l-0.000976562 2.99902v2c0 2 1.33301 5.5 4 10.5l9 17.5c3.33301 6.66699 7.33301 13.667 12 21l13 21c28.667 44 55.334 83.167 80.001 117.5l69 96.5l-38 -27.5c-12.667 -9 -26.667 -16.833 -42 -23.5l-14.5 -6.5
c-2.33301 -1 -4.16602 -1.83301 -5.49902 -2.5c-4.66699 -1.33301 -7.66699 -2.33301 -9 -3s-2.66602 -1 -3.99902 -1c-2 0 -3 0.333008 -3 1v2c0 2 1.16699 3.5 3.5 4.5s4.16602 2.16699 5.49902 3.5c8 5.33301 16 10.333 24 15s20.333 13.667 37 27
c13.333 11.333 28.166 24.666 44.499 39.999s32.5 32.333 48.5 51c13.333 14.667 30 34.334 50 59.001s42.333 54.667 67 90c1.33301 2 2.83301 4 4.5 6s6.5 8.33301 14.5 19c1.33301 1.33301 4.83301 4.16602 10.5 8.49902s12.5 6.5 20.5 6.5c2 0 4 -0.5 6 -1.5
s3 -2.5 3 -4.5c0 -4.66699 -4.66699 -13.667 -14 -27c-8.66699 -14.667 -20.667 -32.167 -36 -52.5l-63 -86.5l-63 -89c2 -6 3 -11.667 3 -17c0 -7.33301 -1 -14.833 -3 -22.5s-4 -14.5 -6 -20.5c2 -2 4.16699 -3.5 6.5 -4.5s6.16602 -1.5 11.499 -1.5
c2 0 5.66699 0.833008 11 2.5s10.666 3.5 15.999 5.5l15 5.5c4.66699 1.66699 7.66699 2.5 9 2.5h1c2 0 3 -1.66699 3 -5l-3 -2c-1.33301 -1.33301 -4.16602 -3.66602 -8.49902 -6.99902s-9.5 -6.66602 -15.5 -9.99902s-12.5 -6.5 -19.5 -9.5s-13.5 -4.5 -19.5 -4.5
c-6.66699 0 -12.334 1 -17.001 3c-7.33301 -17.333 -16.666 -35 -27.999 -53s-23.833 -36 -37.5 -54s-28.167 -35.667 -43.5 -53s-30.333 -33.333 -45 -48c-3.33301 -3.33301 -8.66602 -8.33301 -15.999 -15s-16.333 -10 -27 -10c-8 0 -13.5 2.83301 -16.5 8.5
s-4.5 9.16699 -4.5 10.5v2zM-67.001 -186.001c-1.33301 -1.33301 -2 -2.66797 -2 -4.00098c17.333 13.333 34.166 28.833 50.499 46.5s31.833 36 46.5 55s27.834 37.667 39.501 56s21.5 35.166 29.5 50.499c-4 6.66699 -6.66699 13 -8 19
c-2 -3.33301 -4 -6.16602 -6 -8.49902s-4 -5.16602 -6 -8.49902l-85 -119l-31 -44c-10 -14 -19.333 -28.333 -28 -43z" />
    <glyph glyph-name="g" unicode="g" horiz-adv-x="146" 
d="M-113 -225c-14 0 -20.9951 7.33301 -20.9951 22c0 5.33301 0.666992 10.166 2 14.499l4 12.5c6 14.667 14.333 29.834 25 45.501s22.667 30.834 36 45.501s27.666 28.167 42.999 40.5s31.333 23.166 48 32.499l12 17
c-4.66699 -2.66699 -10.334 -4.33398 -17.001 -5.00098s-12.667 -0.333984 -18 0.999023c-6.66699 1.33301 -11 5 -13 11s-3 10.667 -3 14c0 14 3.83301 26.833 11.5 38.5s17.5 21.667 29.5 30s25 15 39 20s27.333 7.83301 40 8.5
c5.33301 -1.33301 8.66602 -2.66602 9.99902 -3.99902s2.33301 -3.33301 3 -6c1.33301 0.666992 3.66602 1.5 6.99902 2.5s6.33301 1.5 9 1.5c3.33301 0 6.83301 -0.666992 10.5 -2s5.5 -3.66602 5.5 -6.99902c0 -2.66699 -1 -5.33398 -3 -8.00098l-6 -8l-57 -77l23 6
c8 2 14.333 3.66699 19 5l20 5c3.33301 1.33301 5.5 2 6.5 2h3.5c2 0 3 -0.666992 3 -2v-1c0 -2.66699 -4.33301 -5.16699 -13 -7.5s-15.334 -4.5 -20.001 -6.5l-7 -2c-5.33301 -1.33301 -12.5 -3.5 -21.5 -6.5s-18.167 -6.83301 -27.5 -11.5l-64 -88
c-7.33301 -9.33301 -14.5 -19 -21.5 -29s-14.833 -20 -23.5 -30l-43 -53c-4 -5.33301 -8.33301 -10.166 -13 -14.499s-10.667 -6.5 -18 -6.5zM25.0049 27c10.667 3.33301 19.667 7.5 27 12.5s13.833 10.333 19.5 16s10.5 11.5 14.5 17.5s8.33301 11.667 13 17
c-0.666992 0 -3.66699 -0.5 -9 -1.5s-12 -3.16699 -20 -6.5s-16.5 -8.5 -25.5 -15.5s-17.833 -16.833 -26.5 -29.5c-2.66699 -4.66699 -4 -8.66699 -4 -12c2 0 5.66699 0.666992 11 2zM-8.99512 -57c-18.667 -17.333 -36.334 -36.333 -53.001 -57s-29.667 -43 -39 -67
c12.667 16 24.834 32.5 36.501 49.5s23.5 32.833 35.5 47.5z" />
    <glyph glyph-name="h" unicode="h" horiz-adv-x="193" 
d="M294 333c0 -12 -4.67188 -26.667 -14.0049 -44s-21.5 -35.5 -36.5 -54.5s-31.833 -38 -50.5 -57s-37.334 -36.5 -56.001 -52.5l1 1l6 -2c0.666992 -0.666992 4 -2.83398 10 -6.50098s8.66699 -5.83398 8 -6.50098c0 -2 -0.333008 -3.33301 -1 -4v-1
c-5.33301 -14.667 -12.666 -28 -21.999 -40s-17.333 -25.667 -24 -41c0 -4 4 -6 12 -6s16.833 1 26.5 3s19 4.16699 28 6.5s14.5 4.16602 16.5 5.49902c0.666992 0.666992 1.66699 1 3 1c2.66699 0 3.33398 -0.666992 2.00098 -2c0 -4 -3.5 -8 -10.5 -12
s-15.167 -7.83301 -24.5 -11.5s-18.666 -6.66699 -27.999 -9s-16 -3.5 -20 -3.5c-6 0 -13.167 2 -21.5 6s-12.5 12 -12.5 24c0 6.66699 1.16699 12.667 3.5 18s5.16602 11 8.49902 17c-5.33301 -3.33301 -12.833 -7.33301 -22.5 -12l-28.5 -13.5
c-9.33301 -4.33301 -17.333 -8.66602 -24 -12.999s-10 -8.16602 -10 -11.499c-1.33301 -1.33301 -5.16602 -4 -11.499 -8s-12.166 -6.66699 -17.499 -8h-1c-3.33301 0 -5 3.66699 -5 11c0.666992 2.66699 1.33398 5.16699 2.00098 7.5s1.66699 4.83301 3 7.5
c-8 -2.66699 -12.167 -4.16699 -12.5 -4.5s-1.5 -0.5 -3.5 -0.5c-0.666992 0 -1.66699 0.666992 -3 2c0 2.66699 2.5 4.83398 7.5 6.50098s10.5 4.5 16.5 8.5c6.66699 14 17.334 31.667 32.001 53s32.334 45.5 53.001 72.5s44.167 56.167 70.5 87.5s55.166 64 86.499 98
l15 15.5c6 6.33301 13.667 9.5 23 9.5c11.333 0 18.5 -3.83301 21.5 -11.5s4.5 -16.167 4.5 -25.5zM263.995 330c1.33301 4 1.99902 6.66699 1.99902 8c-16 -16 -33.667 -35.333 -53 -58l-58.5 -70l-56 -71.5l-46.5 -63.5c18.667 14 39.167 31.5 61.5 52.5
s43.833 43.167 64.5 66.5s38.834 46.833 54.501 70.5s26.167 45.5 31.5 65.5z" />
    <glyph glyph-name="i" unicode="i" horiz-adv-x="142" 
d="M53 5c-10.667 6.66699 -16.0039 17.334 -16.0039 32.001v5c-2 -1.33301 -5.33301 -2.66602 -10 -3.99902l-14.5 -4c-5 -1.33301 -10 -2.5 -15 -3.5s-8.83301 -1.5 -11.5 -1.5c-0.666992 0 -1.66699 0.333008 -3 1s-2 1.66699 -2 3c0 0.666992 0.166992 1 0.5 1
s0.5 0.333008 0.5 1h1c0 1.33301 0.666992 2 2 2s2.66602 0.666992 3.99902 2c6.66699 3.33301 14.834 9.16602 24.501 17.499l29 26c9.66699 9 18 17.167 25 24.5l12.5 13l2 1c-1.33301 0 -0.666016 -0.333008 2.00098 -1s5.83398 -1.83398 9.50098 -3.50098
s7 -3.5 10 -5.5s3.83301 -4.33301 2.5 -7c-3.33301 -6 -7.16602 -11.833 -11.499 -17.5s-8.5 -11.5 -12.5 -17.5s-7.5 -12.167 -10.5 -18.5s-4.16699 -13.5 -3.5 -21.5c0 -1.33301 1.66699 -2.5 5 -3.5s7 -1.5 11 -1.5c8 0.666992 17.167 2 27.5 4l25.5 5l16 4
c0.666992 0 1.33398 0.166992 2.00098 0.5s1.66699 0.5 3 0.5h1l2.5 -5c0.333008 -0.666992 -1.16699 -2 -4.5 -4l-41 -20.5c-11.333 -5.66699 -25.333 -8.5 -42 -8.5c-7.33301 0 -14.333 1.66699 -21 5zM151.996 192c0 -0.666992 -0.666992 -1.66797 -2 -3.00098l-1 -2
c0 -0.666992 0.333008 -1.33398 1 -2.00098v-1c0 -2 -1 -4.16699 -3 -6.5s-4 -4.16602 -6 -5.49902l-12 -8l-8 15c-2.66699 4.66699 -4 8.66699 -4 12c0 2 0.333008 3.83301 1 5.5s1.33398 3.5 2.00098 5.5l2 4c0.666992 0 1 0.333008 1 1s0.333008 1.33398 1 2.00098l2 2h2
c-1.33301 0 -0.833008 -0.5 1.5 -1.5l8.5 -3.5c3.33301 -1.33301 6.66602 -3 9.99902 -5s5 -4 5 -6c0 -1.33301 -0.333008 -2.33301 -1 -3z" />
    <glyph glyph-name="j" unicode="j" horiz-adv-x="127" 
d="M136 35c0.666992 0 1.66602 -0.166992 2.99902 -0.5s2 -1.16602 2 -2.49902c0 -2.66699 -1.66699 -4.5 -5 -5.5s-8.33301 -2.33301 -15 -4l-25.5 -6.5c-10.333 -2.66699 -22.166 -7 -35.499 -13l-70 -95l-38.5 -50l-54.5 -69l-10.5 -10
c-3.66699 -3.33301 -8.16699 -5 -13.5 -5c-9.33301 0 -15.333 2.83301 -18 8.5s-4 10.834 -4 15.501c0 17.333 5.5 35.5 16.5 54.5s24.5 37.333 40.5 55s33.167 34 51.5 49s34.5 26.833 48.5 35.5c2.66699 1.33301 4.33398 2.33301 5.00098 3l11 14l9.5 13.5l8.5 12.5
c-15.333 -5.33301 -31.666 -10.333 -48.999 -15s-35 -7 -53 -7h-2c-0.666992 0.666992 -1 1.66699 -1 3c-1.33301 2 -1 3 1 3l6 2l41 16.5c15.333 6.33301 32 14.833 50 25.5l14 8c5.33301 3.33301 10.833 7.33301 16.5 12s11.167 8.66699 16.5 12l2 2
c5.33301 4 10.666 8.33301 15.999 13s11.666 7 18.999 7c3.33301 0 6.83301 -0.833008 10.5 -2.5s5.16699 -4.16699 4.5 -7.5c-0.666992 -2 -2.66699 -5.33301 -6 -10l-10 -14l-45 -62c10.667 3.33301 21.667 6.16602 33 8.49902s21.333 4.16602 30 5.49902zM-19.001 -49
c-12 -11.333 -23.668 -23.167 -35.001 -35.5s-21.666 -25.5 -30.999 -39.5c-6.66699 -10 -12.667 -20.667 -18 -32s-10.333 -20 -15 -26l42 53.5c16 19.667 35 46.167 57 79.5zM170.998 200.999c3.33301 -2.66699 4.99805 -4.66992 4.99805 -6.00293c0 -2 -1 -4 -3 -6l-1 -2
c0 -0.666992 0.333008 -1.33398 1 -2.00098v-1c0 -2 -1 -4.16699 -3 -6.5s-4 -4.16602 -6 -5.49902l-12 -8l-8 15c-2.66699 4.66699 -4 8.66699 -4 12c0 2 0.333008 3.83301 1 5.5s1.33398 3.5 2.00098 5.5l2 4c0.666992 0 1 0.333008 1 1s0.333008 1.33398 1 2.00098l2 2h2
c0.666992 0 2.33398 -0.666992 5.00098 -2c1.33301 -1.33301 3.33301 -2.66602 6 -3.99902s5.66699 -2.66602 9 -3.99902z" />
    <glyph glyph-name="k" unicode="k" 
d="M290 330c-2 -11.333 -7.33398 -24.8301 -16.001 -40.4971s-19.834 -32.5 -33.501 -50.5s-29.167 -36.333 -46.5 -55s-35.666 -37 -54.999 -55c4 0 8 -2.16699 12 -6.5s6 -8.5 6 -12.5c0 -4.66699 -2 -9.33398 -6 -14.001s-7.66699 -8.66699 -11 -12
c-5.33301 -5.33301 -10.333 -10.666 -15 -15.999s-10.667 -11.666 -18 -18.999c2 -3.33301 3 -8.33301 3 -15c0 -1.33301 -0.5 -3.33301 -1.5 -6s-1.16699 -4.66699 -0.5 -6c1.33301 -2.66699 3.83301 -4 7.5 -4s8.16699 0.666992 13.5 2
c4.66699 0.666992 10.334 2 17.001 4s13 4 19 6l15.5 5c4.33301 1.33301 7.16602 2 8.49902 2c2.66699 0 4 -1 4 -3c0 -2.66699 -4.16699 -7 -12.5 -13s-25.166 -13 -50.499 -21c-2.66699 -0.666992 -5.16699 -1.16699 -7.5 -1.5s-5.16602 -0.5 -8.49902 -0.5
c-9.33301 0 -16.333 1.5 -21 4.5s-7.66699 6.33301 -9 10s-2 7.33398 -2 11.001v8.5c-2 -0.666992 -4 -1 -6 -1h-1c-6 0.666992 -10.167 3 -12.5 7s-3.5 8.66699 -3.5 14l1 5c-4 -2.66699 -8.5 -5.5 -13.5 -8.5l-20.5 -12.5c-4 -6.66699 -7 -11.834 -9 -15.501
s-4 -6.83398 -6 -9.50098s-4.83301 -4.83398 -8.5 -6.50098s-9.5 -3.83398 -17.5 -6.50098h-1c-2 0 -3.33301 1.33301 -4 4s-1 5 -1 7c0 3.33301 1.33301 8.33301 4 15c-4.66699 -2 -8 -3.5 -10 -4.5l-4 -2c-0.666992 -0.333008 -1.33398 -0.5 -2.00098 -0.5h-3
c-0.666992 0 -1.66699 0.666992 -3 2l4 2.5l9 5.5c3.33301 2 6.33301 4 9 6s4.33398 3 5.00098 3c5.33301 10.667 14.833 26.834 28.5 48.501s30.834 46.5 51.501 74.5s44.667 58.167 72 90.5s57 64.5 89 96.5c6 7.33301 12.333 13.166 19 17.499s15 6.16602 25 5.49902
c7.33301 -2.66699 12.666 -8 15.999 -16s3.66602 -15.667 0.999023 -23zM260.999 329.003c1.33301 4 1.99902 6.99902 1.99902 8.99902c-13.333 -13.333 -28.666 -30.166 -45.999 -50.499l-53 -64l-53 -68l-47 -61.5c11.333 8.66699 21.333 15.5 30 20.5
s15.667 10.833 21 17.5c16.667 15.333 32.834 32 48.501 50s30.167 35.833 43.5 53.5s24.666 34.667 33.999 51s16 30.5 20 42.5z" />
    <glyph glyph-name="l" unicode="l" horiz-adv-x="140" 
d="M18 17c-4.66699 6.66699 -7.00293 13.9961 -7.00293 21.9961c-6.66699 -3.33301 -14.667 -7.66602 -24 -12.999s-18 -8.33301 -26 -9c-2 0 -3 1 -3 3c0 0.666992 0.666992 1.33398 2 2.00098s4 1.83398 8 3.50098s9.33301 4.5 16 8.5s15.334 9.66699 26.001 17
c0 3.33301 0.5 6.83301 1.5 10.5s2.16699 7.16699 3.5 10.5c4 10 13.833 26.5 29.5 49.5s34.5 48.5 56.5 76.5l71 87c25.333 30 50 57 74 81c1.33301 1.33301 3.33301 2.33301 6 3s6.66699 1 12 1c6 0 11.667 -2.33301 17 -7s8 -11.667 8 -21
c0 -17.333 -7.66699 -38.666 -23 -63.999s-35 -51.333 -59 -78s-50.167 -52.5 -78.5 -77.5s-55.5 -45.833 -81.5 -62.5c-1.33301 -2 -2.16602 -4.33301 -2.49902 -7s-0.833008 -5.33398 -1.5 -8.00098v-6.5c0 -2.33301 1 -4.5 3 -6.5s5.33301 -3.66699 10 -5
s11.334 -1.66602 20.001 -0.999023c30 2 50.667 5.5 62 10.5s17.333 7.5 18 7.5c2.66699 0 4 -1.66699 4 -5l-5 -4c-1.33301 -1.33301 -4.83301 -3.5 -10.5 -6.5s-12.667 -6.33301 -21 -10s-17.5 -7.16699 -27.5 -10.5s-20.333 -6 -31 -8c-6.66699 0 -14 0.5 -22 1.5
s-16.333 6.16699 -25 15.5zM60.9971 86.9961c7.33301 5.33301 17.332 13.833 29.999 25.5l41 39.5c14.667 14.667 29.5 30.5 44.5 47.5s28.667 33.833 41 50.5s22.5 32.667 30.5 48s12 28.666 12 39.999c-31.333 -31.333 -57.666 -60.333 -78.999 -87l-63 -81
c-10.667 -13.333 -20.667 -26.666 -30 -39.999s-18.333 -27.333 -27 -42v-1z" />
    <glyph glyph-name="m" unicode="m" horiz-adv-x="266" 
d="M185 62c-4.66699 -3.33301 -9.5 -7.1709 -14.5 -11.5039s-10.167 -8.16602 -15.5 -11.499l-18 -14c-4.66699 -4 -11.334 -9.33301 -20.001 -16s-16.667 -10 -24 -10c-6.66699 0 -10.834 2.5 -12.501 7.5s-2.5 8.5 -2.5 10.5c1.33301 6.66699 2.66602 11.5 3.99902 14.5
s2.66602 5.83301 3.99902 8.5l11 26l-22 -16.5l-31.5 -23.5c-11 -8 -21.667 -15 -32 -21s-18.166 -9 -23.499 -9c-2.66699 0 -5.66699 1.5 -9 4.5s-5.33301 5.5 -6 7.5c0 4 2 9.5 6 16.5s9 14.5 15 22.5s12.333 15.833 19 23.5s12.667 14.167 18 19.5l9 9
c-4.66699 0 -10.167 -0.833008 -16.5 -2.5s-12.666 -3.66699 -18.999 -6s-12 -4.66602 -17 -6.99902s-8.5 -3.83301 -10.5 -4.5c-4 -1.33301 -6.66699 -2.5 -8 -3.5s-2.66602 -1.5 -3.99902 -1.5s-2 1 -2 3c2.66699 4 7.16699 8.33301 13.5 13s13.5 8.83398 21.5 12.501
s16.167 6.83398 24.5 9.50098s15.5 4.33398 21.5 5.00098c2.66699 0 5.83398 -1.66699 9.50098 -5s5.83398 -7.66602 6.50098 -12.999c0 -2 -0.666992 -4 -2 -6s-2 -3.33301 -2 -4l-20 -28l15.5 12c5 4 9.83301 7.66699 14.5 11l4 3
c3.33301 3.33301 7.66602 6.83301 12.999 10.5l16 10.5c6 4 12 8.33301 18 13c6.66699 3.33301 13.834 3.33301 21.501 0s11.5 -8.66602 11.5 -15.999c-1.33301 -4 -3.83301 -10.333 -7.5 -19s-9.5 -21 -17.5 -37l82 51c3.33301 4.66699 5.5 8 6.5 10s1.83301 3.33301 2.5 4
h4.5c3 0 6.33301 -0.333008 10 -1s7 -1.83398 10 -3.50098s4.5 -3.83398 4.5 -6.50098c0 -3.33301 -2.16699 -8.5 -6.5 -15.5l-14 -22.5l-15 -23.5c-5 -7.66699 -7.83301 -13.5 -8.5 -17.5l2 -2c0.666992 -0.666992 2 -1 4 -1c21.333 0 38.666 2.83301 51.999 8.5
s20.666 8.5 21.999 8.5c4 0 5.33301 -1.66699 4 -5c-2 -2 -5.16699 -5 -9.5 -9s-10 -8 -17 -12s-15 -7.5 -24 -10.5s-19.167 -4.5 -30.5 -4.5c-1.33301 0 -3.66602 0.166992 -6.99902 0.5s-6.83301 1.33301 -10.5 3s-7 4.5 -10 8.5s-4.5 9.66699 -4.5 17
c0 4 1.83301 10.167 5.5 18.5s6.16699 14.166 7.5 17.499z" />
    <glyph glyph-name="n" unicode="n" horiz-adv-x="186" 
d="M199 40c3.33301 0 4.33691 -1.16211 3.00391 -3.49512s-2.66602 -4.16602 -3.99902 -5.49902s-4.5 -3.83301 -9.5 -7.5s-11.333 -7.5 -19 -11.5s-16 -7.5 -25 -10.5s-18.5 -4.5 -28.5 -4.5c-1.33301 0 -3.83301 0.166992 -7.5 0.5s-7.5 1.5 -11.5 3.5s-7.5 5 -10.5 9
s-4.5 9.66699 -4.5 17c0 5.33301 1.5 11.166 4.5 17.499l7.5 15.5c-3.33301 -2.66699 -9.83301 -7.33398 -19.5 -14.001l-30.5 -20.5c-10.667 -7 -20.834 -13.333 -30.501 -19s-16.5 -8.5 -20.5 -8.5c-12 0 -18 4.66699 -18 14c1.33301 5.33301 2.33301 8.33301 3 9
c3.33301 8.66699 8.66602 17.167 15.999 25.5l21 23.5c7.33301 8.66699 12.666 14.5 15.999 17.5s5.66602 5.83301 6.99902 8.5c0 1.33301 -1 2 -3 2c-9.33301 0 -18.5 -1.83301 -27.5 -5.5l-23.5 -9.5c-2 0 -3 1 -3 3c0 5.33301 11 12.333 33 21
c3.33301 1.33301 7.5 2.66602 12.5 3.99902s9.16699 1.66602 12.5 0.999023c2.66699 0 5.83398 -1.5 9.50098 -4.5s5.5 -6.5 5.5 -10.5c0 -2.66699 -2.33301 -7.83398 -7 -15.501s-10.667 -16.834 -18 -27.501l65 45.5c18.667 13.667 29.667 21.5 33 23.5
c4 1.33301 10.167 0.5 18.5 -2.5s12.5 -6.16699 12.5 -9.5c0 -2 -0.333008 -3.66699 -1 -5c-2 -5.33301 -6.66699 -13.5 -14 -24.5s-17.333 -28.167 -30 -51.5c-0.666992 -1.33301 -1.33398 -3 -2.00098 -5c0 -2.66699 5.33301 -4 16 -4c22.667 0 40.167 3.16699 52.5 9.5
s18.166 9.5 17.499 9.5h2z" />
    <glyph glyph-name="o" unicode="o" horiz-adv-x="190" 
d="M22 26c0 5.33301 0.99707 10.668 2.99707 16.001c-7.33301 -4.66699 -14.833 -8.33398 -22.5 -11.001l-20.5 -7c-7.33301 -2.66699 -14 -4.66699 -20 -6c-0.666992 0 -1.66699 0.666992 -3 2c0 1.33301 1.33301 2.66602 4 3.99902c13.333 5.33301 27 12.166 41 20.499
s26.333 17.833 37 28.5c17.333 17.333 31.5 29.5 42.5 36.5s18.5 10.5 22.5 10.5h1h1l2 -2c1.33301 1.33301 3.16602 2 5.49902 2h5.5c12.667 0 21.667 -4.66699 27 -14s8 -18.666 8 -27.999c0 -14.667 -3.66699 -28.667 -11 -42c2 -1.33301 5.16699 -2.16602 9.5 -2.49902
s8.83301 -0.5 13.5 -0.5c10.667 0 18.834 1 24.501 3s8.83398 3 9.50098 3c2.66699 -1.33301 4 -2.66602 4 -3.99902l-1 -1l-4 -3c-3.33301 -2.66699 -10.5 -5.83398 -21.5 -9.50098s-24.167 -5.5 -39.5 -5.5h-1c-1.33301 0 -2.66602 0.166992 -3.99902 0.5
s-2.66602 0.5 -3.99902 0.5c-9.33301 -8.66699 -19.666 -15 -30.999 -19s-22.333 -6 -33 -6c-8.66699 0 -18.334 2.5 -29.001 7.5s-16 13.833 -16 26.5zM115.997 88.002c-2.66699 -5.33301 -3.99805 -12 -3.99805 -20c0 -2.66699 0.666992 -6.16699 2 -10.5
s4.66602 -8.83301 9.99902 -13.5c5.33301 5.33301 9.33301 11.833 12 19.5s4 14.834 4 21.501c0 5.33301 -1.83301 10.666 -5.5 15.999s-8.83398 8 -15.501 8c0 -1.33301 0.833008 -3 2.5 -5s2.5 -4.33301 2.5 -7s-2 -4.66699 -6 -6h-1
c0 -0.666992 -0.166992 -1.16699 -0.5 -1.5s-0.5 -0.833008 -0.5 -1.5zM54.999 29.002c0 -2 1.00195 -3.83105 3.00195 -5.49805s6.66699 -2.5 14 -2.5c5.33301 0 10.666 0.333008 15.999 1s10.333 2.66699 15 6c-8 5.33301 -13.333 12 -16 20s-4 14.667 -4 20l-4 -3.5
c-2.66699 -2.33301 -5.83398 -5.33301 -9.50098 -9s-7 -7.83398 -10 -12.501s-4.5 -9.33398 -4.5 -14.001z" />
    <glyph glyph-name="p" unicode="p" horiz-adv-x="206" 
d="M148 39c9.33301 7.33301 15.1631 13.834 17.4961 19.501s3.5 9.83398 3.5 12.501c0 5.33301 -3.33301 9.33301 -10 12s-13 4 -19 4h-6.5c-2.33301 0 -4.16602 -0.666992 -5.49902 -2l-36 -54c-2 -3.33301 -7.83301 -12.333 -17.5 -27l-35 -52.5l-45 -65
c-16.333 -23 -32.833 -44.833 -49.5 -65.5c-4 -4 -8.66699 -9 -14 -15s-11.166 -11.667 -17.499 -17s-13 -9.83301 -20 -13.5s-13.833 -5.5 -20.5 -5.5c-5.33301 0 -9.5 0.833008 -12.5 2.5s-5.16699 3.83398 -6.5 6.50098s-2.16602 5.16699 -2.49902 7.5
s-0.5 4.16602 -0.5 5.49902c0 9.33301 3.33301 20.833 10 34.5s15.167 28 25.5 43s22.333 30.5 36 46.5s27.5 31.333 41.5 46s27.667 28.167 41 40.5s25 22.5 35 30.5l-33.5 -9.5c-11 -3 -24.5 -3.5 -40.5 -1.5c-4.66699 0 -7 1.33301 -7 4
c0 1.33301 0.666992 2.66602 2 3.99902c16 0 30.667 3.5 44 10.5s28 15.833 44 26.5c9.33301 6 15.333 10.333 18 13s5.33398 4.66699 8.00098 6c7.33301 5.33301 15.5 12.5 24.5 21.5s15.833 15.167 20.5 18.5l1 1c0 -0.666992 1.16699 -1.33398 3.5 -2.00098
s5.16602 -2.33398 8.49902 -5.00098c18 0 33.667 -4.16699 47 -12.5s20 -20.166 20 -35.499c0 -8 -2 -16.333 -6 -25s-9.66699 -14.667 -17 -18c4.66699 0 11 1.33301 19 4s13.333 4 16 4c1.33301 0.666992 3.66602 0 6.99902 -2
c0.666992 -1.33301 1.33398 -2.33301 2.00098 -3l-9.5 -3l-23 -7.5c-9 -3 -18.667 -6.5 -29 -10.5s-19.166 -8 -26.499 -12c-3.33301 -2 -6.5 -1.16699 -9.5 2.5s-4.5 7.16699 -4.5 10.5c2 8 5.83301 13 11.5 15s11.5 6 17.5 12zM32.9971 2.00098
c2.66699 3.33301 5.16895 6.66797 7.50195 10.001s4.5 6.66602 6.5 9.99902c-19.333 -17.333 -40.333 -39.666 -63 -66.999s-45.334 -56.666 -68.001 -87.999l-18 -26c-4.66699 -6 -8.33398 -12.5 -11.001 -19.5s-4.66699 -13.5 -6 -19.5c4 3.33301 10 8.66602 18 15.999
s15.667 15.333 23 24c8.66699 9.33301 16.667 19.5 24 30.5l22 32.5c11.333 15.333 22 30.666 32 45.999l28 43z" />
    <glyph glyph-name="q" unicode="q" horiz-adv-x="201" 
d="M213 35c4.66699 0 5.8291 -1.66992 3.49609 -5.00293s-6.83301 -7 -13.5 -11s-14.167 -7.83301 -22.5 -11.5s-15.5 -5.5 -21.5 -5.5c-5.33301 0 -10.666 0.333008 -15.999 1s-10.333 2.66699 -15 6c-12 -25.333 -27.667 -53.166 -47 -83.499s-40.333 -58.833 -63 -85.5
l-18 -21.5c-6.66699 -7.66699 -13.667 -15 -21 -22s-14.833 -12.667 -22.5 -17s-14.834 -6.5 -21.501 -6.5c-8 0.666992 -13.833 4 -17.5 10s-4.16699 12.667 -1.5 20c4 13.333 10 26 18 38s16 24.667 24 38s15.667 25.5 23 36.5l21.5 31.5l21 31
c7 10.667 14.833 22 23.5 34c-1.33301 -1.33301 -3.33301 -2.66602 -6 -3.99902c-2 -1.33301 -5 -2.5 -9 -3.5l-12.5 -3c-4.33301 -1 -8.16602 -1.66699 -11.499 -2s-5.33301 -0.166016 -6 0.500977c-4 0 -7.33301 1.5 -10 4.5s-4.5 6.16699 -5.5 9.5
s-1.66699 6.83301 -2 10.5s-0.166016 6.16699 0.500977 7.5c6.66699 18 15 32.833 25 44.5s20.667 21 32 28s22.5 11.833 33.5 14.5s20.5 4 28.5 4c5.33301 -1.33301 8.83301 -3 10.5 -5s2.83398 -4.66699 3.50098 -8c4 4.66699 7 8.66699 9 12l6 2c4 1.33301 8 2 12 2
c3.33301 0 6.66602 -0.5 9.99902 -1.5s5 -3.16699 5 -6.5c0 -1.33301 -0.666992 -3.16602 -2 -5.49902s-2.66602 -4.83301 -3.99902 -7.5c-2.66699 -3.33301 -4.83398 -6.33301 -6.50098 -9s-3.5 -5.33398 -5.5 -8.00098c-2 -5.33301 -3.33301 -12 -4 -20s0 -16.667 2 -26
c2 -5.33301 4.66699 -9.5 8 -12.5s10.333 -4.5 21 -4.5c2.66699 0 6.33398 0.5 11.001 1.5s9.33398 2.16699 14.001 3.5l12 3.5c3.33301 1 5.33301 1.5 6 1.5h1zM23.9951 26.9971c12 4 22.332 8.50098 30.999 13.501s16 10.5 22 16.5s11 11.833 15 17.5s8 10.834 12 15.501
h-7c-1.33301 0 -5.66602 -1 -12.999 -3s-15.5 -5.33301 -24.5 -10s-18 -11.334 -27 -20.001s-15.5 -19.334 -19.5 -32.001c2 0 5.66699 0.666992 11 2zM41.9941 -97.002c16.667 21.333 31.499 41.6699 44.499 61.0029s23.5 37 31.5 53
c-3.33301 3.33301 -5.66602 7.16602 -6.99902 11.499s-2.33301 8.16602 -3 11.499l-34 -48l-47 -68l-40 -58c-3.33301 -5.33301 -7 -10.833 -11 -16.5l-12 -16.5v-1l-15 -24c3.33301 1.33301 8.5 5.16602 15.5 11.499s14.833 14 23.5 23l27 29.5z" />
    <glyph glyph-name="r" unicode="r" horiz-adv-x="174" 
d="M187 38c2 0 3.00195 -2 3.00195 -6l-5 -3c-2 -1.33301 -6 -3.83301 -12 -7.5s-13.167 -7.33398 -21.5 -11.001s-17.5 -7 -27.5 -10s-20.333 -4.5 -31 -4.5c-6 0 -13 1.83301 -21 5.5s-12.667 10.834 -14 21.501c-1.33301 8.66699 -0.666016 15.667 2.00098 21
s5.33398 10 8.00098 14l1 1c1.33301 2.66699 3 5 5 7l5 5c-1.33301 0.666992 -3 1.33398 -5 2.00098s-3.66699 1.66699 -5 3c-5.33301 -5.33301 -11.833 -10.833 -19.5 -16.5s-15.667 -11 -24 -16s-16.333 -9.16699 -24 -12.5s-13.834 -5.33301 -18.501 -6
c-3.33301 2.66699 -5 5 -5 7l3 3c1.33301 1.33301 7.33301 5.5 18 12.5s21 16.167 31 27.5c2.66699 2.66699 5.66699 6.5 9 11.5s6.5 10 9.5 15s5.83301 9.5 8.5 13.5s4.66699 6.66699 6 8c-1.33301 0 -0.5 -0.333008 2.5 -1s6.5 -1.5 10.5 -2.5s7.66699 -2.16699 11 -3.5
s5 -3 5 -5v-8.5c0 -2.33301 1 -4.83301 3 -7.5c1.33301 -0.666992 2.16602 -1 2.49902 -1s1.16602 -0.333008 2.49902 -1c10 10 15.667 15.333 17 16h1c3.33301 0 8.16602 -2.16699 14.499 -6.5s9.5 -8.16602 9.5 -11.499s-2.5 -7 -7.5 -11s-9.5 -8 -13.5 -12l-19.5 -19
c-7.66699 -7.33301 -12.167 -15.333 -13.5 -24c2.66699 -2.66699 7.5 -3.83398 14.5 -3.50098s14.667 1.16602 23 2.49902s16.5 2.83301 24.5 4.5s14 3.16699 18 4.5c9.33301 2.66699 14.5 4.16699 15.5 4.5s2.16699 0.5 3.5 0.5z" />
    <glyph glyph-name="s" unicode="s" horiz-adv-x="157" 
d="M171 39c2 0 2.99609 -0.665039 2.99609 -1.99805c0 -0.666992 -0.666992 -1.66699 -2 -3c0 -0.666992 -1.83301 -2.66699 -5.5 -6s-8.33398 -7 -14.001 -11s-12.167 -7.5 -19.5 -10.5s-15.333 -4.5 -24 -4.5c-9.33301 0 -15.666 1.66699 -18.999 5
c-8 -5.33301 -15.667 -8.83301 -23 -10.5s-14.666 -2.5 -21.999 -2.5c-15.333 0 -26.166 2.66699 -32.499 8s-10.166 10.666 -11.499 15.999c-4 0 -8.66699 -0.833008 -14 -2.5s-10.666 -3.16699 -15.999 -4.5s-10.666 -2 -15.999 -2s-9.33301 2 -12 6
c0 0.666992 0.166992 1.16699 0.5 1.5s2.16602 1.16602 5.49902 2.49902c16 5.33301 31.167 12.333 45.5 21s27.5 17.667 39.5 27s22.667 18.5 32 27.5l22 21.5c1.33301 3.33301 2.83301 6.83301 4.5 10.5s4.5 5.5 8.5 5.5c3.33301 0 8 -1.33301 14 -4s9 -5 9 -7
c-1.33301 -5.33301 -1.5 -9.83301 -0.5 -13.5s2.5 -10.167 4.5 -19.5c3.33301 -13.333 3.33301 -25 0 -35s-9.66602 -20.333 -18.999 -31h1h2c8.66699 0 15.667 0.5 21 1.5s10 2.33301 14 4s7.66699 3.5 11 5.5s7.66602 4 12.999 6zM97.9961 76.002
c-9.33301 -8 -20.668 -17.168 -34.001 -27.501s-30.666 -19.166 -51.999 -26.499c4.66699 -5.33301 12 -8 22 -8c5.33301 0 11.666 1.5 18.999 4.5s14.333 6.83301 21 11.5s12.334 10.167 17.001 16.5s7 12.5 7 18.5v11z" />
    <glyph glyph-name="t" unicode="t" horiz-adv-x="138" 
d="M58 28c-2 -5.33301 0.669922 -8.00195 8.00293 -8.00195c8 0 16.5 0.833008 25.5 2.5s17.333 3.66699 25 6s14 4.5 19 6.5s7.83301 3.33301 8.5 4c1.33301 1.33301 3.5 1 6.5 -1s3.83301 -4 2.5 -6c0 -1.33301 -1.66699 -2.66602 -5 -3.99902
c-1.33301 -1.33301 -2.66602 -2.33301 -3.99902 -3l-7 -4c-4.66699 -2.66699 -10.834 -5.5 -18.501 -8.5s-16.5 -5.83301 -26.5 -8.5s-20.667 -4 -32 -4h-3c-4 0 -8.83301 1.66699 -14.5 5s-8.5 7.66602 -8.5 12.999c0 7.33301 1.66699 14.666 5 21.999l10 22v1
c0.666992 0.666992 1 1.16699 1 1.5s0.333008 0.833008 1 1.5c-4.66699 -3.33301 -10.834 -8 -18.501 -14l-22.5 -17c-7.33301 -5.33301 -14 -9.33301 -20 -12s-9.66699 -2.33398 -11 0.999023c0 1.33301 0.333008 2.66602 1 3.99902c4 2 10.667 7 20 15s20 18 32 30
s24.667 25.5 38 40.5l40 46.5c-24 0 -47.833 0.166992 -71.5 0.5s-45.334 0.5 -65.001 0.5s-36 0.166992 -49 0.5s-20.833 0.5 -23.5 0.5h-1c-0.666992 0.666992 -2.5 2.83398 -5.5 6.50098s-4.5 8.83398 -4.5 15.501c0 4.66699 0.833008 7.33398 2.5 8.00098
s4.16699 1.33398 7.5 2.00098h1h17.5c7 0 18.333 -0.166992 34 -0.5s37.334 -0.833008 65.001 -1.5s64.834 -2 111.501 -4l32 44c10 13.333 18.333 23.666 25 30.999c3.33301 5.33301 6.16602 9 8.49902 11s4.16602 3.66699 5.49902 5
c-0.666992 0 0.333008 -0.166992 3 -0.5s5.66699 -1 9 -2s6.33301 -2.33301 9 -4s4 -3.83398 4 -6.50098c0 -4 -1 -7.33301 -3 -10l-15.5 -22l-36.5 -50c46 -3.33301 80.167 -6.16602 102.5 -8.49902s37.833 -4.16602 46.5 -5.49902s12.834 -2.5 12.501 -3.5
s-0.5 -1.83301 -0.5 -2.5c-0.666992 0 -1 -0.333008 -1 -1l-2 -2h-1c-1.33301 0 -16.333 -0.166992 -45 -0.5s-72.334 -0.5 -131.001 -0.5c-7.33301 -7.33301 -15.5 -16.333 -24.5 -27s-17.833 -22.167 -26.5 -34.5s-16.834 -24.666 -24.501 -36.999
s-13.5 -23.5 -17.5 -33.5z" />
    <glyph glyph-name="u" unicode="u" horiz-adv-x="173" 
d="M187 41c2.66699 0 3.99902 -1.00098 3.99902 -3.00098c0 2.66699 -0.166992 2.83398 -0.5 0.500977s-2.66602 -5.83301 -6.99902 -10.5s-11.333 -9.83398 -21 -15.501s-23.5 -10.5 -41.5 -14.5c-9.33301 -2 -16.666 -1.33301 -21.999 2s-9.33301 7.33301 -12 12
s-4.16699 9.33398 -4.5 14.001s0.5 8 2.5 10c-9.33301 -9.33301 -19.666 -18.5 -30.999 -27.5s-25.333 -13.5 -42 -13.5c-6.66699 0 -12.834 3 -18.501 9s-8.5 13 -8.5 21c0 10.667 3.16699 21.834 9.5 33.501s13.5 22.167 21.5 31.5c8.66699 11.333 19 22.333 31 33l1 1
c4.66699 0 10 -1 16 -3s9.66699 -5.66699 11 -11c-2.66699 -4.66699 -5.66699 -9.33398 -9 -14.001s-7.33301 -9.66699 -12 -15c-1.33301 -1.33301 -3.83301 -4.33301 -7.5 -9l-12.5 -16c-4.66699 -6 -8.66699 -12 -12 -18s-5 -10.667 -5 -14h1h6
c4.66699 0.666992 10.667 3.16699 18 7.5s15 9.83301 23 16.5l24 21l22 21c6 6.66699 10.5 12.167 13.5 16.5s7.16699 8.83301 12.5 13.5c3.33301 2.66699 8.16602 2.16699 14.499 -1.5s9.5 -6.83398 9.5 -9.50098c0 -3.33301 -1 -6.66602 -3 -9.99902s-4 -7 -6 -11
c-13.333 -21.333 -23.5 -36.5 -30.5 -45.5s-10.5 -15.167 -10.5 -18.5c2 -2 5 -3 9 -3c2 0 6.5 0.666992 13.5 2s14.5 3 22.5 5s15 4.16699 21 6.5s9 4.5 9 6.5h1v0z" />
    <glyph glyph-name="v" unicode="v" horiz-adv-x="142" 
d="M152 121c1.33301 -0.666992 3.66797 -2.83008 7.00098 -6.49707s5 -7.16699 5 -10.5c0 -2 -0.166992 -3.5 -0.5 -4.5s-2.66602 -3.33301 -6.99902 -7l-21.5 -17.5l-43 -36c-10 -8.66699 -28.667 -20.667 -56 -36c-5.33301 -3.33301 -9.33301 -5 -12 -5h-7
c-5.33301 0 -8.83301 1.5 -10.5 4.5s-2.33398 6.5 -2.00098 10.5s1.5 8.33301 3.5 13s4 9 6 13c3.33301 7.33301 7.66602 15.166 12.999 23.499s11 16.166 17 23.499c3.33301 4 5.33301 6.83301 6 8.5s1 2.83398 1 3.50098h-4c-0.666992 0 -3.33398 -0.833008 -8.00098 -2.5
s-9.66699 -3.33398 -15 -5.00098l-16 -5c-5.33301 -1.66699 -8.66602 -2.5 -9.99902 -2.5c-2 0 -3 1 -3 3c0 -0.666992 0.666992 0.333008 2 3c-1.33301 -1.33301 -0.333008 -0.833008 3 1.5s7.83301 5 13.5 8s12.167 5.83301 19.5 8.5s14.666 4.33398 21.999 5.00098h1
c2 0 4.5 -1.66699 7.5 -5s4.5 -7 4.5 -11c0 -8.66699 -3.66699 -18 -11 -28s-12.666 -19.333 -15.999 -28c12 8 23.667 16.667 35 26s21.5 18.166 30.5 26.499l23.5 21c6.66699 5.66699 11 9.16699 13 10.5h1h2c0.666992 0 1.5 -0.333008 2.5 -1
s2.16699 -1.33398 3.5 -2.00098z" />
    <glyph glyph-name="w" unicode="w" horiz-adv-x="229" 
d="M231 120l-1.00195 -0.00292969c4 -1.33301 7.66699 -3 11 -5c3.33301 -1.33301 6.16602 -3.33301 8.49902 -6s3.5 -5.66699 3.5 -9c0 -0.666992 -1.33301 -2.33398 -4 -5.00098c-1.33301 -1.33301 -3.33301 -3.16602 -6 -5.49902l-10 -8.5l-42 -35
c-12 -10 -25.5 -19.333 -40.5 -28s-27.833 -14.667 -38.5 -18c-5.33301 0 -9 1.5 -11 4.5s-3 5.5 -3 7.5c0 10 1.83301 18.833 5.5 26.5s7.5 14.834 11.5 21.501h-1l-25.5 -20l-29 -21c-9.66699 -6.66699 -18.5 -12 -26.5 -16s-14 -6 -18 -6h-1
c-7.33301 3.33301 -11.5 6.16602 -12.5 8.49902s-1.5 5.16602 -1.5 8.49902c0 6.66699 2.16699 14.834 6.5 24.501s9.33301 18.834 15 27.501l15 22.5c4.33301 6.33301 6.5 9.83301 6.5 10.5c0 2 -0.666992 2.66699 -2 2c-11.333 -3.33301 -21.5 -7.16602 -30.5 -11.499
s-15.167 -6.5 -18.5 -6.5c-1.33301 0 -2 0.666992 -2 2v-1c-0.666992 0 -1 0.666992 -1 2c0 2 4.83301 5.83301 14.5 11.5s20.834 10.5 33.501 14.5c5.33301 1.33301 10.833 1 16.5 -1s8.5 -7 8.5 -15c0 -2 -0.166992 -3.5 -0.5 -4.5s-0.5 -2.16699 -0.5 -3.5l-13 -22.5
c-5.33301 -9 -9.66602 -17.167 -12.999 -24.5l5 3l43.5 33c14.333 10.667 29.166 22.667 44.499 36c3.33301 3.33301 6.33301 5 9 5c1.33301 0 2.33301 -0.333008 3 -1c3.33301 -1.33301 6.33301 -2.66602 9 -3.99902c2 -1.33301 4 -2.83301 6 -4.5s3 -4.16699 3 -7.5
c0 -2 -1.33301 -4 -4 -6c-5.33301 -5.33301 -10.666 -12.166 -15.999 -20.499s-9.66602 -20.833 -12.999 -37.5l51.5 41.5c17 14.333 34.5 28.166 52.5 41.499h2z" />
    <glyph glyph-name="x" unicode="x" horiz-adv-x="150" 
d="M171 29c-4 -4 -12.333 -10.335 -25 -19.002s-32.667 -13 -60 -13c-17.333 0 -30.5 3.16699 -39.5 9.5s-18.833 14.833 -29.5 25.5c-21.333 -13.333 -38.333 -23.5 -51 -30.5s-18.334 -10.5 -17.001 -10.5c-1.33301 0 -2.33301 0.333008 -3 1s-1 1.33398 -1 2.00098
c0 1.33301 1 3 3 5c-0.666992 -0.666992 4.66602 4 15.999 14l43 38c-4 14.667 -6.33301 24.334 -7 29.001s-1 9.66699 -1 15l1 2c1.33301 1.33301 3.33301 2.33301 6 3c3.33301 0.666992 9 1.66699 17 3c3.33301 0 5.33301 -0.5 6 -1.5s1.33398 -2.16699 2.00098 -3.5v-1
c0 -4 1 -11.333 3 -22l38 32.5l35 30l26.5 22c7 5.66699 11.167 9.16699 12.5 10.5c4 0 9 -1.83301 15 -5.5s9 -8.16699 9 -13.5c0 -1.33301 -1 -3 -3 -5c-3.33301 -3.33301 -7.83301 -7.5 -13.5 -12.5l-27.5 -23.5l-17 -14c-7.33301 -6.66699 -16.666 -14 -27.999 -22
s-23.333 -16 -36 -24c0 -6 6.16699 -12.333 18.5 -19s25.833 -10 40.5 -10c11.333 0 22.833 1.5 34.5 4.5s21.167 5.83301 28.5 8.5c2 0 3.66699 -0.666992 5 -2c0 -1.33301 -0.333008 -2.33301 -1 -3z" />
    <glyph glyph-name="y" unicode="y" horiz-adv-x="154" 
d="M155 35c2.66699 0 3.99805 -0.999023 3.99805 -2.99902c0 -1.33301 -0.5 -2.16602 -1.5 -2.49902s-1.83301 -0.833008 -2.5 -1.5h-1c-2.66699 -0.666992 -5.5 -1.33398 -8.5 -2.00098s-6.66699 -1.83398 -11 -3.50098l-16.5 -6.5
c-6.66699 -2.66699 -15 -6.33398 -25 -11.001c-8 -3.33301 -16.667 -10.166 -26 -20.499s-19.333 -22.5 -30 -36.5l-34 -46.5l-37 -50.5l-23.5 -29.5l-15.5 -19c-4 -5 -7.16699 -8.83301 -9.5 -11.5s-4.83301 -5.33398 -7.5 -8.00098
c-3.33301 -3.33301 -5.83301 -5.33301 -7.5 -6s-3.16699 -1.33398 -4.5 -2.00098h-2c-9.33301 0 -15.833 1.66699 -19.5 5s-5.5 8 -5.5 14c0 14 4.83301 29.5 14.5 46.5s21.834 34 36.501 51s31 33.167 49 48.5s35 28.666 51 39.999l17 24
c-5.33301 -4 -13.666 -6 -24.999 -6s-19 3.16699 -23 9.5s-6 12.166 -6 17.499c0 8.66699 1.66699 17.5 5 26.5s7.66602 17.833 12.999 26.5s11.166 17 17.499 25s12.5 15 18.5 21c0.666992 0.666992 2.66699 0.833984 6 0.500977s6.5 -1.16602 9.5 -2.49902
s5.83301 -3 8.5 -5s4 -4 4 -6c0 -1.33301 -0.666992 -2.66602 -2 -3.99902l-1 -1c-7.33301 -9.33301 -15.166 -20.166 -23.499 -32.499s-15.833 -27.5 -22.5 -45.5c10 0 20.167 3.33301 30.5 10s19.833 13.667 28.5 21c12 12 20.667 21.833 26 29.5l12.5 17.5
c3 4 5.83301 6.83301 8.5 8.5s7.33398 2.5 14.001 2.5c3.33301 0 6.66602 -0.833008 9.99902 -2.5s5 -4.16699 5 -7.5c0 -2 -0.333008 -3.66699 -1 -5s-2.5 -4.16602 -5.5 -8.49902s-8 -11 -15 -20l-28.5 -38.5l-14 -18h3c18 7.33301 32.333 12.166 43 14.499
s16.334 3.5 17.001 3.5h3zM-31.002 -91.999c-11.333 -12 -21.5 -24.667 -30.5 -38l-24.5 -36l25 33l24 33z" />
    <glyph glyph-name="z" unicode="z" horiz-adv-x="154" 
d="M166 39c2.66699 0 3.99805 -1.00293 3.99805 -3.00293c0 -1.33301 -0.5 -2.16602 -1.5 -2.49902s-1.83301 -0.833008 -2.5 -1.5h-1c-1.33301 0 -3.66602 -0.666992 -6.99902 -2s-5.33301 -2 -6 -2l-29.5 -13.5c-8.33301 -3.66699 -18.166 -10.834 -29.499 -21.501
s-25.833 -26.667 -43.5 -48s-41.834 -52.333 -72.501 -93l-17.5 -22l-21 -25.5c-7 -8.33301 -13.5 -15.5 -19.5 -21.5s-10.333 -9.33301 -13 -10c-5.33301 0 -11.166 1.5 -17.499 4.5s-9.5 8.16699 -9.5 15.5c0 15.333 4.83301 31.333 14.5 48s21.834 33.334 36.501 50.001
s31 32.667 49 48s35.667 29.666 53 42.999c2.66699 3.33301 6 7.83301 10 13.5s8.33301 11.167 13 16.5l13 14.5c4 4.33301 7 6.83301 9 7.5c-4.66699 2 -8.16699 6 -10.5 12s-3.5 11.667 -3.5 17c0 2.66699 0.666992 5.33398 2 8.00098c-10 -8 -19.833 -15.333 -29.5 -22
s-21.5 -12 -35.5 -16l-9 -3h-4h-1c-1.33301 0 -2 0.333008 -2 1c-0.666992 0.666992 -1 1.33398 -1 2.00098c0 1.33301 0.666992 2.33301 2 3s4 2.5 8 5.5s10 8 18 15s18.667 18.167 32 33.5l23 30c8 10.667 14.333 21.667 19 33h2h-1
c4.66699 -1.33301 9 -2.66602 13 -3.99902c3.33301 -1.33301 6.5 -2.83301 9.5 -4.5s4.5 -3.5 4.5 -5.5s-1 -5.16699 -3 -9.5s-3.33301 -7.83301 -4 -10.5h1c3.33301 3.33301 5.66602 5 6.99902 5c3.33301 0 8 -2.66699 14 -8s9 -9 9 -11
c0 -4.66699 -3.5 -9.16699 -10.5 -13.5s-12.167 -8.16602 -15.5 -11.499c0.666992 0 1.5 0.333008 2.5 1s2.83301 1 5.5 1c4.66699 0 8.16699 -1.5 10.5 -4.5s3.5 -5.5 3.5 -7.5c0 -9.33301 -3 -18 -9 -26s-13.667 -13.333 -23 -16c0 -4 -1.33301 -7.66699 -4 -11
c13.333 3.33301 26.333 7.66602 39 12.999s21.667 8.33301 27 9h1h1h1zM-25.002 -97.0029c-4 -2 -8.33203 -5.83203 -12.999 -11.499s-9.33398 -11.834 -14.001 -18.501s-9 -13.167 -13 -19.5s-7 -11.5 -9 -15.5c3.33301 4 6.33301 8 9 12s5.66699 7.66699 9 11z
M94.999 61.998c0 -0.666992 0.333984 -1.33301 1.00098 -2c1.33301 1.33301 2.5 3.5 3.5 6.5s2.16699 5.16699 3.5 6.5c-1.33301 -1.33301 -2.83301 -3.5 -4.5 -6.5s-2.83398 -4.5 -3.50098 -4.5z" />
    <glyph glyph-name="bar" unicode="|" horiz-adv-x="158" 
d="M88 489c7.33301 4.66699 12.833 3.50195 16.5 -3.49805s5.5 -13.167 5.5 -18.5c0 -4 0.333008 -17.667 1 -41s0 -56.166 -2 -98.499s-5.83301 -94.333 -11.5 -156s-14.167 -133.5 -25.5 -215.5c0 -4.66699 -1 -7.33398 -3 -8.00098c-1.33301 -0.666992 -3 0.333008 -5 3
c2.66699 60 5 119 7 177s3.5 110.833 4.5 158.5s1.66699 87.5 2 119.5s0.5 52 0.5 60c0.666992 7.33301 1 12.166 1 14.499s3 5.16602 9 8.49902z" />
    <glyph glyph-name="exclamdown" unicode="&#xa1;" horiz-adv-x="322" 
d="M280.007 337.994c-3.33301 2.66699 -4.99902 4.33203 -4.99902 4.99902c0 2.66602 1 4.99902 2.99902 6.99902l1 2c0 0.666992 -0.333008 1.33301 -1 1.99902v1c0 2 1 4.16699 3 6.5s4 4.16602 5.99902 5.49902l11.999 7.99902l7.99902 -14.998
c0.666992 -0.666992 1.66699 -2.33398 3 -5.00098v-1c0.666992 -1.99902 1 -4.99805 1 -8.99707c-0.666992 -1.33301 -1.16699 -2.66602 -1.5 -3.99902s-0.833008 -2.66602 -1.5 -3.99902l-2 -4l-4 -4.99902h-1.99902c-1.33301 0 -3 0.666992 -5 2
c-4.66602 2.66602 -9.66504 5.33203 -14.998 7.99805zM43.0361 -171.945c-3.99902 -0.666992 -7.16504 -0.00195312 -9.49805 1.99805s-3.83301 4.66602 -4.5 7.99902c-0.666016 3.33301 -0.666016 6.66602 0 9.99902c0.666992 3.33301 1.33398 6.33301 2.00098 9
c1.33301 3.99902 6.49902 16.6641 15.498 37.9951s22.6641 51.1611 40.9951 89.4902s42.3281 84.8232 71.9912 139.482c29.6631 54.6602 65.8252 117.319 108.486 187.978c2.66602 3.99902 4.66602 5.99902 5.99902 5.99902c2 0 3 -1.66602 3 -4.99902l-75.9912 -159.98
l-66.4922 -143.482l-48.9941 -108.487l-24.4971 -54.9932c-3.33301 -6.66602 -5.33301 -10.999 -6 -12.998c-0.666992 -2 -4.66602 -3.66699 -11.998 -5z" />
    <glyph glyph-name="dieresis" unicode="&#xa8;" horiz-adv-x="203" 
d="M79 194c3.33301 0 8.33203 -1.66895 14.999 -5.00195s10.667 -6.66602 12 -9.99902c0 -10 -4.33301 -18 -13 -24l-11 -8c-4 6.66699 -7.16699 12.834 -9.5 18.501s-2.16602 12.167 0.500977 19.5c3.33301 6 5.33301 9 6 9zM138.999 193.998
c3.33301 0 8.33203 -1.66895 14.999 -5.00195s10.667 -6.66602 12 -9.99902c0 -10 -4.33301 -18 -13 -24l-11 -8c-4 6.66699 -7.16699 12.834 -9.5 18.501s-2.16602 12.167 0.500977 19.5c3.33301 6 5.33301 9 6 9z" />
    <glyph glyph-name="acute" unicode="&#xb4;" horiz-adv-x="201" 
d="M62 160c-0.666992 0.666992 -1.00098 1.66309 -1.00098 2.99609c0 2 1.33301 3.33301 4 4c8.66699 -1.33301 17 -0.166016 25 3.50098s15.167 7.83398 21.5 12.501l16 12c4.33301 3.33301 7.5 4 9.5 2c1.33301 -1.33301 4.5 -4.16602 9.5 -8.49902
s7.5 -9.16602 7.5 -14.499c0 -6.66699 -4 -11.5 -12 -14.5s-17.167 -5 -27.5 -6s-20.666 -0.833008 -30.999 0.5s-17.5 3.33301 -21.5 6z" />
    <glyph glyph-name="cedilla" unicode="&#xb8;" horiz-adv-x="41" 
d="M23 -53c-3.33301 0 -7.83301 0.49707 -13.5 1.49707s-11.334 2.66699 -17.001 5s-10.667 5.33301 -15 9s-6.5 7.83398 -6.5 12.501c0 2 1 3 3 3c5.33301 -1.33301 10.833 -2.83301 16.5 -4.5s11.5 -2.5 17.5 -2.5c6.66699 0 10.667 0.333008 12 1
c1.33301 0 2 0.333008 2 1c-1.33301 1.33301 -3.83301 2.16602 -7.5 2.49902s-6.5 0.833008 -8.5 1.5c-1.33301 0.666992 -2.66602 2 -3.99902 4c-2 2.66699 -3 7.33398 -3 14.001c0 0.666992 0.666992 2.33398 2 5.00098s3 5.5 5 8.5s4 5.66699 6 8s3.66699 3.5 5 3.5
c0.666992 0 3.33398 -0.666992 8.00098 -2s9.66699 -4.66602 15 -9.99902c0 -1.33301 -1 -4 -3 -8l-1 -2c1.33301 -1.33301 4.16602 -4 8.49902 -8s6.5 -9.66699 6.5 -17c0 -6.66699 -2.66699 -12.667 -8 -18s-12 -8 -20 -8z" />
    <glyph glyph-name="questiondown" unicode="&#xbf;" horiz-adv-x="441" 
d="M363.006 330.996c-3.33301 0 -8.33301 1.66602 -14.999 4.99902c-6.66504 3.33301 -10.6641 6.66602 -11.9971 9.99902c0 9.99902 4.33301 17.998 12.998 23.9971l10.999 7.99902c3.99902 -6.66602 7.16504 -12.832 9.49805 -18.498s2.16602 -12.165 -0.5 -19.4971
c-3.33301 -5.99902 -5.33301 -8.99902 -5.99902 -8.99902zM33.0459 -141.946c0 15.3311 6.33008 34.1602 18.9951 56.4912s27.4971 44.9951 44.4951 67.9922s34.1621 44.8281 51.4932 65.4922l40.9951 49.9941l48.4941 63.4922l46.9941 65.4922l35.9961 52.4932
c9.66504 14.332 14.8311 22.8311 15.498 25.4971c0.666992 3.99902 2.66699 5.99902 6 5.99902l1 -1c0.666992 -0.666992 1 -2.33301 1 -4.99902c-2 -4.66602 -4 -8.99902 -5.99902 -12.998l-6.5 -12.999l-8.49902 -16.498
c-3.33301 -6.33203 -7.66602 -14.1641 -12.999 -23.4971c-9.33203 -16.665 -21.4971 -36.1621 -36.4951 -58.4922l-48.9941 -71.4912l-55.9932 -79.4912l-56.4932 -82.4893l-14.498 -21.498l-15.998 -24.4961c-4.99902 -7.99902 -9.16504 -15.332 -12.498 -21.998
c-3.33301 -6.66504 -4.33301 -11.3311 -3 -13.998c1.99902 -4.66602 7.99805 -5.99902 17.9971 -4c9.99902 2 21.998 6.16602 35.9971 12.499c13.998 6.33301 28.9961 14.165 44.9941 23.4971s30.9961 18.8311 44.9951 28.4961
c13.998 9.66602 25.9961 18.998 35.9951 27.9971s15.665 15.8311 16.998 20.4971l2 1c1.33301 0.666992 3.33301 1.33398 5.99902 2.00098c5.33301 1.33301 9.66602 2 12.999 2c9.33301 0 13.999 -2.66602 13.999 -7.99902c0 -1.33301 -1 -3.66602 -3 -6.99902
s-4.33301 -6.66602 -6.99902 -9.99902c-4.66602 -5.99902 -13.665 -15.998 -26.9971 -29.9961c-13.3311 -13.999 -29.3291 -27.9971 -47.9941 -41.9951c-18.6641 -13.999 -39.1611 -26.3311 -61.4922 -36.9961s-44.8281 -15.998 -67.4922 -15.998
c-11.332 0 -22.6641 1.66699 -33.9951 5c-11.332 3.33301 -16.998 11.332 -16.998 23.9971z" />
    <glyph glyph-name="Agrave" unicode="&#xc0;" horiz-adv-x="405" 
d="M14 96c-0.666992 0 -2.33594 1.83398 -5.00293 5.50098s-4 9.16699 -4 16.5c0 4 0.666992 6.5 2 7.5s3.66602 1.5 6.99902 1.5c18 2 38.833 2.66699 62.5 2s46.834 -1 69.501 -1c53.333 70.667 101.333 125.5 144 164.5s80 67.667 112 86s58.667 29.166 80 32.499
s37 5 47 5c9.33301 0 18 -0.833008 26 -2.5s12.667 -5.16699 14 -10.5c0.666992 -3.33301 0.333984 -7 -0.999023 -11c-0.666992 -2 -1.33398 -3.66699 -2.00098 -5l-13 -19.5l-33.5 -49.5l-58.5 -84l-88 -122c2.66699 -0.666992 6.33398 -1.16699 11.001 -1.5
s15.667 -1.5 33 -3.5c1.33301 0 2.83301 -0.333008 4.5 -1s2.5 -1.66699 2.5 -3c0 -2.66699 -4.33301 -4 -13 -4h-17.5c-8.33301 0 -18.5 -0.333008 -30.5 -1l-53 -75.5l-33 -46.5l-16.5 -23.5l-4.5 -6.5l-2 1c-0.666992 0.666992 -1 2.33398 -1 5.00098
c13.333 26.667 26.833 51.5 40.5 74.5l42.5 71.5c-27.333 -1.33301 -59 -2.33301 -95 -3s-69 -1 -99 -1l-52 -60.5c-15.333 -17 -28.333 -30.167 -39 -39.5c-6 -6 -10.333 -9 -13 -9c-2 0 -3 1 -3 3c0 1.33301 0.333008 2.16602 1 2.49902s2.33398 2.16602 5.00098 5.49902
c2.66699 2.66699 11.334 12.834 26.001 30.501s32.667 40.5 54 68.5h-106zM274.998 240.001c-19.333 -19.333 -37.832 -38.834 -55.499 -58.501l-48.5 -54.5l74.5 -5c29.667 -2 63.167 -4.66699 100.5 -8l46.5 74.5l49.5 76.5l44.5 68l33.5 50h-8
c-4.66699 0 -12.834 -1 -24.501 -3s-26.167 -6.66699 -43.5 -14c-25.333 -11.333 -52.333 -27.666 -81 -48.999s-58 -47 -88 -77zM572.999 441c-4 -2.66699 -11.168 -4.66309 -21.501 -5.99609s-20.666 -1.5 -30.999 -0.5s-19.5 3 -27.5 6s-12 7.83301 -12 14.5
c0 5.33301 2.5 10.166 7.5 14.499s8.16699 7.16602 9.5 8.49902c2 2 5.16699 1.33301 9.5 -2l16 -12c6.33301 -4.66699 13.5 -8.83398 21.5 -12.501s16.333 -4.83398 25 -3.50098c2.66699 -0.666992 4 -2 4 -4c0 -1.33301 -0.333008 -2.33301 -1 -3z" />
    <glyph glyph-name="Aacute" unicode="&#xc1;" horiz-adv-x="405" 
d="M14 96c-0.666992 0 -2.33594 1.83398 -5.00293 5.50098s-4 9.16699 -4 16.5c0 4 0.666992 6.5 2 7.5s3.66602 1.5 6.99902 1.5c18 2 38.833 2.66699 62.5 2s46.834 -1 69.501 -1c53.333 70.667 101.333 125.5 144 164.5s80 67.667 112 86s58.667 29.166 80 32.499
s37 5 47 5c9.33301 0 18 -0.833008 26 -2.5s12.667 -5.16699 14 -10.5c0.666992 -3.33301 0.333984 -7 -0.999023 -11c-0.666992 -2 -1.33398 -3.66699 -2.00098 -5l-13 -19.5l-33.5 -49.5l-58.5 -84l-88 -122c2.66699 -0.666992 6.33398 -1.16699 11.001 -1.5
s15.667 -1.5 33 -3.5c1.33301 0 2.83301 -0.333008 4.5 -1s2.5 -1.66699 2.5 -3c0 -2.66699 -4.33301 -4 -13 -4h-17.5c-8.33301 0 -18.5 -0.333008 -30.5 -1l-53 -75.5l-33 -46.5l-16.5 -23.5l-4.5 -6.5l-2 1c-0.666992 0.666992 -1 2.33398 -1 5.00098
c13.333 26.667 26.833 51.5 40.5 74.5l42.5 71.5c-27.333 -1.33301 -59 -2.33301 -95 -3s-69 -1 -99 -1l-52 -60.5c-15.333 -17 -28.333 -30.167 -39 -39.5c-6 -6 -10.333 -9 -13 -9c-2 0 -3 1 -3 3c0 1.33301 0.333008 2.16602 1 2.49902s2.33398 2.16602 5.00098 5.49902
c2.66699 2.66699 11.334 12.834 26.001 30.501s32.667 40.5 54 68.5h-106zM274.998 240.001c-19.333 -19.333 -37.832 -38.834 -55.499 -58.501l-48.5 -54.5l74.5 -5c29.667 -2 63.167 -4.66699 100.5 -8l46.5 74.5l49.5 76.5l44.5 68l33.5 50h-8
c-4.66699 0 -12.834 -1 -24.501 -3s-26.167 -6.66699 -43.5 -14c-25.333 -11.333 -52.333 -27.666 -81 -48.999s-58 -47 -88 -77zM468.999 438c-0.666992 0.666992 -1.00098 1.66309 -1.00098 2.99609c0 2 1.33301 3.33301 4 4c8.66699 -1.33301 17 -0.166016 25 3.50098
s15.167 7.83398 21.5 12.501l16 12c4.33301 3.33301 7.5 4 9.5 2c1.33301 -1.33301 4.5 -4.16602 9.5 -8.49902s7.5 -9.16602 7.5 -14.499c0 -6.66699 -4 -11.5 -12 -14.5s-17.167 -5 -27.5 -6s-20.666 -0.833008 -30.999 0.5s-17.5 3.33301 -21.5 6z" />
    <glyph glyph-name="Acircumflex" unicode="&#xc2;" horiz-adv-x="405" 
d="M14 96c-0.666992 0 -2.33594 1.83398 -5.00293 5.50098s-4 9.16699 -4 16.5c0 4 0.666992 6.5 2 7.5s3.66602 1.5 6.99902 1.5c18 2 38.833 2.66699 62.5 2s46.834 -1 69.501 -1c53.333 70.667 101.333 125.5 144 164.5s80 67.667 112 86s58.667 29.166 80 32.499
s37 5 47 5c9.33301 0 18 -0.833008 26 -2.5s12.667 -5.16699 14 -10.5c0.666992 -3.33301 0.333984 -7 -0.999023 -11c-0.666992 -2 -1.33398 -3.66699 -2.00098 -5l-13 -19.5l-33.5 -49.5l-58.5 -84l-88 -122c2.66699 -0.666992 6.33398 -1.16699 11.001 -1.5
s15.667 -1.5 33 -3.5c1.33301 0 2.83301 -0.333008 4.5 -1s2.5 -1.66699 2.5 -3c0 -2.66699 -4.33301 -4 -13 -4h-17.5c-8.33301 0 -18.5 -0.333008 -30.5 -1l-53 -75.5l-33 -46.5l-16.5 -23.5l-4.5 -6.5l-2 1c-0.666992 0.666992 -1 2.33398 -1 5.00098
c13.333 26.667 26.833 51.5 40.5 74.5l42.5 71.5c-27.333 -1.33301 -59 -2.33301 -95 -3s-69 -1 -99 -1l-52 -60.5c-15.333 -17 -28.333 -30.167 -39 -39.5c-6 -6 -10.333 -9 -13 -9c-2 0 -3 1 -3 3c0 1.33301 0.333008 2.16602 1 2.49902s2.33398 2.16602 5.00098 5.49902
c2.66699 2.66699 11.334 12.834 26.001 30.501s32.667 40.5 54 68.5h-106zM274.998 240.001c-19.333 -19.333 -37.832 -38.834 -55.499 -58.501l-48.5 -54.5l74.5 -5c29.667 -2 63.167 -4.66699 100.5 -8l46.5 74.5l49.5 76.5l44.5 68l33.5 50h-8
c-4.66699 0 -12.834 -1 -24.501 -3s-26.167 -6.66699 -43.5 -14c-25.333 -11.333 -52.333 -27.666 -81 -48.999s-58 -47 -88 -77zM448.999 443l-1.99902 3.99805c0 1.33301 0.5 2 1.5 2s1.83301 0.333008 2.5 1c19.333 4.66699 32.833 8.83398 40.5 12.501
s14.167 7.5 19.5 11.5c8.66699 5.33301 13.667 8 15 8c2 0 6 -1.83301 12 -5.5s15.333 -10.5 28 -20.5c14.667 -11.333 24.5 -18 29.5 -20s7.5 -4.33301 7.5 -7s-1.66699 -4 -5 -4c-9.33301 0 -21.333 1.66699 -36 5s-27 8 -37 14c-4 -2 -9.33301 -3.66699 -16 -5
s-13.834 -2.16602 -21.501 -2.49902s-15 0 -22 1s-12.5 2.83301 -16.5 5.5z" />
    <glyph glyph-name="Atilde" unicode="&#xc3;" horiz-adv-x="405" 
d="M14 96c-0.666992 0 -2.33594 1.83398 -5.00293 5.50098s-4 9.16699 -4 16.5c0 4 0.666992 6.5 2 7.5s3.66602 1.5 6.99902 1.5c18 2 38.833 2.66699 62.5 2s46.834 -1 69.501 -1c53.333 70.667 101.333 125.5 144 164.5s80 67.667 112 86s58.667 29.166 80 32.499
s37 5 47 5c9.33301 0 18 -0.833008 26 -2.5s12.667 -5.16699 14 -10.5c0.666992 -3.33301 0.333984 -7 -0.999023 -11c-0.666992 -2 -1.33398 -3.66699 -2.00098 -5l-13 -19.5l-33.5 -49.5l-58.5 -84l-88 -122c2.66699 -0.666992 6.33398 -1.16699 11.001 -1.5
s15.667 -1.5 33 -3.5c1.33301 0 2.83301 -0.333008 4.5 -1s2.5 -1.66699 2.5 -3c0 -2.66699 -4.33301 -4 -13 -4h-17.5c-8.33301 0 -18.5 -0.333008 -30.5 -1l-53 -75.5l-33 -46.5l-16.5 -23.5l-4.5 -6.5l-2 1c-0.666992 0.666992 -1 2.33398 -1 5.00098
c13.333 26.667 26.833 51.5 40.5 74.5l42.5 71.5c-27.333 -1.33301 -59 -2.33301 -95 -3s-69 -1 -99 -1l-52 -60.5c-15.333 -17 -28.333 -30.167 -39 -39.5c-6 -6 -10.333 -9 -13 -9c-2 0 -3 1 -3 3c0 1.33301 0.333008 2.16602 1 2.49902s2.33398 2.16602 5.00098 5.49902
c2.66699 2.66699 11.334 12.834 26.001 30.501s32.667 40.5 54 68.5h-106zM274.998 240.001c-19.333 -19.333 -37.832 -38.834 -55.499 -58.501l-48.5 -54.5l74.5 -5c29.667 -2 63.167 -4.66699 100.5 -8l46.5 74.5l49.5 76.5l44.5 68l33.5 50h-8
c-4.66699 0 -12.834 -1 -24.501 -3s-26.167 -6.66699 -43.5 -14c-25.333 -11.333 -52.333 -27.666 -81 -48.999s-58 -47 -88 -77zM494.999 442c-5.33301 6.66699 -9.33203 11.501 -11.999 14.501s-4.33398 8.5 -5.00098 16.5c-2 11.333 1.66699 18 11 20
c6 -1.33301 9.33301 -2.33301 10 -3c8.66699 -2.66699 17.667 -7.33398 27 -14.001s17.666 -13 24.999 -19c9.33301 -6.66699 15.5 -11.5 18.5 -14.5s6.16699 -5.16699 9.5 -6.5c0.666992 0.666992 1 2 1 4c-0.666992 10 -0.5 15.167 0.5 15.5s3.16699 2.16602 6.5 5.49902
c1.33301 1.33301 2.5 1 3.5 -1s1.83301 -4.5 2.5 -7.5s1.16699 -6 1.5 -9s0.5 -5.5 0.5 -7.5s-1.33301 -5 -4 -9s-6 -6.33301 -10 -7c-1.33301 0 -4.66602 1.33301 -9.99902 4l-19 9.5c-7.33301 3.66699 -14.833 7.66699 -22.5 12s-14.167 8.16602 -19.5 11.499
c-2.66699 0 -4.16699 -1.16699 -4.5 -3.5s-0.5 -4.66602 -0.5 -6.99902s-0.5 -4.16602 -1.5 -5.49902s-3.83301 -1 -8.5 1z" />
    <glyph glyph-name="Adieresis" unicode="&#xc4;" horiz-adv-x="405" 
d="M14 96c-0.666992 0 -2.33594 1.83398 -5.00293 5.50098s-4 9.16699 -4 16.5c0 4 0.666992 6.5 2 7.5s3.66602 1.5 6.99902 1.5c18 2 38.833 2.66699 62.5 2s46.834 -1 69.501 -1c53.333 70.667 101.333 125.5 144 164.5s80 67.667 112 86s58.667 29.166 80 32.499
s37 5 47 5c9.33301 0 18 -0.833008 26 -2.5s12.667 -5.16699 14 -10.5c0.666992 -3.33301 0.333984 -7 -0.999023 -11c-0.666992 -2 -1.33398 -3.66699 -2.00098 -5l-13 -19.5l-33.5 -49.5l-58.5 -84l-88 -122c2.66699 -0.666992 6.33398 -1.16699 11.001 -1.5
s15.667 -1.5 33 -3.5c1.33301 0 2.83301 -0.333008 4.5 -1s2.5 -1.66699 2.5 -3c0 -2.66699 -4.33301 -4 -13 -4h-17.5c-8.33301 0 -18.5 -0.333008 -30.5 -1l-53 -75.5l-33 -46.5l-16.5 -23.5l-4.5 -6.5l-2 1c-0.666992 0.666992 -1 2.33398 -1 5.00098
c13.333 26.667 26.833 51.5 40.5 74.5l42.5 71.5c-27.333 -1.33301 -59 -2.33301 -95 -3s-69 -1 -99 -1l-52 -60.5c-15.333 -17 -28.333 -30.167 -39 -39.5c-6 -6 -10.333 -9 -13 -9c-2 0 -3 1 -3 3c0 1.33301 0.333008 2.16602 1 2.49902s2.33398 2.16602 5.00098 5.49902
c2.66699 2.66699 11.334 12.834 26.001 30.501s32.667 40.5 54 68.5h-106zM274.998 240.001c-19.333 -19.333 -37.832 -38.834 -55.499 -58.501l-48.5 -54.5l74.5 -5c29.667 -2 63.167 -4.66699 100.5 -8l46.5 74.5l49.5 76.5l44.5 68l33.5 50h-8
c-4.66699 0 -12.834 -1 -24.501 -3s-26.167 -6.66699 -43.5 -14c-25.333 -11.333 -52.333 -27.666 -81 -48.999s-58 -47 -88 -77zM489.999 473c3.33301 0 8.33203 -1.66895 14.999 -5.00195s10.667 -6.66602 12 -9.99902c0 -10 -4.33301 -18 -13 -24l-11 -8
c-4 6.66699 -7.16699 12.834 -9.5 18.501s-2.16602 12.167 0.500977 19.5c3.33301 6 5.33301 9 6 9zM549.998 472.998c3.33301 0 8.33203 -1.66895 14.999 -5.00195s10.667 -6.66602 12 -9.99902c0 -10 -4.33301 -18 -13 -24l-11 -8c-4 6.66699 -7.16699 12.834 -9.5 18.501
s-2.16602 12.167 0.500977 19.5c3.33301 6 5.33301 9 6 9z" />
    <glyph glyph-name="Aring" unicode="&#xc5;" horiz-adv-x="405" 
d="M14 96c-0.666992 0 -2.33594 1.83398 -5.00293 5.50098s-4 9.16699 -4 16.5c0 4 0.666992 6.5 2 7.5s3.66602 1.5 6.99902 1.5c18 2 38.833 2.66699 62.5 2s46.834 -1 69.501 -1c53.333 70.667 101.333 125.5 144 164.5s80 67.667 112 86s58.667 29.166 80 32.499
s37 5 47 5c9.33301 0 18 -0.833008 26 -2.5s12.667 -5.16699 14 -10.5c0.666992 -3.33301 0.333984 -7 -0.999023 -11c-0.666992 -2 -1.33398 -3.66699 -2.00098 -5l-13 -19.5l-33.5 -49.5l-58.5 -84l-88 -122c2.66699 -0.666992 6.33398 -1.16699 11.001 -1.5
s15.667 -1.5 33 -3.5c1.33301 0 2.83301 -0.333008 4.5 -1s2.5 -1.66699 2.5 -3c0 -2.66699 -4.33301 -4 -13 -4h-17.5c-8.33301 0 -18.5 -0.333008 -30.5 -1l-53 -75.5l-33 -46.5l-16.5 -23.5l-4.5 -6.5l-2 1c-0.666992 0.666992 -1 2.33398 -1 5.00098
c13.333 26.667 26.833 51.5 40.5 74.5l42.5 71.5c-27.333 -1.33301 -59 -2.33301 -95 -3s-69 -1 -99 -1l-52 -60.5c-15.333 -17 -28.333 -30.167 -39 -39.5c-6 -6 -10.333 -9 -13 -9c-2 0 -3 1 -3 3c0 1.33301 0.333008 2.16602 1 2.49902s2.33398 2.16602 5.00098 5.49902
c2.66699 2.66699 11.334 12.834 26.001 30.501s32.667 40.5 54 68.5h-106zM274.998 240.001c-19.333 -19.333 -37.832 -38.834 -55.499 -58.501l-48.5 -54.5l74.5 -5c29.667 -2 63.167 -4.66699 100.5 -8l46.5 74.5l49.5 76.5l44.5 68l33.5 50h-8
c-4.66699 0 -12.834 -1 -24.501 -3s-26.167 -6.66699 -43.5 -14c-25.333 -11.333 -52.333 -27.666 -81 -48.999s-58 -47 -88 -77zM527.999 476c3.33301 0 8.33203 -1.66895 14.999 -5.00195s10.667 -6.66602 12 -9.99902c0 -10 -4.33301 -18 -13 -24l-11 -8
c-4 6.66699 -7.16699 12.834 -9.5 18.501s-2.16602 12.167 0.500977 19.5c3.33301 6 5.33301 9 6 9zM531.998 458.998c0 -0.666992 -0.166992 -0.998047 -0.5 -0.998047s-0.5 -0.333008 -0.5 -1c-1.33301 -2.66699 -1.5 -4.83398 -0.5 -6.50098
s2.16699 -3.83398 3.5 -6.50098l4 3c2.66699 2 4 4.66699 4 8c-2 3.33301 -5 5 -9 5z" />
    <glyph glyph-name="AE" unicode="&#xc6;" horiz-adv-x="575" 
d="M325 -17c-10.667 9.33301 -16.0029 22.0029 -16.0029 38.0029l-26.5 -36.5l-16.5 -23c-4 -5.66699 -6.66699 -9.66699 -8 -12l-2 -3.5l-2 1c-0.666992 0.666992 -1 2.33398 -1 5.00098c13.333 26.667 26.833 51.5 40.5 74.5l42.5 71.5
c-27.333 -1.33301 -59 -2.33301 -95 -3s-69 -1 -99 -1l-52 -60.5c-15.333 -17 -28.333 -30.167 -39 -39.5c-6 -6 -10.333 -9 -13 -9c-2 0 -3 1 -3 3c0 1.33301 0.333008 2.16602 1 2.49902s2.33398 2.16602 5.00098 5.49902c2.66699 2.66699 11.334 12.834 26.001 30.501
s32.667 40.5 54 68.5h-106l-1 1c-0.666992 0 -2.33398 1.83301 -5.00098 5.5s-4 9.16699 -4 16.5c0 4 0.666992 6.5 2 7.5s3.66602 1.5 6.99902 1.5c18 2 38.833 2.66699 62.5 2s46.834 -1 69.501 -1c53.333 70.667 101.333 125.5 144 164.5s80 67.667 112 86
s58.667 29.166 80 32.499s37 5 47 5c9.33301 0 18 -0.833008 26 -2.5s12.667 -5.16699 14 -10.5c0.666992 -3.33301 0.333984 -7 -0.999023 -11c-0.666992 -2 -1.33398 -3.66699 -2.00098 -5c-1.33301 -1.33301 -4 -5.33301 -8 -12s-10.333 -16.5 -19 -29.5l-33.5 -49.5
l-50.5 -72c41.333 37.333 85.333 72.833 132 106.5s91 62.167 133 85.5l1 1h5c2 0 4.66699 -0.166992 8 -0.5s6.5 -1.16602 9.5 -2.49902s5.5 -3 7.5 -5s2.33301 -4.33301 1 -7l-18 -25l-32.5 -46l-32.5 -47.5c-10 -15 -15.667 -24.833 -17 -29.5h-1
c0 -0.666992 -0.666992 -1 -2 -1h-8c-5.33301 0 -9.83301 0.333008 -13.5 1s-5.5 3 -5.5 7v1c0 2 0.333008 4.33301 1 7c1.33301 5.33301 3 9 5 11l1 1c2.66699 7.33301 8.33398 17.166 17.001 29.499s19.667 25.166 33 38.499l-5 -3
c-13.333 -8.66699 -29.166 -19.667 -47.499 -33l-66.5 -49l-11 -8c-11.333 -8 -23.666 -17.333 -36.999 -28l-41 -33.5l-41.5 -35c-13.667 -11.667 -25.834 -22.834 -36.501 -33.501c14 0 29 -0.166992 45 -0.5s30.833 -0.833008 44.5 -1.5s25.334 -1.33398 35.001 -2.00098
s15.5 -1.33398 17.5 -2.00098l1 -1c2 0 3 -6 3 -18c0 -5.33301 -0.333008 -8.66602 -1 -9.99902s-2 -2 -4 -2h-11c-24.667 0 -48.834 2 -72.501 6s-48.167 8.66699 -73.5 14c-12 -13.333 -23 -27.833 -33 -43.5s-15 -32.167 -15 -49.5
c0 -3.33301 0.833008 -8.16602 2.5 -14.499s6.16699 -12.5 13.5 -18.5s18 -11.333 32 -16s33.667 -7 59 -7c14.667 0 29.5 1.66699 44.5 5s28.667 7.33301 41 12s23.333 9.33398 33 14.001l22.5 11c0 -0.666992 3.16699 -2.33398 9.5 -5.00098s9.5 -7 9.5 -13
c0 -2 -1.16699 -3.83301 -3.5 -5.5l-6.5 -4.5c-17.333 -12.667 -38 -22 -62 -28s-48.5 -8.5 -73.5 -7.5s-48.833 5.16699 -71.5 12.5s-40.667 18 -54 32zM274.997 240.003c-19.333 -19.333 -37.832 -38.834 -55.499 -58.501l-48.5 -54.5l74.5 -5
c29.667 -2 63.167 -4.66699 100.5 -8l6 9c-1.33301 1.33301 -1 2 1 2l45 72l47 73.5l43 65l32 47.5h-8c-4.66699 0 -12.834 -1 -24.501 -3s-26.167 -6.66699 -43.5 -14c-25.333 -11.333 -52.333 -27.666 -81 -48.999s-58 -47 -88 -77z" />
    <glyph glyph-name="Ccedilla" unicode="&#xc7;" horiz-adv-x="274" 
d="M32 -17c-10 10.667 -15.001 24.334 -15.001 41.001s4.5 33.667 13.5 51s19.833 33.666 32.5 48.999s26 29.666 40 42.999l36 34c32.667 29.333 65.167 56.5 97.5 81.5s61.833 46.833 88.5 65.5s49.167 33.834 67.5 45.501l35.5 22.5v1h4
c5.33301 0 11.666 -1.16699 18.999 -3.5s10.333 -6.16602 9 -11.499l-38 -51.5l-31.5 -46l-22 -34c-5.66699 -9 -8.5 -14.5 -8.5 -16.5h-1c-0.666992 -0.666992 -1.66699 -1 -3 -1h-7c-4 0 -8.33301 0.166992 -13 0.5s-7 2.83301 -7 7.5v1c0 1.33301 1 4 3 8s3 7.33301 3 10
l1 1c3.33301 6.66699 9.16602 16.334 17.499 29.001s19.166 25.667 32.499 39l-4 -3c-40 -26.667 -79.5 -54.5 -118.5 -83.5s-77.5 -59.833 -115.5 -92.5l-38.5 -34.5c-13 -11.667 -25 -23.667 -36 -36s-20 -25 -27 -38s-10.5 -26.167 -10.5 -39.5
c0 -17.333 5.66699 -30.5 17 -39.5s25.333 -15.333 42 -19s33.834 -5 51.501 -4s33.167 2.83301 46.5 5.5c10 2 20.333 5 31 9s20.334 8 29.001 12s15.834 7.5 21.501 10.5s8.83398 4.5 9.50098 4.5c1.33301 -0.666992 4.83301 -2.16699 10.5 -4.5s8.5 -6.5 8.5 -12.5
c0 -2 -1 -3.83301 -3 -5.5s-4.33301 -3.16699 -7 -4.5c-1.33301 -1.33301 -4.66602 -3.83301 -9.99902 -7.5s-12.666 -7.5 -21.999 -11.5s-20.833 -7.66699 -34.5 -11s-29.5 -5 -47.5 -5c-10.667 0 -22.5 0.5 -35.5 1.5s-26.167 3.16699 -39.5 6.5l-3 -7l-1 -2
c1.33301 -1.33301 4.16602 -4 8.49902 -8s6.5 -9.66699 6.5 -17c0 -6.66699 -2.66699 -12.667 -8 -18s-12 -8 -20 -8c-3.33301 0 -7.83301 0.5 -13.5 1.5s-11.334 2.66699 -17.001 5s-10.667 5.33301 -15 9s-6.5 7.83398 -6.5 12.501c0 2 1 3 3 3
c5.33301 -1.33301 10.833 -2.83301 16.5 -4.5s11.5 -2.5 17.5 -2.5c6.66699 0 10.667 0.333008 12 1c1.33301 0 2 0.333008 2 1c-1.33301 1.33301 -3.83301 2.16602 -7.5 2.49902s-6.5 0.833008 -8.5 1.5c-1.33301 0.666992 -2.66602 2 -3.99902 4
c-2 2.66699 -3 7.33398 -3 14.001c0 1.33301 1.16699 4.16602 3.5 8.49902s5.16602 8.16602 8.49902 11.499c-18.667 7.33301 -33 16.666 -43 27.999zM283.999 2h1l-1 -1v1z" />
    <glyph glyph-name="Egrave" unicode="&#xc8;" horiz-adv-x="286" 
d="M27 -17c-10.667 9.33301 -16.002 22.3389 -16.002 39.0059c0 19.333 5 37.166 15 53.499s19 29.833 27 40.5c-5.33301 1.33301 -9 2.16602 -11 2.49902s-3 1.83301 -3 4.5c0 0.666992 0.666992 1.66699 2 3h20c22 26.667 47.5 53.5 76.5 80.5s59.667 53.167 92 78.5
s65 49.166 98 71.499s64.5 42.166 94.5 59.499l1 1h5c2 0 4.66699 -0.166992 8 -0.5s6.5 -1.16602 9.5 -2.49902s5.5 -3 7.5 -5s2.33301 -4.33301 1 -7l-18 -25l-32.5 -46l-32.5 -47.5c-10 -15 -15.667 -24.833 -17 -29.5h-1c0 -0.666992 -0.666992 -1 -2 -1h-8
c-5.33301 0 -9.83301 0.333008 -13.5 1s-5.5 3 -5.5 7v1c0 2 0.333008 4.33301 1 7c1.33301 5.33301 3 9 5 11l1 1c2.66699 7.33301 8.33398 17.166 17.001 29.499s19.667 25.166 33 38.499l-5 -3c-13.333 -8.66699 -29.166 -19.667 -47.499 -33l-66.5 -49l-11 -8
c-11.333 -8 -23.666 -17.333 -36.999 -28l-41 -33.5l-41.5 -35c-13.667 -11.667 -25.834 -22.834 -36.501 -33.501c14 0 29 -0.166992 45 -0.5s30.833 -0.833008 44.5 -1.5s25.334 -1.33398 35.001 -2.00098s15.5 -1.33398 17.5 -2.00098l1 -1c2 0 3 -6 3 -18
c0 -5.33301 -0.333008 -8.66602 -1 -9.99902s-2 -2 -4 -2h-1h-10c-24.667 0 -48.834 2 -72.501 6s-48.167 8.66699 -73.5 14c-12 -13.333 -23 -27.833 -33 -43.5s-15 -32.167 -15 -49.5c0 -3.33301 0.833008 -8.16602 2.5 -14.499s6.16699 -12.5 13.5 -18.5
s18 -11.333 32 -16s33.667 -7 59 -7c14.667 0 29.5 1.66699 44.5 5s28.667 7.33301 41 12s23.333 9.33398 33 14.001l22.5 11c0 -0.666992 3.16699 -2.33398 9.5 -5.00098s9.5 -7 9.5 -13c0 -2 -1.16699 -3.83301 -3.5 -5.5l-6.5 -4.5c-17.333 -12.667 -38 -22 -62 -28
s-48.5 -8.5 -73.5 -7.5s-48.833 5.16699 -71.5 12.5s-40.667 18 -54 32zM485.998 435.006c-4 -2.66699 -11.168 -4.66309 -21.501 -5.99609s-20.666 -1.5 -30.999 -0.5s-19.5 3 -27.5 6s-12 7.83301 -12 14.5c0 5.33301 2.5 10.166 7.5 14.499s8.16699 7.16602 9.5 8.49902
c2 2 5.16699 1.33301 9.5 -2l16 -12c6.33301 -4.66699 13.5 -8.83398 21.5 -12.501s16.333 -4.83398 25 -3.50098c2.66699 -0.666992 4 -2 4 -4c0 -1.33301 -0.333008 -2.33301 -1 -3z" />
    <glyph glyph-name="Eacute" unicode="&#xc9;" horiz-adv-x="286" 
d="M27 -17c-10.667 9.33301 -16.002 22.3389 -16.002 39.0059c0 19.333 5 37.166 15 53.499s19 29.833 27 40.5c-5.33301 1.33301 -9 2.16602 -11 2.49902s-3 1.83301 -3 4.5c0 0.666992 0.666992 1.66699 2 3h20c22 26.667 47.5 53.5 76.5 80.5s59.667 53.167 92 78.5
s65 49.166 98 71.499s64.5 42.166 94.5 59.499l1 1h5c2 0 4.66699 -0.166992 8 -0.5s6.5 -1.16602 9.5 -2.49902s5.5 -3 7.5 -5s2.33301 -4.33301 1 -7l-18 -25l-32.5 -46l-32.5 -47.5c-10 -15 -15.667 -24.833 -17 -29.5h-1c0 -0.666992 -0.666992 -1 -2 -1h-8
c-5.33301 0 -9.83301 0.333008 -13.5 1s-5.5 3 -5.5 7v1c0 2 0.333008 4.33301 1 7c1.33301 5.33301 3 9 5 11l1 1c2.66699 7.33301 8.33398 17.166 17.001 29.499s19.667 25.166 33 38.499l-5 -3c-13.333 -8.66699 -29.166 -19.667 -47.499 -33l-66.5 -49l-11 -8
c-11.333 -8 -23.666 -17.333 -36.999 -28l-41 -33.5l-41.5 -35c-13.667 -11.667 -25.834 -22.834 -36.501 -33.501c14 0 29 -0.166992 45 -0.5s30.833 -0.833008 44.5 -1.5s25.334 -1.33398 35.001 -2.00098s15.5 -1.33398 17.5 -2.00098l1 -1c2 0 3 -6 3 -18
c0 -5.33301 -0.333008 -8.66602 -1 -9.99902s-2 -2 -4 -2h-1h-10c-24.667 0 -48.834 2 -72.501 6s-48.167 8.66699 -73.5 14c-12 -13.333 -23 -27.833 -33 -43.5s-15 -32.167 -15 -49.5c0 -3.33301 0.833008 -8.16602 2.5 -14.499s6.16699 -12.5 13.5 -18.5
s18 -11.333 32 -16s33.667 -7 59 -7c14.667 0 29.5 1.66699 44.5 5s28.667 7.33301 41 12s23.333 9.33398 33 14.001l22.5 11c0 -0.666992 3.16699 -2.33398 9.5 -5.00098s9.5 -7 9.5 -13c0 -2 -1.16699 -3.83301 -3.5 -5.5l-6.5 -4.5c-17.333 -12.667 -38 -22 -62 -28
s-48.5 -8.5 -73.5 -7.5s-48.833 5.16699 -71.5 12.5s-40.667 18 -54 32zM396.998 438.006c-0.666992 0.666992 -1.00098 1.66309 -1.00098 2.99609c0 2 1.33301 3.33301 4 4c8.66699 -1.33301 17 -0.166016 25 3.50098s15.167 7.83398 21.5 12.501l16 12
c4.33301 3.33301 7.5 4 9.5 2c1.33301 -1.33301 4.5 -4.16602 9.5 -8.49902s7.5 -9.16602 7.5 -14.499c0 -6.66699 -4 -11.5 -12 -14.5s-17.167 -5 -27.5 -6s-20.666 -0.833008 -30.999 0.5s-17.5 3.33301 -21.5 6z" />
    <glyph glyph-name="Ecircumflex" unicode="&#xca;" horiz-adv-x="286" 
d="M27 -17c-10.667 9.33301 -16.002 22.3389 -16.002 39.0059c0 19.333 5 37.166 15 53.499s19 29.833 27 40.5c-5.33301 1.33301 -9 2.16602 -11 2.49902s-3 1.83301 -3 4.5c0 0.666992 0.666992 1.66699 2 3h20c22 26.667 47.5 53.5 76.5 80.5s59.667 53.167 92 78.5
s65 49.166 98 71.499s64.5 42.166 94.5 59.499l1 1h5c2 0 4.66699 -0.166992 8 -0.5s6.5 -1.16602 9.5 -2.49902s5.5 -3 7.5 -5s2.33301 -4.33301 1 -7l-18 -25l-32.5 -46l-32.5 -47.5c-10 -15 -15.667 -24.833 -17 -29.5h-1c0 -0.666992 -0.666992 -1 -2 -1h-8
c-5.33301 0 -9.83301 0.333008 -13.5 1s-5.5 3 -5.5 7v1c0 2 0.333008 4.33301 1 7c1.33301 5.33301 3 9 5 11l1 1c2.66699 7.33301 8.33398 17.166 17.001 29.499s19.667 25.166 33 38.499l-5 -3c-13.333 -8.66699 -29.166 -19.667 -47.499 -33l-66.5 -49l-11 -8
c-11.333 -8 -23.666 -17.333 -36.999 -28l-41 -33.5l-41.5 -35c-13.667 -11.667 -25.834 -22.834 -36.501 -33.501c14 0 29 -0.166992 45 -0.5s30.833 -0.833008 44.5 -1.5s25.334 -1.33398 35.001 -2.00098s15.5 -1.33398 17.5 -2.00098l1 -1c2 0 3 -6 3 -18
c0 -5.33301 -0.333008 -8.66602 -1 -9.99902s-2 -2 -4 -2h-1h-10c-24.667 0 -48.834 2 -72.501 6s-48.167 8.66699 -73.5 14c-12 -13.333 -23 -27.833 -33 -43.5s-15 -32.167 -15 -49.5c0 -3.33301 0.833008 -8.16602 2.5 -14.499s6.16699 -12.5 13.5 -18.5
s18 -11.333 32 -16s33.667 -7 59 -7c14.667 0 29.5 1.66699 44.5 5s28.667 7.33301 41 12s23.333 9.33398 33 14.001l22.5 11c0 -0.666992 3.16699 -2.33398 9.5 -5.00098s9.5 -7 9.5 -13c0 -2 -1.16699 -3.83301 -3.5 -5.5l-6.5 -4.5c-17.333 -12.667 -38 -22 -62 -28
s-48.5 -8.5 -73.5 -7.5s-48.833 5.16699 -71.5 12.5s-40.667 18 -54 32zM362.998 437.006l-1.99902 3.99805c0 1.33301 0.5 2 1.5 2s1.83301 0.333008 2.5 1c19.333 4.66699 32.833 8.83398 40.5 12.501s14.167 7.5 19.5 11.5c8.66699 5.33301 13.667 8 15 8
c2 0 6 -1.83301 12 -5.5s15.333 -10.5 28 -20.5c14.667 -11.333 24.5 -18 29.5 -20s7.5 -4.33301 7.5 -7s-1.66699 -4 -5 -4c-9.33301 0 -21.333 1.66699 -36 5s-27 8 -37 14c-4 -2 -9.33301 -3.66699 -16 -5s-13.834 -2.16602 -21.501 -2.49902s-15 0 -22 1
s-12.5 2.83301 -16.5 5.5z" />
    <glyph glyph-name="Edieresis" unicode="&#xcb;" horiz-adv-x="286" 
d="M27 -17c-10.667 9.33301 -16.002 22.3389 -16.002 39.0059c0 19.333 5 37.166 15 53.499s19 29.833 27 40.5c-5.33301 1.33301 -9 2.16602 -11 2.49902s-3 1.83301 -3 4.5c0 0.666992 0.666992 1.66699 2 3h20c22 26.667 47.5 53.5 76.5 80.5s59.667 53.167 92 78.5
s65 49.166 98 71.499s64.5 42.166 94.5 59.499l1 1h5c2 0 4.66699 -0.166992 8 -0.5s6.5 -1.16602 9.5 -2.49902s5.5 -3 7.5 -5s2.33301 -4.33301 1 -7l-18 -25l-32.5 -46l-32.5 -47.5c-10 -15 -15.667 -24.833 -17 -29.5h-1c0 -0.666992 -0.666992 -1 -2 -1h-8
c-5.33301 0 -9.83301 0.333008 -13.5 1s-5.5 3 -5.5 7v1c0 2 0.333008 4.33301 1 7c1.33301 5.33301 3 9 5 11l1 1c2.66699 7.33301 8.33398 17.166 17.001 29.499s19.667 25.166 33 38.499l-5 -3c-13.333 -8.66699 -29.166 -19.667 -47.499 -33l-66.5 -49l-11 -8
c-11.333 -8 -23.666 -17.333 -36.999 -28l-41 -33.5l-41.5 -35c-13.667 -11.667 -25.834 -22.834 -36.501 -33.501c14 0 29 -0.166992 45 -0.5s30.833 -0.833008 44.5 -1.5s25.334 -1.33398 35.001 -2.00098s15.5 -1.33398 17.5 -2.00098l1 -1c2 0 3 -6 3 -18
c0 -5.33301 -0.333008 -8.66602 -1 -9.99902s-2 -2 -4 -2h-1h-10c-24.667 0 -48.834 2 -72.501 6s-48.167 8.66699 -73.5 14c-12 -13.333 -23 -27.833 -33 -43.5s-15 -32.167 -15 -49.5c0 -3.33301 0.833008 -8.16602 2.5 -14.499s6.16699 -12.5 13.5 -18.5
s18 -11.333 32 -16s33.667 -7 59 -7c14.667 0 29.5 1.66699 44.5 5s28.667 7.33301 41 12s23.333 9.33398 33 14.001l22.5 11c0 -0.666992 3.16699 -2.33398 9.5 -5.00098s9.5 -7 9.5 -13c0 -2 -1.16699 -3.83301 -3.5 -5.5l-6.5 -4.5c-17.333 -12.667 -38 -22 -62 -28
s-48.5 -8.5 -73.5 -7.5s-48.833 5.16699 -71.5 12.5s-40.667 18 -54 32zM402.998 472.006c3.33301 0 8.33203 -1.66895 14.999 -5.00195s10.667 -6.66602 12 -9.99902c0 -10 -4.33301 -18 -13 -24l-11 -8c-4 6.66699 -7.16699 12.834 -9.5 18.501
s-2.16602 12.167 0.500977 19.5c3.33301 6 5.33301 9 6 9zM462.997 472.004c3.33301 0 8.33203 -1.66895 14.999 -5.00195s10.667 -6.66602 12 -9.99902c0 -10 -4.33301 -18 -13 -24l-11 -8c-4 6.66699 -7.16699 12.834 -9.5 18.501s-2.16602 12.167 0.500977 19.5
c3.33301 6 5.33301 9 6 9z" />
    <glyph glyph-name="Igrave" unicode="&#xcc;" horiz-adv-x="93" 
d="M28 -51c-12.667 4.66699 -18.998 13.335 -18.998 26.002c1.33301 16.667 11.666 42 30.999 76c8 14.667 18.5 31.834 31.5 51.501l42 61l45.5 63l42.5 56.5l32.5 41.5c8.66699 11 14 17.5 16 19.5l1 1h6c2 0 6.16699 -0.833008 12.5 -2.5s9.5 -4.5 9.5 -8.5
c0 -2.66699 -1 -5.33398 -3 -8.00098l-1 -1l-44 -57l-54.5 -69l-56.5 -72.5l-50.5 -68c-15 -21 -27.167 -39.333 -36.5 -55s-14 -26.834 -14 -33.501c0 -3.33301 1.16699 -6.33301 3.5 -9s4.5 -4.33398 6.5 -5.00098c1.33301 0 2.66602 -0.666992 3.99902 -2
c0.666992 -0.666992 1 -1.33398 1 -2.00098c0 -1.33301 -0.666992 -2.16602 -2 -2.49902s-2.33301 -0.5 -3 -0.5h-1zM345.002 381.001c-4 -2.66699 -11.168 -4.66309 -21.501 -5.99609s-20.666 -1.5 -30.999 -0.5s-19.5 3 -27.5 6s-12 7.83301 -12 14.5
c0 5.33301 2.5 10.166 7.5 14.499s8.16699 7.16602 9.5 8.49902c2 2 5.16699 1.33301 9.5 -2l16 -12c6.33301 -4.66699 13.5 -8.83398 21.5 -12.501s16.333 -4.83398 25 -3.50098c2.66699 -0.666992 4 -2 4 -4c0 -1.33301 -0.333008 -2.33301 -1 -3z" />
    <glyph glyph-name="Iacute" unicode="&#xcd;" horiz-adv-x="93" 
d="M28 -51c-12.667 4.66699 -18.998 13.335 -18.998 26.002c1.33301 16.667 11.666 42 30.999 76c8 14.667 18.5 31.834 31.5 51.501l42 61l45.5 63l42.5 56.5l32.5 41.5c8.66699 11 14 17.5 16 19.5l1 1h6c2 0 6.16699 -0.833008 12.5 -2.5s9.5 -4.5 9.5 -8.5
c0 -2.66699 -1 -5.33398 -3 -8.00098l-1 -1l-44 -57l-54.5 -69l-56.5 -72.5l-50.5 -68c-15 -21 -27.167 -39.333 -36.5 -55s-14 -26.834 -14 -33.501c0 -3.33301 1.16699 -6.33301 3.5 -9s4.5 -4.33398 6.5 -5.00098c1.33301 0 2.66602 -0.666992 3.99902 -2
c0.666992 -0.666992 1 -1.33398 1 -2.00098c0 -1.33301 -0.666992 -2.16602 -2 -2.49902s-2.33301 -0.5 -3 -0.5h-1zM248.002 375.001c-0.666992 0.666992 -1.00098 1.66309 -1.00098 2.99609c0 2 1.33301 3.33301 4 4c8.66699 -1.33301 17 -0.166016 25 3.50098
s15.167 7.83398 21.5 12.501l16 12c4.33301 3.33301 7.5 4 9.5 2c1.33301 -1.33301 4.5 -4.16602 9.5 -8.49902s7.5 -9.16602 7.5 -14.499c0 -6.66699 -4 -11.5 -12 -14.5s-17.167 -5 -27.5 -6s-20.666 -0.833008 -30.999 0.5s-17.5 3.33301 -21.5 6z" />
    <glyph glyph-name="Icircumflex" unicode="&#xce;" horiz-adv-x="93" 
d="M28 -51c-12.667 4.66699 -18.998 13.335 -18.998 26.002c1.33301 16.667 11.666 42 30.999 76c8 14.667 18.5 31.834 31.5 51.501l42 61l45.5 63l42.5 56.5l32.5 41.5c8.66699 11 14 17.5 16 19.5l1 1h6c2 0 6.16699 -0.833008 12.5 -2.5s9.5 -4.5 9.5 -8.5
c0 -2.66699 -1 -5.33398 -3 -8.00098l-1 -1l-44 -57l-54.5 -69l-56.5 -72.5l-50.5 -68c-15 -21 -27.167 -39.333 -36.5 -55s-14 -26.834 -14 -33.501c0 -3.33301 1.16699 -6.33301 3.5 -9s4.5 -4.33398 6.5 -5.00098c1.33301 0 2.66602 -0.666992 3.99902 -2
c0.666992 -0.666992 1 -1.33398 1 -2.00098c0 -1.33301 -0.666992 -2.16602 -2 -2.49902s-2.33301 -0.5 -3 -0.5h-1zM213.002 375.001l-1.99902 3.99805c0 1.33301 0.5 2 1.5 2s1.83301 0.333008 2.5 1c19.333 4.66699 32.833 8.83398 40.5 12.501s14.167 7.5 19.5 11.5
c8.66699 5.33301 13.667 8 15 8c2 0 6 -1.83301 12 -5.5s15.333 -10.5 28 -20.5c14.667 -11.333 24.5 -18 29.5 -20s7.5 -4.33301 7.5 -7s-1.66699 -4 -5 -4c-9.33301 0 -21.333 1.66699 -36 5s-27 8 -37 14c-4 -2 -9.33301 -3.66699 -16 -5
s-13.834 -2.16602 -21.501 -2.49902s-15 0 -22 1s-12.5 2.83301 -16.5 5.5z" />
    <glyph glyph-name="Idieresis" unicode="&#xcf;" horiz-adv-x="93" 
d="M28 -51c-12.667 4.66699 -18.998 13.335 -18.998 26.002c1.33301 16.667 11.666 42 30.999 76c8 14.667 18.5 31.834 31.5 51.501l42 61l45.5 63l42.5 56.5l32.5 41.5c8.66699 11 14 17.5 16 19.5l1 1h6c2 0 6.16699 -0.833008 12.5 -2.5s9.5 -4.5 9.5 -8.5
c0 -2.66699 -1 -5.33398 -3 -8.00098l-1 -1l-44 -57l-54.5 -69l-56.5 -72.5l-50.5 -68c-15 -21 -27.167 -39.333 -36.5 -55s-14 -26.834 -14 -33.501c0 -3.33301 1.16699 -6.33301 3.5 -9s4.5 -4.33398 6.5 -5.00098c1.33301 0 2.66602 -0.666992 3.99902 -2
c0.666992 -0.666992 1 -1.33398 1 -2.00098c0 -1.33301 -0.666992 -2.16602 -2 -2.49902s-2.33301 -0.5 -3 -0.5h-1zM244.002 407.001c3.33301 0 8.33203 -1.66895 14.999 -5.00195s10.667 -6.66602 12 -9.99902c0 -10 -4.33301 -18 -13 -24l-11 -8
c-4 6.66699 -7.16699 12.834 -9.5 18.501s-2.16602 12.167 0.500977 19.5c3.33301 6 5.33301 9 6 9zM304.001 406.999c3.33301 0 8.33203 -1.66895 14.999 -5.00195s10.667 -6.66602 12 -9.99902c0 -10 -4.33301 -18 -13 -24l-11 -8c-4 6.66699 -7.16699 12.834 -9.5 18.501
s-2.16602 12.167 0.500977 19.5c3.33301 6 5.33301 9 6 9z" />
    <glyph glyph-name="Eth" unicode="&#xd0;" horiz-adv-x="542" 
d="M18 12c-0.666992 0.666992 -1.33691 2.00781 -2.00391 4.00781c-1.33301 4 -2 7.66699 -2 11c0 2.66699 0.5 6 1.5 10s3.16699 6 6.5 6c2.66699 0 5.66699 -1 9 -3l2 -1l18 -8l53 -24.5c18.667 -9 37.334 -14.167 56.001 -15.5l12 20l22 36l29.5 47.5l34.5 55.5
c-13.333 1.33301 -27.5 3.16602 -42.5 5.49902s-30.833 5.16602 -47.5 8.49902c-2 0 -3.33301 1 -4 3c0 1.33301 0.666992 2.66602 2 3.99902c18 0 36 0.166992 54 0.5s35.333 0.833008 52 1.5l38.5 60.5l37.5 58l33.5 51l26.5 39.5c-4 0 -7.83301 0.166992 -11.5 0.5
s-7.5 0.5 -11.5 0.5c-26.667 0 -49.834 -1.83301 -69.501 -5.5s-36.334 -7.83398 -50.001 -12.501s-24.167 -9 -31.5 -13s-11.666 -6.33301 -12.999 -7l-1 -1h-13c-3.33301 0 -7.66602 0.5 -12.999 1.5s-8 3.5 -8 7.5c0 2.66699 1 5 3 7
c-0.666992 -0.666992 2.83301 1.83301 10.5 7.5s19.834 12.167 36.501 19.5s38 14 64 20s57 9 93 9s66.333 -4.16699 91 -12.5s44.5 -19.5 59.5 -33.5s25.667 -30.667 32 -50s9.5 -40 9.5 -62c0 -42.667 -9 -83.167 -27 -121.5s-42.667 -71.833 -74 -100.5
s-67.833 -51 -109.5 -67s-85.834 -22.667 -132.501 -20c-17.333 1.33301 -33.166 2.66602 -47.499 3.99902s-28.166 3.33301 -41.499 6c-1.33301 -1.33301 -2 -2.33301 -2 -3s-0.333008 -1.33398 -1 -2.00098s-1 -1.33398 -1 -2.00098l-1 -2c-0.666992 -2.66699 -2 -4 -4 -4
l-2 1c0 0.666992 -0.166992 1 -0.5 1s-0.5 0.333008 -0.5 1c0 1.33301 0.333008 2.83301 1 4.5l3 7.5c-3.33301 0.666992 -7 1.66699 -11 3l-17 5.5c-7.33301 2.33301 -16.666 5.66602 -27.999 9.99902s-26.333 10.5 -45 18.5c-7.33301 3.33301 -13 6.33301 -17 9
s-6.66699 4 -8 4h-1v1zM401.997 171.008c1.33301 -6.66699 0.334961 -12.002 -2.99805 -16.002c-2 -2.66699 -4 -4.66699 -6 -6c2.66699 1.33301 -5.33301 1 -24 -1s-46 -2 -82 0l-62 -86.5l-53 -73.5c22.667 -6.66699 46 -10.167 70 -10.5s47 1.33398 69 5.00098
s42 8.33398 60 14.001s32.333 11.167 43 16.5c20 12.667 38.333 27.667 55 45s31.334 36.166 44.001 56.499s22.667 41.666 30 63.999s11.666 44.833 12.999 67.5c0 38.667 -8.5 67.834 -25.5 87.501s-45.5 34.834 -85.5 45.501
c-0.666992 -2 -4.83398 -9.16699 -12.501 -21.5s-18 -27.833 -31 -46.5l-44.5 -63.5l-52 -73.5c23.333 1.33301 42.666 2.5 57.999 3.5s25 1.83301 29 2.5h6.5c1 0 2.16699 -3 3.5 -9z" />
    <glyph glyph-name="Ntilde" unicode="&#xd1;" horiz-adv-x="372" 
d="M1 -53c-0.666992 0.666992 -0.998047 2.3252 -0.998047 4.99219c0.666992 0.666992 1.66699 2.66699 3 6v1c1.33301 2.66699 2 4.33398 2 5.00098l1 1c3.33301 7.33301 12.833 24 28.5 50l57 91.5l72.5 112l76 111.5c-20 -10 -39.167 -18.5 -57.5 -25.5
s-34.833 -10.5 -49.5 -10.5h-6c-2.66699 0 -4.66699 0.333008 -6 1c-0.666992 0.666992 -1.5 2.33398 -2.5 5.00098s-1.5 6.66699 -1.5 12c0 6.66699 0.666992 10.667 2 12s3 2 5 2h1c22 0 44.167 4.16699 66.5 12.5s45.166 19.166 68.499 32.499
c2.66699 1.33301 5.83398 4 9.50098 8l10.5 12l9 11l4 5l1 1c0.666992 0 1.66699 0.333008 3 1c1.33301 0 2.66602 0.166992 3.99902 0.5s2.66602 0.5 3.99902 0.5c3.33301 0 7.5 -0.833008 12.5 -2.5s7.16699 -4.16699 6.5 -7.5c0 -2.66699 -1.83301 -7 -5.5 -13
l-12.5 -19.5l-14.5 -21l-12.5 -17.5l17 11c7.33301 4.66699 16 9.33398 26 14.001s21.167 8.66699 33.5 12s25.5 5 39.5 5c20 0 34.667 -6 44 -18s14 -25.667 14 -41c0 -17.333 -3.5 -35.666 -10.5 -54.999s-15.667 -38.5 -26 -57.5s-21.5 -37.167 -33.5 -54.5
s-23.333 -32.666 -34 -45.999c-1.33301 -1.33301 -6.33301 -7.83301 -15 -19.5s-16.667 -24 -24 -37s-11.333 -24.833 -12 -35.5s6.66602 -16 21.999 -16c8.66699 0 16.667 1.5 24 4.5s13 5.5 17 7.5c11.333 5.33301 17.666 8 18.999 8s2.33301 -0.833008 3 -2.5
s0 -2.83398 -2 -3.50098c-9.33301 -6 -19.5 -11.833 -30.5 -17.5s-22.833 -8.5 -35.5 -8.5c-5.33301 0 -11.333 1.83301 -18 5.5s-11.667 10.167 -15 19.5c-0.666992 2.66699 -1 6 -1 10c0 8.66699 3.16699 19.334 9.5 32.001s14 25.834 23 39.501l27.5 40.5
c9.33301 13.333 17 25 23 35l19.5 35.5c7 13 13.333 26 19 39s10.334 25.833 14.001 38.5s5.5 24.334 5.5 35.001c0 11.333 -2.16699 19 -6.5 23s-12.166 6 -23.499 6c-12 -1.33301 -25.667 -5 -41 -11s-32 -13.667 -50 -23c-16 -10 -29.333 -19.167 -40 -27.5
s-19.334 -15.666 -26.001 -21.999s-11.5 -11.333 -14.5 -15s-4.83301 -5.5 -5.5 -5.5v-1l-47.5 -61l-51.5 -69l-23 -31c-15.333 -20 -28 -37.167 -38 -51.5l-24.5 -35.5c-6.33301 -9.33301 -11.166 -16.666 -14.499 -21.999s-6 -9 -8 -11h-1v-2h-1
c-0.666992 -2.66699 -1.66699 -4 -3 -4h-1zM372.002 422.991c-5.33301 6.66699 -9.33203 11.501 -11.999 14.501s-4.33398 8.5 -5.00098 16.5c-2 11.333 1.66699 18 11 20c6 -1.33301 9.33301 -2.33301 10 -3c8.66699 -2.66699 17.667 -7.33398 27 -14.001
s17.666 -13 24.999 -19c9.33301 -6.66699 15.5 -11.5 18.5 -14.5s6.16699 -5.16699 9.5 -6.5c0.666992 0.666992 1 2 1 4c-0.666992 10 -0.5 15.167 0.5 15.5s3.16699 2.16602 6.5 5.49902c1.33301 1.33301 2.5 1 3.5 -1s1.83301 -4.5 2.5 -7.5s1.16699 -6 1.5 -9
s0.5 -5.5 0.5 -7.5s-1.33301 -5 -4 -9s-6 -6.33301 -10 -7c-1.33301 0 -4.66602 1.33301 -9.99902 4l-19 9.5c-7.33301 3.66699 -14.833 7.66699 -22.5 12s-14.167 8.16602 -19.5 11.499c-2.66699 0 -4.16699 -1.16699 -4.5 -3.5s-0.5 -4.66602 -0.5 -6.99902
s-0.5 -4.16602 -1.5 -5.49902s-3.83301 -1 -8.5 1z" />
    <glyph glyph-name="Ograve" unicode="&#xd2;" horiz-adv-x="330" 
d="M317 -41c-16 0 -33.1689 3.49805 -51.502 10.498s-34.5 15.167 -48.5 24.5l-33 -15.5c-12 -5.66699 -24.667 -10.5 -38 -14.5s-27.333 -6.66699 -42 -8s-29.334 0.333984 -44.001 5.00098c-13.333 4.66699 -25 13.334 -35 26.001s-15 27.667 -15 45c0 18 5 38.5 15 61.5
s23.333 46.667 40 71s35.834 48.333 57.501 72s44.167 45.334 67.5 65.001s47 36.5 71 50.5s46.333 23 67 27h-1h-2c-5.33301 4 -9.66602 6.66699 -12.999 8s-5.66602 4.66602 -6.99902 9.99902c0 3.33301 2 6 6 8s11.667 3 23 3c30 0 54.667 -7.16699 74 -21.5
s29 -38.833 29 -73.5c0 -21.333 -5 -46 -15 -74s-23.5 -56.167 -40.5 -84.5s-37 -55 -60 -80s-47.5 -45.5 -73.5 -61.5c13.333 -7.33301 25.666 -12.5 36.999 -15.5s21.333 -5.16699 30 -6.5c0.666992 -0.666992 2.33398 -3 5.00098 -7s4 -9 4 -15
c0 -4.66699 -0.833008 -7.5 -2.5 -8.5s-3.16699 -1.5 -4.5 -1.5zM88.998 -31.002c18 -2 37.502 1.00293 58.502 9.00293s39.833 16.667 56.5 26c-28 26 -42 57.333 -42 94c0.666992 18 3.66699 35.167 9 51.5s11.5 31.666 18.5 45.999s14.667 27.5 23 39.5
s16.166 22.333 23.499 31c13.333 16 27.666 30.667 42.999 44s30.333 24.666 45 33.999c-46.667 -20.667 -88 -45.667 -124 -75s-66.5 -59 -91.5 -89s-44.167 -58.333 -57.5 -85s-20.333 -47.334 -21 -62.001c0 -16 4.66699 -30 14 -42s24.333 -19.333 45 -22zM233 23.001
c23.333 16.667 45.499 37.332 66.499 61.999s39.5 50.334 55.5 77.001s28.833 53.167 38.5 79.5s14.5 50.166 14.5 71.499c0 44.667 -22.333 67 -67 67c9.33301 -4.66699 15 -11.667 17 -21c0 -4 -1.83301 -7.16699 -5.5 -9.5s-7.16699 -4.16602 -10.5 -5.49902
c-1.33301 -1.33301 -9 -6.83301 -23 -16.5s-29.333 -24.834 -46 -45.501c-25.333 -32 -44.833 -63.667 -58.5 -95s-20.5 -59.666 -20.5 -84.999c0 -19.333 3.83301 -35.5 11.5 -48.5s16.834 -23.167 27.501 -30.5zM444.999 427.999
c-4 -2.66699 -11.168 -4.66309 -21.501 -5.99609s-20.666 -1.5 -30.999 -0.5s-19.5 3 -27.5 6s-12 7.83301 -12 14.5c0 5.33301 2.5 10.166 7.5 14.499s8.16699 7.16602 9.5 8.49902c2 2 5.16699 1.33301 9.5 -2l16 -12c6.33301 -4.66699 13.5 -8.83398 21.5 -12.501
s16.333 -4.83398 25 -3.50098c2.66699 -0.666992 4 -2 4 -4c0 -1.33301 -0.333008 -2.33301 -1 -3z" />
    <glyph glyph-name="Oacute" unicode="&#xd3;" horiz-adv-x="330" 
d="M317 -41c-16 0 -33.1689 3.49805 -51.502 10.498s-34.5 15.167 -48.5 24.5l-33 -15.5c-12 -5.66699 -24.667 -10.5 -38 -14.5s-27.333 -6.66699 -42 -8s-29.334 0.333984 -44.001 5.00098c-13.333 4.66699 -25 13.334 -35 26.001s-15 27.667 -15 45c0 18 5 38.5 15 61.5
s23.333 46.667 40 71s35.834 48.333 57.501 72s44.167 45.334 67.5 65.001s47 36.5 71 50.5s46.333 23 67 27h-1h-2c-5.33301 4 -9.66602 6.66699 -12.999 8s-5.66602 4.66602 -6.99902 9.99902c0 3.33301 2 6 6 8s11.667 3 23 3c30 0 54.667 -7.16699 74 -21.5
s29 -38.833 29 -73.5c0 -21.333 -5 -46 -15 -74s-23.5 -56.167 -40.5 -84.5s-37 -55 -60 -80s-47.5 -45.5 -73.5 -61.5c13.333 -7.33301 25.666 -12.5 36.999 -15.5s21.333 -5.16699 30 -6.5c0.666992 -0.666992 2.33398 -3 5.00098 -7s4 -9 4 -15
c0 -4.66699 -0.833008 -7.5 -2.5 -8.5s-3.16699 -1.5 -4.5 -1.5zM88.998 -31.002c18 -2 37.502 1.00293 58.502 9.00293s39.833 16.667 56.5 26c-28 26 -42 57.333 -42 94c0.666992 18 3.66699 35.167 9 51.5s11.5 31.666 18.5 45.999s14.667 27.5 23 39.5
s16.166 22.333 23.499 31c13.333 16 27.666 30.667 42.999 44s30.333 24.666 45 33.999c-46.667 -20.667 -88 -45.667 -124 -75s-66.5 -59 -91.5 -89s-44.167 -58.333 -57.5 -85s-20.333 -47.334 -21 -62.001c0 -16 4.66699 -30 14 -42s24.333 -19.333 45 -22zM233 23.001
c23.333 16.667 45.499 37.332 66.499 61.999s39.5 50.334 55.5 77.001s28.833 53.167 38.5 79.5s14.5 50.166 14.5 71.499c0 44.667 -22.333 67 -67 67c9.33301 -4.66699 15 -11.667 17 -21c0 -4 -1.83301 -7.16699 -5.5 -9.5s-7.16699 -4.16602 -10.5 -5.49902
c-1.33301 -1.33301 -9 -6.83301 -23 -16.5s-29.333 -24.834 -46 -45.501c-25.333 -32 -44.833 -63.667 -58.5 -95s-20.5 -59.666 -20.5 -84.999c0 -19.333 3.83301 -35.5 11.5 -48.5s16.834 -23.167 27.501 -30.5zM357.999 433.999
c-0.666992 0.666992 -1.00098 1.66309 -1.00098 2.99609c0 2 1.33301 3.33301 4 4c8.66699 -1.33301 17 -0.166016 25 3.50098s15.167 7.83398 21.5 12.501l16 12c4.33301 3.33301 7.5 4 9.5 2c1.33301 -1.33301 4.5 -4.16602 9.5 -8.49902s7.5 -9.16602 7.5 -14.499
c0 -6.66699 -4 -11.5 -12 -14.5s-17.167 -5 -27.5 -6s-20.666 -0.833008 -30.999 0.5s-17.5 3.33301 -21.5 6z" />
    <glyph glyph-name="Ocircumflex" unicode="&#xd4;" horiz-adv-x="330" 
d="M317 -41c-16 0 -33.1689 3.49805 -51.502 10.498s-34.5 15.167 -48.5 24.5l-33 -15.5c-12 -5.66699 -24.667 -10.5 -38 -14.5s-27.333 -6.66699 -42 -8s-29.334 0.333984 -44.001 5.00098c-13.333 4.66699 -25 13.334 -35 26.001s-15 27.667 -15 45c0 18 5 38.5 15 61.5
s23.333 46.667 40 71s35.834 48.333 57.501 72s44.167 45.334 67.5 65.001s47 36.5 71 50.5s46.333 23 67 27h-1h-2c-5.33301 4 -9.66602 6.66699 -12.999 8s-5.66602 4.66602 -6.99902 9.99902c0 3.33301 2 6 6 8s11.667 3 23 3c30 0 54.667 -7.16699 74 -21.5
s29 -38.833 29 -73.5c0 -21.333 -5 -46 -15 -74s-23.5 -56.167 -40.5 -84.5s-37 -55 -60 -80s-47.5 -45.5 -73.5 -61.5c13.333 -7.33301 25.666 -12.5 36.999 -15.5s21.333 -5.16699 30 -6.5c0.666992 -0.666992 2.33398 -3 5.00098 -7s4 -9 4 -15
c0 -4.66699 -0.833008 -7.5 -2.5 -8.5s-3.16699 -1.5 -4.5 -1.5zM88.998 -31.002c18 -2 37.502 1.00293 58.502 9.00293s39.833 16.667 56.5 26c-28 26 -42 57.333 -42 94c0.666992 18 3.66699 35.167 9 51.5s11.5 31.666 18.5 45.999s14.667 27.5 23 39.5
s16.166 22.333 23.499 31c13.333 16 27.666 30.667 42.999 44s30.333 24.666 45 33.999c-46.667 -20.667 -88 -45.667 -124 -75s-66.5 -59 -91.5 -89s-44.167 -58.333 -57.5 -85s-20.333 -47.334 -21 -62.001c0 -16 4.66699 -30 14 -42s24.333 -19.333 45 -22zM233 23.001
c23.333 16.667 45.499 37.332 66.499 61.999s39.5 50.334 55.5 77.001s28.833 53.167 38.5 79.5s14.5 50.166 14.5 71.499c0 44.667 -22.333 67 -67 67c9.33301 -4.66699 15 -11.667 17 -21c0 -4 -1.83301 -7.16699 -5.5 -9.5s-7.16699 -4.16602 -10.5 -5.49902
c-1.33301 -1.33301 -9 -6.83301 -23 -16.5s-29.333 -24.834 -46 -45.501c-25.333 -32 -44.833 -63.667 -58.5 -95s-20.5 -59.666 -20.5 -84.999c0 -19.333 3.83301 -35.5 11.5 -48.5s16.834 -23.167 27.501 -30.5zM328.999 439.999l-1.99902 3.99805c0 1.33301 0.5 2 1.5 2
s1.83301 0.333008 2.5 1c19.333 4.66699 32.833 8.83398 40.5 12.501s14.167 7.5 19.5 11.5c8.66699 5.33301 13.667 8 15 8c2 0 6 -1.83301 12 -5.5s15.333 -10.5 28 -20.5c14.667 -11.333 24.5 -18 29.5 -20s7.5 -4.33301 7.5 -7s-1.66699 -4 -5 -4
c-9.33301 0 -21.333 1.66699 -36 5s-27 8 -37 14c-4 -2 -9.33301 -3.66699 -16 -5s-13.834 -2.16602 -21.501 -2.49902s-15 0 -22 1s-12.5 2.83301 -16.5 5.5z" />
    <glyph glyph-name="Otilde" unicode="&#xd5;" horiz-adv-x="330" 
d="M317 -41c-16 0 -33.1689 3.49805 -51.502 10.498s-34.5 15.167 -48.5 24.5l-33 -15.5c-12 -5.66699 -24.667 -10.5 -38 -14.5s-27.333 -6.66699 -42 -8s-29.334 0.333984 -44.001 5.00098c-13.333 4.66699 -25 13.334 -35 26.001s-15 27.667 -15 45c0 18 5 38.5 15 61.5
s23.333 46.667 40 71s35.834 48.333 57.501 72s44.167 45.334 67.5 65.001s47 36.5 71 50.5s46.333 23 67 27h-1h-2c-5.33301 4 -9.66602 6.66699 -12.999 8s-5.66602 4.66602 -6.99902 9.99902c0 3.33301 2 6 6 8s11.667 3 23 3c30 0 54.667 -7.16699 74 -21.5
s29 -38.833 29 -73.5c0 -21.333 -5 -46 -15 -74s-23.5 -56.167 -40.5 -84.5s-37 -55 -60 -80s-47.5 -45.5 -73.5 -61.5c13.333 -7.33301 25.666 -12.5 36.999 -15.5s21.333 -5.16699 30 -6.5c0.666992 -0.666992 2.33398 -3 5.00098 -7s4 -9 4 -15
c0 -4.66699 -0.833008 -7.5 -2.5 -8.5s-3.16699 -1.5 -4.5 -1.5zM88.998 -31.002c18 -2 37.502 1.00293 58.502 9.00293s39.833 16.667 56.5 26c-28 26 -42 57.333 -42 94c0.666992 18 3.66699 35.167 9 51.5s11.5 31.666 18.5 45.999s14.667 27.5 23 39.5
s16.166 22.333 23.499 31c13.333 16 27.666 30.667 42.999 44s30.333 24.666 45 33.999c-46.667 -20.667 -88 -45.667 -124 -75s-66.5 -59 -91.5 -89s-44.167 -58.333 -57.5 -85s-20.333 -47.334 -21 -62.001c0 -16 4.66699 -30 14 -42s24.333 -19.333 45 -22zM233 23.001
c23.333 16.667 45.499 37.332 66.499 61.999s39.5 50.334 55.5 77.001s28.833 53.167 38.5 79.5s14.5 50.166 14.5 71.499c0 44.667 -22.333 67 -67 67c9.33301 -4.66699 15 -11.667 17 -21c0 -4 -1.83301 -7.16699 -5.5 -9.5s-7.16699 -4.16602 -10.5 -5.49902
c-1.33301 -1.33301 -9 -6.83301 -23 -16.5s-29.333 -24.834 -46 -45.501c-25.333 -32 -44.833 -63.667 -58.5 -95s-20.5 -59.666 -20.5 -84.999c0 -19.333 3.83301 -35.5 11.5 -48.5s16.834 -23.167 27.501 -30.5zM367.999 431.999
c-5.33301 6.66699 -9.33203 11.501 -11.999 14.501s-4.33398 8.5 -5.00098 16.5c-2 11.333 1.66699 18 11 20c6 -1.33301 9.33301 -2.33301 10 -3c8.66699 -2.66699 17.667 -7.33398 27 -14.001s17.666 -13 24.999 -19c9.33301 -6.66699 15.5 -11.5 18.5 -14.5
s6.16699 -5.16699 9.5 -6.5c0.666992 0.666992 1 2 1 4c-0.666992 10 -0.5 15.167 0.5 15.5s3.16699 2.16602 6.5 5.49902c1.33301 1.33301 2.5 1 3.5 -1s1.83301 -4.5 2.5 -7.5s1.16699 -6 1.5 -9s0.5 -5.5 0.5 -7.5s-1.33301 -5 -4 -9s-6 -6.33301 -10 -7
c-1.33301 0 -4.66602 1.33301 -9.99902 4l-19 9.5c-7.33301 3.66699 -14.833 7.66699 -22.5 12s-14.167 8.16602 -19.5 11.499c-2.66699 0 -4.16699 -1.16699 -4.5 -3.5s-0.5 -4.66602 -0.5 -6.99902s-0.5 -4.16602 -1.5 -5.49902s-3.83301 -1 -8.5 1z" />
    <glyph glyph-name="Odieresis" unicode="&#xd6;" horiz-adv-x="330" 
d="M317 -41c-16 0 -33.1689 3.49805 -51.502 10.498s-34.5 15.167 -48.5 24.5l-33 -15.5c-12 -5.66699 -24.667 -10.5 -38 -14.5s-27.333 -6.66699 -42 -8s-29.334 0.333984 -44.001 5.00098c-13.333 4.66699 -25 13.334 -35 26.001s-15 27.667 -15 45c0 18 5 38.5 15 61.5
s23.333 46.667 40 71s35.834 48.333 57.501 72s44.167 45.334 67.5 65.001s47 36.5 71 50.5s46.333 23 67 27h-1h-2c-5.33301 4 -9.66602 6.66699 -12.999 8s-5.66602 4.66602 -6.99902 9.99902c0 3.33301 2 6 6 8s11.667 3 23 3c30 0 54.667 -7.16699 74 -21.5
s29 -38.833 29 -73.5c0 -21.333 -5 -46 -15 -74s-23.5 -56.167 -40.5 -84.5s-37 -55 -60 -80s-47.5 -45.5 -73.5 -61.5c13.333 -7.33301 25.666 -12.5 36.999 -15.5s21.333 -5.16699 30 -6.5c0.666992 -0.666992 2.33398 -3 5.00098 -7s4 -9 4 -15
c0 -4.66699 -0.833008 -7.5 -2.5 -8.5s-3.16699 -1.5 -4.5 -1.5zM88.998 -31.002c18 -2 37.502 1.00293 58.502 9.00293s39.833 16.667 56.5 26c-28 26 -42 57.333 -42 94c0.666992 18 3.66699 35.167 9 51.5s11.5 31.666 18.5 45.999s14.667 27.5 23 39.5
s16.166 22.333 23.499 31c13.333 16 27.666 30.667 42.999 44s30.333 24.666 45 33.999c-46.667 -20.667 -88 -45.667 -124 -75s-66.5 -59 -91.5 -89s-44.167 -58.333 -57.5 -85s-20.333 -47.334 -21 -62.001c0 -16 4.66699 -30 14 -42s24.333 -19.333 45 -22zM233 23.001
c23.333 16.667 45.499 37.332 66.499 61.999s39.5 50.334 55.5 77.001s28.833 53.167 38.5 79.5s14.5 50.166 14.5 71.499c0 44.667 -22.333 67 -67 67c9.33301 -4.66699 15 -11.667 17 -21c0 -4 -1.83301 -7.16699 -5.5 -9.5s-7.16699 -4.16602 -10.5 -5.49902
c-1.33301 -1.33301 -9 -6.83301 -23 -16.5s-29.333 -24.834 -46 -45.501c-25.333 -32 -44.833 -63.667 -58.5 -95s-20.5 -59.666 -20.5 -84.999c0 -19.333 3.83301 -35.5 11.5 -48.5s16.834 -23.167 27.501 -30.5zM367.999 468.999
c3.33301 0 8.33203 -1.66895 14.999 -5.00195s10.667 -6.66602 12 -9.99902c0 -10 -4.33301 -18 -13 -24l-11 -8c-4 6.66699 -7.16699 12.834 -9.5 18.501s-2.16602 12.167 0.500977 19.5c3.33301 6 5.33301 9 6 9zM427.998 468.997
c3.33301 0 8.33203 -1.66895 14.999 -5.00195s10.667 -6.66602 12 -9.99902c0 -10 -4.33301 -18 -13 -24l-11 -8c-4 6.66699 -7.16699 12.834 -9.5 18.501s-2.16602 12.167 0.500977 19.5c3.33301 6 5.33301 9 6 9z" />
    <glyph glyph-name="multiply" unicode="&#xd7;" horiz-adv-x="275" 
d="M113 282c4 2.66699 8.33203 3.66602 12.999 2.99902s7.66699 -1.66699 9 -3c0.666992 -2 4.33398 -9.16699 11.001 -21.5s14.334 -29.833 23.001 -52.5l32.5 36.5c8.33301 9.66699 13.5 15.834 15.5 18.501l5 5c0.666992 0.666992 3.66699 -0.666016 9 -3.99902
c4 -2.66699 6.66699 -7 8 -13c0.666992 -2.66699 1 -5.66699 1 -9c0.666992 2 -3.83301 -2.83301 -13.5 -14.5s-25.834 -28.167 -48.501 -49.5c5.33301 -14 10 -29 14 -45s8 -33.667 12 -53c0 -0.666992 0.166992 -1.33398 0.5 -2.00098s-0.166992 -1.66699 -1.5 -3
c-2 0 -3.66699 0.333008 -5 1l-37 86c-12 -10.667 -25.5 -21.667 -40.5 -33s-31.833 -23 -50.5 -35c0 -2.66699 -1.66699 -3 -5 -1c-0.666992 0.666992 -1 2 -1 4l45 46l41 43c-10 22.667 -18.833 41.5 -26.5 56.5s-12.167 24.167 -13.5 27.5s-2.33301 5.33301 -3 6
s1.33301 2.66699 6 6zM135.999 281.999h-1h1z" />
    <glyph glyph-name="Oslash" unicode="&#xd8;" horiz-adv-x="330" 
d="M317 -41c-16 0 -33.1699 3.5 -51.5029 10.5s-34.5 15.167 -48.5 24.5l-33 -15.5c-12 -5.66699 -24.667 -10.5 -38 -14.5s-27.333 -6.66699 -42 -8s-29.334 0.333984 -44.001 5.00098l-8 3l-14 -13c-4.66699 -3.33301 -7.66699 -5 -9 -5
c-4 0.666992 -5.33301 2.66699 -4 6l16 19c-9.33301 6.66699 -16.833 15.167 -22.5 25.5s-8.5 22.166 -8.5 35.499c0 18 5 38.5 15 61.5s23.333 46.667 40 71s35.834 48.333 57.501 72s44.167 45.334 67.5 65.001s47 36.5 71 50.5s46.333 23 67 27h-3
c-5.33301 4 -9.66602 6.66699 -12.999 8s-5.66602 4.66602 -6.99902 9.99902c0 3.33301 2 6 6 8s11.667 3 23 3c24.667 0 45.667 -5 63 -15l10 13c5.33301 6 9 10 11 12s7.66699 2.66699 17 2c11.333 -0.666992 16.833 -5 16.5 -13s-2.16602 -14.667 -5.49902 -20l-19 -26
c6.66699 -12.667 10 -28.667 10 -48c0 -21.333 -5 -46 -15 -74s-23.5 -56.167 -40.5 -84.5s-37 -55 -60 -80s-47.5 -45.5 -73.5 -61.5c13.333 -7.33301 25.666 -12.5 36.999 -15.5s21.333 -5.16699 30 -6.5c0.666992 -0.666992 2.33398 -3 5.00098 -7s4 -9 4 -15
c0 -4.66699 -0.833008 -7.5 -2.5 -8.5s-3.16699 -1.5 -4.5 -1.5zM232.997 23c23.333 16.667 45.4971 37.333 66.4971 62s39.5 50.334 55.5 77.001s28.833 53.167 38.5 79.5s14.5 50.166 14.5 71.499c0 4 -0.166992 7.83301 -0.5 11.5s-0.833008 7.16699 -1.5 10.5
c-19.333 -24 -46.166 -55.5 -80.499 -94.5s-78.166 -85.5 -131.499 -139.5c0 -18.667 3.83301 -34.5 11.5 -47.5s16.834 -23.167 27.501 -30.5zM51.9941 -17.001l56.5 64.002l54.5 64c2 16.667 5.66699 32.5 11 47.5s11.5 29.167 18.5 42.5s14.333 25.5 22 36.5
s14.834 20.5 21.501 28.5c13.333 16 27.666 30.667 42.999 44s30.333 24.666 45 33.999c-46.667 -20.667 -88 -45.667 -124 -75s-66.5 -59 -91.5 -89s-44.167 -58.333 -57.5 -85s-20.333 -47.334 -21 -62.001c0 -21.333 7.33301 -38 22 -50zM88.9941 -30.999
c18 -2 37.5 0.998047 58.5 8.99805s39.833 16.667 56.5 26c-20.667 18.667 -34 41.334 -40 68.001l-47.5 -47l-52.5 -49c3.33301 -1.33301 7 -2.66602 11 -3.99902s8.66699 -2.33301 14 -3zM202.994 158.999l104.999 124.5l72 87.5c-10 6 -23 9 -39 9
c9.33301 -4.66699 15 -11.667 17 -21c0 -4 -1.83301 -7.16699 -5.5 -9.5s-7.16699 -4.16602 -10.5 -5.49902c-1.33301 -1.33301 -9 -6.83301 -23 -16.5s-29.333 -24.834 -46 -45.501c-17.333 -21.333 -31.666 -42.333 -42.999 -63s-20.333 -40.667 -27 -60z" />
    <glyph glyph-name="Ugrave" unicode="&#xd9;" horiz-adv-x="314" 
d="M312 -8l5 2.99805c2 0 3 -1 3 -3c0 -2.66699 -2.16699 -5.5 -6.5 -8.5s-9.83301 -5.83301 -16.5 -8.5s-13.834 -4.83398 -21.501 -6.50098s-14.5 -2.5 -20.5 -2.5c-10 0 -19.667 2 -29 6s-14 12.333 -14 25c0 10 2.83301 20.833 8.5 32.5s11.5 22.834 17.5 33.501
c-9.33301 -7.33301 -20 -14.666 -32 -21.999s-24.5 -13.833 -37.5 -19.5s-26 -10.334 -39 -14.001s-24.833 -5.5 -35.5 -5.5h-2c-14 0 -25.167 2.33301 -33.5 7s-15 10.667 -20 18s-8.33301 16 -10 26s-2.5 20.333 -2.5 31c2 20.667 6.5 40.5 13.5 59.5s14.5 36.5 22.5 52.5
s15.667 30.167 23 42.5s13 22.166 17 29.499c-8.66699 -4 -19 -8.33301 -31 -13l-42 -16c-2.66699 -1.33301 -4 -1.83301 -4 -1.5s-0.333008 0.5 -1 0.5c-2.66699 0 -4 1.33301 -4 4c6 4.66699 14.333 10.667 25 18l33.5 23.5c11.667 8.33301 23.5 17.5 35.5 27.5
s22.667 20.333 32 31c2 2 4.66699 3.5 8 4.5s6.83301 1 10.5 0s6.83398 -2.5 9.50098 -4.5s4 -5 4 -9c0 -3.33301 -2.66699 -9.66602 -8 -18.999s-10.333 -17.333 -15 -24l-15 -23c-6.66699 -10 -14 -22.5 -22 -37.5l-29 -53.5c-6 -15.333 -13.167 -32 -21.5 -50
s-12.5 -38.667 -12.5 -62c0 -15.333 4.66699 -25.666 14 -30.999s20.333 -8 33 -8c9.33301 0 21.333 1.66699 36 5c20 5.33301 37.167 11.5 51.5 18.5s26.5 14.167 36.5 21.5s18 14.666 24 21.999s10.667 13.666 14 18.999l38 57.5l46 66l48 66.5l43.5 59.5l33 44
c9 11.667 14.833 18.834 17.5 21.501c0.666992 0 1.83398 0.333008 3.50098 1s4.16699 1 7.5 1h1c4 0 8.16699 -1.16699 12.5 -3.5s6.5 -5.16602 6.5 -8.49902c0 -2 -2.33301 -5.66699 -7 -11l-12.5 -15.5l-20 -25l-30 -38.5l-41.5 -57l-34 -45l-39.5 -52.5l-41 -57
l-38.5 -57.5l-1 -1l-18.5 -32c-6.33301 -11.333 -9.5 -21.666 -9.5 -30.999c0 -6 3.83301 -10 11.5 -12s15.5 -3 23.5 -3c15.333 0 27.166 2.5 35.499 7.5s12.833 7.16699 13.5 6.5zM352 423.998c-4 -2.66699 -11.168 -4.66309 -21.501 -5.99609s-20.666 -1.5 -30.999 -0.5
s-19.5 3 -27.5 6s-12 7.83301 -12 14.5c0 5.33301 2.5 10.166 7.5 14.499s8.16699 7.16602 9.5 8.49902c2 2 5.16699 1.33301 9.5 -2l16 -12c6.33301 -4.66699 13.5 -8.83398 21.5 -12.501s16.333 -4.83398 25 -3.50098c2.66699 -0.666992 4 -2 4 -4
c0 -1.33301 -0.333008 -2.33301 -1 -3z" />
    <glyph glyph-name="Uacute" unicode="&#xda;" horiz-adv-x="314" 
d="M312 -8l5 2.99805c2 0 3 -1 3 -3c0 -2.66699 -2.16699 -5.5 -6.5 -8.5s-9.83301 -5.83301 -16.5 -8.5s-13.834 -4.83398 -21.501 -6.50098s-14.5 -2.5 -20.5 -2.5c-10 0 -19.667 2 -29 6s-14 12.333 -14 25c0 10 2.83301 20.833 8.5 32.5s11.5 22.834 17.5 33.501
c-9.33301 -7.33301 -20 -14.666 -32 -21.999s-24.5 -13.833 -37.5 -19.5s-26 -10.334 -39 -14.001s-24.833 -5.5 -35.5 -5.5h-2c-14 0 -25.167 2.33301 -33.5 7s-15 10.667 -20 18s-8.33301 16 -10 26s-2.5 20.333 -2.5 31c2 20.667 6.5 40.5 13.5 59.5s14.5 36.5 22.5 52.5
s15.667 30.167 23 42.5s13 22.166 17 29.499c-8.66699 -4 -19 -8.33301 -31 -13l-42 -16c-2.66699 -1.33301 -4 -1.83301 -4 -1.5s-0.333008 0.5 -1 0.5c-2.66699 0 -4 1.33301 -4 4c6 4.66699 14.333 10.667 25 18l33.5 23.5c11.667 8.33301 23.5 17.5 35.5 27.5
s22.667 20.333 32 31c2 2 4.66699 3.5 8 4.5s6.83301 1 10.5 0s6.83398 -2.5 9.50098 -4.5s4 -5 4 -9c0 -3.33301 -2.66699 -9.66602 -8 -18.999s-10.333 -17.333 -15 -24l-15 -23c-6.66699 -10 -14 -22.5 -22 -37.5l-29 -53.5c-6 -15.333 -13.167 -32 -21.5 -50
s-12.5 -38.667 -12.5 -62c0 -15.333 4.66699 -25.666 14 -30.999s20.333 -8 33 -8c9.33301 0 21.333 1.66699 36 5c20 5.33301 37.167 11.5 51.5 18.5s26.5 14.167 36.5 21.5s18 14.666 24 21.999s10.667 13.666 14 18.999l38 57.5l46 66l48 66.5l43.5 59.5l33 44
c9 11.667 14.833 18.834 17.5 21.501c0.666992 0 1.83398 0.333008 3.50098 1s4.16699 1 7.5 1h1c4 0 8.16699 -1.16699 12.5 -3.5s6.5 -5.16602 6.5 -8.49902c0 -2 -2.33301 -5.66699 -7 -11l-12.5 -15.5l-20 -25l-30 -38.5l-41.5 -57l-34 -45l-39.5 -52.5l-41 -57
l-38.5 -57.5l-1 -1l-18.5 -32c-6.33301 -11.333 -9.5 -21.666 -9.5 -30.999c0 -6 3.83301 -10 11.5 -12s15.5 -3 23.5 -3c15.333 0 27.166 2.5 35.499 7.5s12.833 7.16699 13.5 6.5zM273 424.998c-0.666992 0.666992 -1.00098 1.66309 -1.00098 2.99609
c0 2 1.33301 3.33301 4 4c8.66699 -1.33301 17 -0.166016 25 3.50098s15.167 7.83398 21.5 12.501l16 12c4.33301 3.33301 7.5 4 9.5 2c1.33301 -1.33301 4.5 -4.16602 9.5 -8.49902s7.5 -9.16602 7.5 -14.499c0 -6.66699 -4 -11.5 -12 -14.5s-17.167 -5 -27.5 -6
s-20.666 -0.833008 -30.999 0.5s-17.5 3.33301 -21.5 6z" />
    <glyph glyph-name="Ucircumflex" unicode="&#xdb;" horiz-adv-x="314" 
d="M312 -8l5 2.99805c2 0 3 -1 3 -3c0 -2.66699 -2.16699 -5.5 -6.5 -8.5s-9.83301 -5.83301 -16.5 -8.5s-13.834 -4.83398 -21.501 -6.50098s-14.5 -2.5 -20.5 -2.5c-10 0 -19.667 2 -29 6s-14 12.333 -14 25c0 10 2.83301 20.833 8.5 32.5s11.5 22.834 17.5 33.501
c-9.33301 -7.33301 -20 -14.666 -32 -21.999s-24.5 -13.833 -37.5 -19.5s-26 -10.334 -39 -14.001s-24.833 -5.5 -35.5 -5.5h-2c-14 0 -25.167 2.33301 -33.5 7s-15 10.667 -20 18s-8.33301 16 -10 26s-2.5 20.333 -2.5 31c2 20.667 6.5 40.5 13.5 59.5s14.5 36.5 22.5 52.5
s15.667 30.167 23 42.5s13 22.166 17 29.499c-8.66699 -4 -19 -8.33301 -31 -13l-42 -16c-2.66699 -1.33301 -4 -1.83301 -4 -1.5s-0.333008 0.5 -1 0.5c-2.66699 0 -4 1.33301 -4 4c6 4.66699 14.333 10.667 25 18l33.5 23.5c11.667 8.33301 23.5 17.5 35.5 27.5
s22.667 20.333 32 31c2 2 4.66699 3.5 8 4.5s6.83301 1 10.5 0s6.83398 -2.5 9.50098 -4.5s4 -5 4 -9c0 -3.33301 -2.66699 -9.66602 -8 -18.999s-10.333 -17.333 -15 -24l-15 -23c-6.66699 -10 -14 -22.5 -22 -37.5l-29 -53.5c-6 -15.333 -13.167 -32 -21.5 -50
s-12.5 -38.667 -12.5 -62c0 -15.333 4.66699 -25.666 14 -30.999s20.333 -8 33 -8c9.33301 0 21.333 1.66699 36 5c20 5.33301 37.167 11.5 51.5 18.5s26.5 14.167 36.5 21.5s18 14.666 24 21.999s10.667 13.666 14 18.999l38 57.5l46 66l48 66.5l43.5 59.5l33 44
c9 11.667 14.833 18.834 17.5 21.501c0.666992 0 1.83398 0.333008 3.50098 1s4.16699 1 7.5 1h1c4 0 8.16699 -1.16699 12.5 -3.5s6.5 -5.16602 6.5 -8.49902c0 -2 -2.33301 -5.66699 -7 -11l-12.5 -15.5l-20 -25l-30 -38.5l-41.5 -57l-34 -45l-39.5 -52.5l-41 -57
l-38.5 -57.5l-1 -1l-18.5 -32c-6.33301 -11.333 -9.5 -21.666 -9.5 -30.999c0 -6 3.83301 -10 11.5 -12s15.5 -3 23.5 -3c15.333 0 27.166 2.5 35.499 7.5s12.833 7.16699 13.5 6.5zM236 428.998l-1.99902 3.99805c0 1.33301 0.5 2 1.5 2s1.83301 0.333008 2.5 1
c19.333 4.66699 32.833 8.83398 40.5 12.501s14.167 7.5 19.5 11.5c8.66699 5.33301 13.667 8 15 8c2 0 6 -1.83301 12 -5.5s15.333 -10.5 28 -20.5c14.667 -11.333 24.5 -18 29.5 -20s7.5 -4.33301 7.5 -7s-1.66699 -4 -5 -4c-9.33301 0 -21.333 1.66699 -36 5
s-27 8 -37 14c-4 -2 -9.33301 -3.66699 -16 -5s-13.834 -2.16602 -21.501 -2.49902s-15 0 -22 1s-12.5 2.83301 -16.5 5.5z" />
    <glyph glyph-name="Udieresis" unicode="&#xdc;" horiz-adv-x="314" 
d="M312 -8l5 2.99805c2 0 3 -1 3 -3c0 -2.66699 -2.16699 -5.5 -6.5 -8.5s-9.83301 -5.83301 -16.5 -8.5s-13.834 -4.83398 -21.501 -6.50098s-14.5 -2.5 -20.5 -2.5c-10 0 -19.667 2 -29 6s-14 12.333 -14 25c0 10 2.83301 20.833 8.5 32.5s11.5 22.834 17.5 33.501
c-9.33301 -7.33301 -20 -14.666 -32 -21.999s-24.5 -13.833 -37.5 -19.5s-26 -10.334 -39 -14.001s-24.833 -5.5 -35.5 -5.5h-2c-14 0 -25.167 2.33301 -33.5 7s-15 10.667 -20 18s-8.33301 16 -10 26s-2.5 20.333 -2.5 31c2 20.667 6.5 40.5 13.5 59.5s14.5 36.5 22.5 52.5
s15.667 30.167 23 42.5s13 22.166 17 29.499c-8.66699 -4 -19 -8.33301 -31 -13l-42 -16c-2.66699 -1.33301 -4 -1.83301 -4 -1.5s-0.333008 0.5 -1 0.5c-2.66699 0 -4 1.33301 -4 4c6 4.66699 14.333 10.667 25 18l33.5 23.5c11.667 8.33301 23.5 17.5 35.5 27.5
s22.667 20.333 32 31c2 2 4.66699 3.5 8 4.5s6.83301 1 10.5 0s6.83398 -2.5 9.50098 -4.5s4 -5 4 -9c0 -3.33301 -2.66699 -9.66602 -8 -18.999s-10.333 -17.333 -15 -24l-15 -23c-6.66699 -10 -14 -22.5 -22 -37.5l-29 -53.5c-6 -15.333 -13.167 -32 -21.5 -50
s-12.5 -38.667 -12.5 -62c0 -15.333 4.66699 -25.666 14 -30.999s20.333 -8 33 -8c9.33301 0 21.333 1.66699 36 5c20 5.33301 37.167 11.5 51.5 18.5s26.5 14.167 36.5 21.5s18 14.666 24 21.999s10.667 13.666 14 18.999l38 57.5l46 66l48 66.5l43.5 59.5l33 44
c9 11.667 14.833 18.834 17.5 21.501c0.666992 0 1.83398 0.333008 3.50098 1s4.16699 1 7.5 1h1c4 0 8.16699 -1.16699 12.5 -3.5s6.5 -5.16602 6.5 -8.49902c0 -2 -2.33301 -5.66699 -7 -11l-12.5 -15.5l-20 -25l-30 -38.5l-41.5 -57l-34 -45l-39.5 -52.5l-41 -57
l-38.5 -57.5l-1 -1l-18.5 -32c-6.33301 -11.333 -9.5 -21.666 -9.5 -30.999c0 -6 3.83301 -10 11.5 -12s15.5 -3 23.5 -3c15.333 0 27.166 2.5 35.499 7.5s12.833 7.16699 13.5 6.5zM274 465.998c3.33301 0 8.33203 -1.66895 14.999 -5.00195s10.667 -6.66602 12 -9.99902
c0 -10 -4.33301 -18 -13 -24l-11 -8c-4 6.66699 -7.16699 12.834 -9.5 18.501s-2.16602 12.167 0.500977 19.5c3.33301 6 5.33301 9 6 9zM333.999 465.996c3.33301 0 8.33203 -1.66895 14.999 -5.00195s10.667 -6.66602 12 -9.99902c0 -10 -4.33301 -18 -13 -24l-11 -8
c-4 6.66699 -7.16699 12.834 -9.5 18.501s-2.16602 12.167 0.500977 19.5c3.33301 6 5.33301 9 6 9z" />
    <glyph glyph-name="Yacute" unicode="&#xdd;" horiz-adv-x="213" 
d="M384 402c2 0 4.99707 -0.671875 8.99707 -2.00488s6 -3.66602 6 -6.99902c0 -2 -1.66699 -6.33301 -5 -13c-4 -8.66699 -10.167 -18.834 -18.5 -30.501s-19.5 -29.167 -33.5 -52.5l-33 -53c-14 -22.667 -30.5 -47.834 -49.5 -75.501l-62 -88
c-22.333 -31 -45.5 -61.5 -69.5 -91.5l-28 -34c-10 -12 -20 -23.167 -30 -33.5s-19.667 -19 -29 -26s-17 -10.5 -23 -10.5h-1c-3.33301 0 -5.16602 1.16699 -5.49902 3.5s-0.833008 4.5 -1.5 6.5c0 4.66699 0.166992 7.33398 0.5 8.00098s1.16602 1 2.49902 1
c2.66699 0 3.83398 -1.33301 3.50098 -4s0.166992 -4.66699 1.5 -6c5.33301 0 16.5 9.5 33.5 28.5s38.167 46.5 63.5 82.5c-2 -0.666992 -5.66699 -1 -11 -1c-15.333 0 -27.166 5.66699 -35.499 17s-14.666 25.5 -18.999 42.5s-7 35.5 -8 55.5s-1.5 38.333 -1.5 55
c0 15.333 0.166992 31.333 0.5 48s1.5 35.667 3.5 57l3 37c0 3.33301 0.166992 7.83301 0.5 13.5s-2.16699 8.5 -7.5 8.5c-2 0 -5.16699 -0.833008 -9.5 -2.5s-8.83301 -3.66699 -13.5 -6s-9 -4.33301 -13 -6s-6.33301 -2.5 -7 -2.5
c-5.33301 -2.66699 -10.166 -2.16699 -14.499 1.5s-6.5 9.5 -6.5 17.5c0 2.66699 2 5.33398 6 8.00098l18.5 12.5c10.333 7 23.833 10.5 40.5 10.5c10 0 19.5 -2.33301 28.5 -7s12.833 -14 11.5 -28l-1 -20l-11 -127c-1.33301 -13.333 -2.16602 -27.166 -2.49902 -41.499
s-0.5 -28.5 -0.5 -42.5c0 -7.33301 0.333008 -16.166 1 -26.499s2.33398 -20.166 5.00098 -29.499s6.66699 -17.166 12 -23.499s12.666 -9.5 21.999 -9.5c3.33301 0 6.66602 0.5 9.99902 1.5s6.66602 2.16699 9.99902 3.5l50.5 75l52 80l48.5 77l41.5 67l31.5 50.5l17 26.5
c0.666992 0.666992 2.5 1.66699 5.5 3s6.83301 2 11.5 2zM168.997 428.995c-0.666992 0.666992 -1.00098 1.66309 -1.00098 2.99609c0 2 1.33301 3.33301 4 4c8.66699 -1.33301 17 -0.166016 25 3.50098s15.167 7.83398 21.5 12.501l16 12c4.33301 3.33301 7.5 4 9.5 2
c1.33301 -1.33301 4.5 -4.16602 9.5 -8.49902s7.5 -9.16602 7.5 -14.499c0 -6.66699 -4 -11.5 -12 -14.5s-17.167 -5 -27.5 -6s-20.666 -0.833008 -30.999 0.5s-17.5 3.33301 -21.5 6z" />
    <glyph glyph-name="agrave" unicode="&#xe0;" 
d="M12 -2c-8.66699 0 -15.167 3.66895 -19.5 11.002s-5.83301 15 -4.5 23c2 14.667 7.33301 27.667 16 39s18.834 20.833 30.501 28.5s24 13.5 37 17.5s24.833 6 35.5 6c6 0 13.333 -1.66699 22 -5s13 -7.66602 13 -12.999c0 -2 -1.66699 -4.83301 -5 -8.5
s-6 -6.83398 -8 -9.50098c0 -0.666992 -1.33301 -2.83398 -4 -6.50098l-9.5 -13c-3.66699 -5 -6.83398 -10.333 -9.50098 -16s-4 -11.167 -4 -16.5c0 -9.33301 5 -14 15 -14c8 0.666992 17 2.66699 27 6l24 8l14 5c3.33301 1.33301 4.83301 2 4.5 2s0.166992 0 1.5 0
c2 0 3 -1.33301 3 -4l-1 -1l-4 -3c-0.666992 -0.666992 -3.16699 -2.83398 -7.5 -6.50098s-10 -7.5 -17 -11.5s-14.833 -7.66699 -23.5 -11s-17.667 -5 -27 -5c-8.66699 0 -15.834 2.66699 -21.501 8s-9.83398 12.333 -12.501 21c-9.33301 -6 -19.166 -12.667 -29.499 -20
s-22.166 -11 -35.499 -11zM20 37.002c-1.33301 -1.33301 -2.50195 -3.33398 -3.50195 -6.00098s-0.833008 -4.66699 0.5 -6c0.666992 -1.33301 4.33398 -0.666016 11.001 2.00098c13.333 4.66699 23.5 9.33398 30.5 14.001s12.5 9.66699 16.5 15s7.33301 10.666 10 15.999
s6 11 10 17c-7.33301 0 -17.666 -3.33301 -30.999 -10s-28 -20.667 -44 -42zM167.998 160.001c-4 -2.66699 -11.168 -4.66309 -21.501 -5.99609s-20.666 -1.5 -30.999 -0.5s-19.5 3 -27.5 6s-12 7.83301 -12 14.5c0 5.33301 2.5 10.166 7.5 14.499
s8.16699 7.16602 9.5 8.49902c2 2 5.16699 1.33301 9.5 -2l16 -12c6.33301 -4.66699 13.5 -8.83398 21.5 -12.501s16.333 -4.83398 25 -3.50098c2.66699 -0.666992 4 -2 4 -4c0 -1.33301 -0.333008 -2.33301 -1 -3z" />
    <glyph glyph-name="aacute" unicode="&#xe1;" 
d="M12 -2c-8.66699 0 -15.167 3.66895 -19.5 11.002s-5.83301 15 -4.5 23c2 14.667 7.33301 27.667 16 39s18.834 20.833 30.501 28.5s24 13.5 37 17.5s24.833 6 35.5 6c6 0 13.333 -1.66699 22 -5s13 -7.66602 13 -12.999c0 -2 -1.66699 -4.83301 -5 -8.5
s-6 -6.83398 -8 -9.50098c0 -0.666992 -1.33301 -2.83398 -4 -6.50098l-9.5 -13c-3.66699 -5 -6.83398 -10.333 -9.50098 -16s-4 -11.167 -4 -16.5c0 -9.33301 5 -14 15 -14c8 0.666992 17 2.66699 27 6l24 8l14 5c3.33301 1.33301 4.83301 2 4.5 2s0.166992 0 1.5 0
c2 0 3 -1.33301 3 -4l-1 -1l-4 -3c-0.666992 -0.666992 -3.16699 -2.83398 -7.5 -6.50098s-10 -7.5 -17 -11.5s-14.833 -7.66699 -23.5 -11s-17.667 -5 -27 -5c-8.66699 0 -15.834 2.66699 -21.501 8s-9.83398 12.333 -12.501 21c-9.33301 -6 -19.166 -12.667 -29.499 -20
s-22.166 -11 -35.499 -11zM20 37.002c-1.33301 -1.33301 -2.50195 -3.33398 -3.50195 -6.00098s-0.833008 -4.66699 0.5 -6c0.666992 -1.33301 4.33398 -0.666016 11.001 2.00098c13.333 4.66699 23.5 9.33398 30.5 14.001s12.5 9.66699 16.5 15s7.33301 10.666 10 15.999
s6 11 10 17c-7.33301 0 -17.666 -3.33301 -30.999 -10s-28 -20.667 -44 -42zM76.998 160.001c-0.666992 0.666992 -1.00098 1.66309 -1.00098 2.99609c0 2 1.33301 3.33301 4 4c8.66699 -1.33301 17 -0.166016 25 3.50098s15.167 7.83398 21.5 12.501l16 12
c4.33301 3.33301 7.5 4 9.5 2c1.33301 -1.33301 4.5 -4.16602 9.5 -8.49902s7.5 -9.16602 7.5 -14.499c0 -6.66699 -4 -11.5 -12 -14.5s-17.167 -5 -27.5 -6s-20.666 -0.833008 -30.999 0.5s-17.5 3.33301 -21.5 6z" />
    <glyph glyph-name="acircumflex" unicode="&#xe2;" 
d="M12 -2c-8.66699 0 -15.167 3.66895 -19.5 11.002s-5.83301 15 -4.5 23c2 14.667 7.33301 27.667 16 39s18.834 20.833 30.501 28.5s24 13.5 37 17.5s24.833 6 35.5 6c6 0 13.333 -1.66699 22 -5s13 -7.66602 13 -12.999c0 -2 -1.66699 -4.83301 -5 -8.5
s-6 -6.83398 -8 -9.50098c0 -0.666992 -1.33301 -2.83398 -4 -6.50098l-9.5 -13c-3.66699 -5 -6.83398 -10.333 -9.50098 -16s-4 -11.167 -4 -16.5c0 -9.33301 5 -14 15 -14c8 0.666992 17 2.66699 27 6l24 8l14 5c3.33301 1.33301 4.83301 2 4.5 2s0.166992 0 1.5 0
c2 0 3 -1.33301 3 -4l-1 -1l-4 -3c-0.666992 -0.666992 -3.16699 -2.83398 -7.5 -6.50098s-10 -7.5 -17 -11.5s-14.833 -7.66699 -23.5 -11s-17.667 -5 -27 -5c-8.66699 0 -15.834 2.66699 -21.501 8s-9.83398 12.333 -12.501 21c-9.33301 -6 -19.166 -12.667 -29.499 -20
s-22.166 -11 -35.499 -11zM20 37.002c-1.33301 -1.33301 -2.50195 -3.33398 -3.50195 -6.00098s-0.833008 -4.66699 0.5 -6c0.666992 -1.33301 4.33398 -0.666016 11.001 2.00098c13.333 4.66699 23.5 9.33398 30.5 14.001s12.5 9.66699 16.5 15s7.33301 10.666 10 15.999
s6 11 10 17c-7.33301 0 -17.666 -3.33301 -30.999 -10s-28 -20.667 -44 -42zM41.998 160.001l-1.99902 3.99805c0 1.33301 0.5 2 1.5 2s1.83301 0.333008 2.5 1c19.333 4.66699 32.833 8.83398 40.5 12.501s14.167 7.5 19.5 11.5c8.66699 5.33301 13.667 8 15 8
c2 0 6 -1.83301 12 -5.5s15.333 -10.5 28 -20.5c14.667 -11.333 24.5 -18 29.5 -20s7.5 -4.33301 7.5 -7s-1.66699 -4 -5 -4c-9.33301 0 -21.333 1.66699 -36 5s-27 8 -37 14c-4 -2 -9.33301 -3.66699 -16 -5s-13.834 -2.16602 -21.501 -2.49902s-15 0 -22 1
s-12.5 2.83301 -16.5 5.5z" />
    <glyph glyph-name="atilde" unicode="&#xe3;" 
d="M12 -2c-8.66699 0 -15.167 3.66895 -19.5 11.002s-5.83301 15 -4.5 23c2 14.667 7.33301 27.667 16 39s18.834 20.833 30.501 28.5s24 13.5 37 17.5s24.833 6 35.5 6c6 0 13.333 -1.66699 22 -5s13 -7.66602 13 -12.999c0 -2 -1.66699 -4.83301 -5 -8.5
s-6 -6.83398 -8 -9.50098c0 -0.666992 -1.33301 -2.83398 -4 -6.50098l-9.5 -13c-3.66699 -5 -6.83398 -10.333 -9.50098 -16s-4 -11.167 -4 -16.5c0 -9.33301 5 -14 15 -14c8 0.666992 17 2.66699 27 6l24 8l14 5c3.33301 1.33301 4.83301 2 4.5 2s0.166992 0 1.5 0
c2 0 3 -1.33301 3 -4l-1 -1l-4 -3c-0.666992 -0.666992 -3.16699 -2.83398 -7.5 -6.50098s-10 -7.5 -17 -11.5s-14.833 -7.66699 -23.5 -11s-17.667 -5 -27 -5c-8.66699 0 -15.834 2.66699 -21.501 8s-9.83398 12.333 -12.501 21c-9.33301 -6 -19.166 -12.667 -29.499 -20
s-22.166 -11 -35.499 -11zM20 37.002c-1.33301 -1.33301 -2.50195 -3.33398 -3.50195 -6.00098s-0.833008 -4.66699 0.5 -6c0.666992 -1.33301 4.33398 -0.666016 11.001 2.00098c13.333 4.66699 23.5 9.33398 30.5 14.001s12.5 9.66699 16.5 15s7.33301 10.666 10 15.999
s6 11 10 17c-7.33301 0 -17.666 -3.33301 -30.999 -10s-28 -20.667 -44 -42zM82.998 151.001c-5.33301 6.66699 -9.33203 11.501 -11.999 14.501s-4.33398 8.5 -5.00098 16.5c-2 11.333 1.66699 18 11 20c6 -1.33301 9.33301 -2.33301 10 -3
c8.66699 -2.66699 17.667 -7.33398 27 -14.001s17.666 -13 24.999 -19c9.33301 -6.66699 15.5 -11.5 18.5 -14.5s6.16699 -5.16699 9.5 -6.5c0.666992 0.666992 1 2 1 4c-0.666992 10 -0.5 15.167 0.5 15.5s3.16699 2.16602 6.5 5.49902c1.33301 1.33301 2.5 1 3.5 -1
s1.83301 -4.5 2.5 -7.5s1.16699 -6 1.5 -9s0.5 -5.5 0.5 -7.5s-1.33301 -5 -4 -9s-6 -6.33301 -10 -7c-1.33301 0 -4.66602 1.33301 -9.99902 4l-19 9.5c-7.33301 3.66699 -14.833 7.66699 -22.5 12s-14.167 8.16602 -19.5 11.499c-2.66699 0 -4.16699 -1.16699 -4.5 -3.5
s-0.5 -4.66602 -0.5 -6.99902s-0.5 -4.16602 -1.5 -5.49902s-3.83301 -1 -8.5 1z" />
    <glyph glyph-name="adieresis" unicode="&#xe4;" 
d="M12 -2c-8.66699 0 -15.167 3.66895 -19.5 11.002s-5.83301 15 -4.5 23c2 14.667 7.33301 27.667 16 39s18.834 20.833 30.501 28.5s24 13.5 37 17.5s24.833 6 35.5 6c6 0 13.333 -1.66699 22 -5s13 -7.66602 13 -12.999c0 -2 -1.66699 -4.83301 -5 -8.5
s-6 -6.83398 -8 -9.50098c0 -0.666992 -1.33301 -2.83398 -4 -6.50098l-9.5 -13c-3.66699 -5 -6.83398 -10.333 -9.50098 -16s-4 -11.167 -4 -16.5c0 -9.33301 5 -14 15 -14c8 0.666992 17 2.66699 27 6l24 8l14 5c3.33301 1.33301 4.83301 2 4.5 2s0.166992 0 1.5 0
c2 0 3 -1.33301 3 -4l-1 -1l-4 -3c-0.666992 -0.666992 -3.16699 -2.83398 -7.5 -6.50098s-10 -7.5 -17 -11.5s-14.833 -7.66699 -23.5 -11s-17.667 -5 -27 -5c-8.66699 0 -15.834 2.66699 -21.501 8s-9.83398 12.333 -12.501 21c-9.33301 -6 -19.166 -12.667 -29.499 -20
s-22.166 -11 -35.499 -11zM20 37.002c-1.33301 -1.33301 -2.50195 -3.33398 -3.50195 -6.00098s-0.833008 -4.66699 0.5 -6c0.666992 -1.33301 4.33398 -0.666016 11.001 2.00098c13.333 4.66699 23.5 9.33398 30.5 14.001s12.5 9.66699 16.5 15s7.33301 10.666 10 15.999
s6 11 10 17c-7.33301 0 -17.666 -3.33301 -30.999 -10s-28 -20.667 -44 -42zM84.998 194.001c3.33301 0 8.33203 -1.66895 14.999 -5.00195s10.667 -6.66602 12 -9.99902c0 -10 -4.33301 -18 -13 -24l-11 -8c-4 6.66699 -7.16699 12.834 -9.5 18.501
s-2.16602 12.167 0.500977 19.5c3.33301 6 5.33301 9 6 9zM144.997 193.999c3.33301 0 8.33203 -1.66895 14.999 -5.00195s10.667 -6.66602 12 -9.99902c0 -10 -4.33301 -18 -13 -24l-11 -8c-4 6.66699 -7.16699 12.834 -9.5 18.501s-2.16602 12.167 0.500977 19.5
c3.33301 6 5.33301 9 6 9z" />
    <glyph glyph-name="aring" unicode="&#xe5;" 
d="M12 -2c-8.66699 0 -15.167 3.66895 -19.5 11.002s-5.83301 15 -4.5 23c2 14.667 7.33301 27.667 16 39s18.834 20.833 30.501 28.5s24 13.5 37 17.5s24.833 6 35.5 6c6 0 13.333 -1.66699 22 -5s13 -7.66602 13 -12.999c0 -2 -1.66699 -4.83301 -5 -8.5
s-6 -6.83398 -8 -9.50098c0 -0.666992 -1.33301 -2.83398 -4 -6.50098l-9.5 -13c-3.66699 -5 -6.83398 -10.333 -9.50098 -16s-4 -11.167 -4 -16.5c0 -9.33301 5 -14 15 -14c8 0.666992 17 2.66699 27 6l24 8l14 5c3.33301 1.33301 4.83301 2 4.5 2s0.166992 0 1.5 0
c2 0 3 -1.33301 3 -4l-1 -1l-4 -3c-0.666992 -0.666992 -3.16699 -2.83398 -7.5 -6.50098s-10 -7.5 -17 -11.5s-14.833 -7.66699 -23.5 -11s-17.667 -5 -27 -5c-8.66699 0 -15.834 2.66699 -21.501 8s-9.83398 12.333 -12.501 21c-9.33301 -6 -19.166 -12.667 -29.499 -20
s-22.166 -11 -35.499 -11zM20 37.002c-1.33301 -1.33301 -2.50195 -3.33398 -3.50195 -6.00098s-0.833008 -4.66699 0.5 -6c0.666992 -1.33301 4.33398 -0.666016 11.001 2.00098c13.333 4.66699 23.5 9.33398 30.5 14.001s12.5 9.66699 16.5 15s7.33301 10.666 10 15.999
s6 11 10 17c-7.33301 0 -17.666 -3.33301 -30.999 -10s-28 -20.667 -44 -42zM119.998 183.001c3.33301 0 8.33203 -1.66895 14.999 -5.00195s10.667 -6.66602 12 -9.99902c0 -10 -4.33301 -18 -13 -24l-11 -8c-4 6.66699 -7.16699 12.834 -9.5 18.501
s-2.16602 12.167 0.500977 19.5c3.33301 6 5.33301 9 6 9zM123.997 165.999c0 -0.666992 -0.166992 -0.998047 -0.5 -0.998047s-0.5 -0.333008 -0.5 -1c-1.33301 -2.66699 -1.5 -4.83398 -0.5 -6.50098s2.16699 -3.83398 3.5 -6.50098l4 3c2.66699 2 4 4.66699 4 8
c-2 3.33301 -5 5 -9 5z" />
    <glyph glyph-name="ae" unicode="&#xe6;" horiz-adv-x="239" 
d="M248 35c-9.33301 -6 -19.6719 -11.999 -31.0049 -17.999s-23.166 -10.833 -35.499 -14.5s-25.333 -6 -39 -7s-26.834 0.5 -39.501 4.5c-11.333 4 -19 11 -23 21l-2 4c-0.666992 1.33301 -1 2.66602 -1 3.99902c-9.33301 -6 -19.166 -12.667 -29.499 -20
s-22.166 -11 -35.499 -11c-8.66699 0 -15.167 3.66699 -19.5 11s-5.83301 15 -4.5 23c2 14.667 7.33301 27.667 16 39s18.834 20.833 30.501 28.5s24 13.5 37 17.5s24.833 6 35.5 6c5.33301 0 11.333 -1.16699 18 -3.5s11.667 -5.16602 15 -8.49902
c6.66699 3.33301 13.334 6.16602 20.001 8.49902s13.334 3.5 20.001 3.5c7.33301 0 15.5 -1.66699 24.5 -5s13.5 -10.333 13.5 -21c0 -11.333 -4.16699 -21.166 -12.5 -29.499s-18.333 -15.166 -30 -20.499s-23.834 -9.33301 -36.501 -12s-23.334 -4 -32.001 -4
c0 -2.66699 2 -4.83398 6 -6.50098s8.5 -2.83398 13.5 -3.50098s10 -1.16699 15 -1.5s8.83301 -0.5 11.5 -0.5c11.333 0 23 1.16699 35 3.5s22.667 4.83301 32 7.5c10.667 3.33301 17.334 6 20.001 8s4.33398 3 5.00098 3c2.66699 0 4 -1 4 -3v-2zM19.9941 37.001
c-1.33301 -1.33301 -2.50195 -3.33398 -3.50195 -6.00098s-0.833008 -4.66699 0.5 -6c0.666992 -1.33301 4.33398 -0.666016 11.001 2.00098c13.333 4.66699 23.5 9.33398 30.5 14.001s12.5 9.66699 16.5 15s7.33301 10.666 10 15.999s6 11 10 17
c-7.33301 0 -17.666 -3.33301 -30.999 -10s-28 -20.667 -44 -42zM124.992 57c-1.33301 -1.33301 -3.5 -3.33398 -6.5 -6.00098s-3.5 -3.66699 -1.5 -3c2.66699 0.666992 7.5 2.66699 14.5 6s12.833 6.33301 17.5 9l10 7c4 3.33301 8.16699 7 12.5 11
s7.16602 7.33301 8.49902 10c-1.33301 0 -4.16602 -0.833008 -8.49902 -2.5s-8.5 -3.5 -12.5 -5.5l-5 -3l-14 -10c-4.66699 -3.33301 -9.66699 -7.66602 -15 -12.999z" />
    <glyph glyph-name="ccedilla" unicode="&#xe7;" horiz-adv-x="145" 
d="M24 -46c-2.66699 0 -6.33301 0.50293 -11 1.50293s-9.33398 2.33301 -14.001 4s-8.83398 4 -12.501 7s-5.5 6.5 -5.5 10.5c0 2 0.666992 3 2 3l14 -4c4.66699 -1.33301 9.66699 -2 15 -2h10c0.666992 0 1 0.333008 1 1c-1.33301 1.33301 -3.5 2.16602 -6.5 2.49902
s-5.16699 0.833008 -6.5 1.5s-2.33301 1.66699 -3 3c-2 2 -3 6 -3 12c0 0.666992 0.833008 2.33398 2.5 5.00098l5.5 9c-6 3.33301 -11 7.5 -15 12.5s-6 11.167 -6 18.5c0 12.667 3.83301 24.167 11.5 34.5s17.167 19 28.5 26s23.5 12.5 36.5 16.5s25.167 6.33301 36.5 7
c4.66699 0 9 -1 13 -3c3.33301 -1.33301 6.33301 -3.66602 9 -6.99902s4 -8.66602 4 -15.999c0 -6.66699 -2.66699 -12.334 -8 -17.001s-11.333 -8.5 -18 -11.5s-12.834 -5.16699 -18.501 -6.5s-9.16699 -2 -10.5 -2l-1 1c-1.33301 0 -2 1.33301 -2 4v1l5 5
c1.33301 1.33301 4 4.16602 8 8.49902s6.66699 7.83301 8 10.5h-3c-2 0 -5.66699 -0.666992 -11 -2s-11.333 -3.66602 -18 -6.99902s-13.5 -7.83301 -20.5 -13.5s-13.167 -12.834 -18.5 -21.501c-1.33301 -3.33301 -1.83301 -5.33301 -1.5 -6s0.5 -1.33398 0.5 -2.00098v-1
c0.666992 -0.666992 1.33398 -1.83398 2.00098 -3.50098s2.5 -3.33398 5.5 -5.00098s7.83301 -3.16699 14.5 -4.5s16.334 -2 29.001 -2c24 0 44 2.83301 60 8.5s24.333 9.16699 25 10.5c2.66699 0 4.33398 -0.333008 5.00098 -1c0 -1.33301 -0.333008 -3 -1 -5
c-8.66699 -6.66699 -18.334 -12.334 -29.001 -17.001c-9.33301 -4.66699 -20.5 -8.66699 -33.5 -12s-27.833 -5.66602 -44.5 -6.99902h-5c-2 0 -4 0.166992 -6 0.5s-4 0.5 -6 0.5c-0.666992 -0 -1 -0.666992 -1 -2l-1 -2c1.33301 -0.666992 3.83301 -2.83398 7.5 -6.50098
s5.5 -8.5 5.5 -14.5c0 -5.33301 -2.16699 -10.166 -6.5 -14.499s-10.166 -6.5 -17.499 -6.5z" />
    <glyph glyph-name="egrave" unicode="&#xe8;" horiz-adv-x="148" 
d="M157 35c-9.33301 -6 -19.667 -12.0029 -31 -18.0029s-23.166 -10.833 -35.499 -14.5s-25.333 -6 -39 -7s-26.834 0.5 -39.501 4.5c-7.33301 3.33301 -13 7.33301 -17 12s-6.66699 11.334 -8 20.001v1c0 10 3.33301 20.333 10 31s15.167 20.334 25.5 29.001
s21.5 15.834 33.5 21.501s23 8.5 33 8.5c7.33301 0 15.5 -1.66699 24.5 -5s13.5 -10.333 13.5 -21c0 -11.333 -4.16699 -21.166 -12.5 -29.499s-18.333 -15.166 -30 -20.499s-23.834 -9.33301 -36.501 -12s-23.334 -4 -32.001 -4c0 -2.66699 2 -4.83398 6 -6.50098
s8.5 -2.83398 13.5 -3.50098s10 -1.16699 15 -1.5s8.83301 -0.5 11.5 -0.5c11.333 0 23 1.16699 35 3.5s22.667 4.83301 32 7.5c10.667 3.33301 17.334 6 20.001 8s4.33398 3 5.00098 3c2.66699 0 4 -1 4 -3v-2zM33.999 56.9971
c-1.33301 -1.33301 -3.5 -3.33398 -6.5 -6.00098s-3.5 -3.66699 -1.5 -3c2.66699 0.666992 7.5 2.66699 14.5 6s12.833 6.33301 17.5 9l10 7c4 3.33301 8.16699 7 12.5 11s7.16602 7.33301 8.49902 10c-1.33301 0 -4.16602 -0.833008 -8.49902 -2.5s-8.5 -3.5 -12.5 -5.5
l-5 -3l-14 -10c-4.66699 -3.33301 -9.66699 -7.66602 -15 -12.999zM153.999 159.996c-4 -2.66699 -11.168 -4.66309 -21.501 -5.99609s-20.666 -1.5 -30.999 -0.5s-19.5 3 -27.5 6s-12 7.83301 -12 14.5c0 5.33301 2.5 10.166 7.5 14.499s8.16699 7.16602 9.5 8.49902
c2 2 5.16699 1.33301 9.5 -2l16 -12c6.33301 -4.66699 13.5 -8.83398 21.5 -12.501s16.333 -4.83398 25 -3.50098c2.66699 -0.666992 4 -2 4 -4c0 -1.33301 -0.333008 -2.33301 -1 -3z" />
    <glyph glyph-name="eacute" unicode="&#xe9;" horiz-adv-x="148" 
d="M157 35c-9.33301 -6 -19.667 -12.0029 -31 -18.0029s-23.166 -10.833 -35.499 -14.5s-25.333 -6 -39 -7s-26.834 0.5 -39.501 4.5c-7.33301 3.33301 -13 7.33301 -17 12s-6.66699 11.334 -8 20.001v1c0 10 3.33301 20.333 10 31s15.167 20.334 25.5 29.001
s21.5 15.834 33.5 21.501s23 8.5 33 8.5c7.33301 0 15.5 -1.66699 24.5 -5s13.5 -10.333 13.5 -21c0 -11.333 -4.16699 -21.166 -12.5 -29.499s-18.333 -15.166 -30 -20.499s-23.834 -9.33301 -36.501 -12s-23.334 -4 -32.001 -4c0 -2.66699 2 -4.83398 6 -6.50098
s8.5 -2.83398 13.5 -3.50098s10 -1.16699 15 -1.5s8.83301 -0.5 11.5 -0.5c11.333 0 23 1.16699 35 3.5s22.667 4.83301 32 7.5c10.667 3.33301 17.334 6 20.001 8s4.33398 3 5.00098 3c2.66699 0 4 -1 4 -3v-2zM33.999 56.9971
c-1.33301 -1.33301 -3.5 -3.33398 -6.5 -6.00098s-3.5 -3.66699 -1.5 -3c2.66699 0.666992 7.5 2.66699 14.5 6s12.833 6.33301 17.5 9l10 7c4 3.33301 8.16699 7 12.5 11s7.16602 7.33301 8.49902 10c-1.33301 0 -4.16602 -0.833008 -8.49902 -2.5s-8.5 -3.5 -12.5 -5.5
l-5 -3l-14 -10c-4.66699 -3.33301 -9.66699 -7.66602 -15 -12.999zM57.999 159.996c-0.666992 0.666992 -1.00098 1.66309 -1.00098 2.99609c0 2 1.33301 3.33301 4 4c8.66699 -1.33301 17 -0.166016 25 3.50098s15.167 7.83398 21.5 12.501l16 12
c4.33301 3.33301 7.5 4 9.5 2c1.33301 -1.33301 4.5 -4.16602 9.5 -8.49902s7.5 -9.16602 7.5 -14.499c0 -6.66699 -4 -11.5 -12 -14.5s-17.167 -5 -27.5 -6s-20.666 -0.833008 -30.999 0.5s-17.5 3.33301 -21.5 6z" />
    <glyph glyph-name="ecircumflex" unicode="&#xea;" horiz-adv-x="148" 
d="M157 35c-9.33301 -6 -19.667 -12.0029 -31 -18.0029s-23.166 -10.833 -35.499 -14.5s-25.333 -6 -39 -7s-26.834 0.5 -39.501 4.5c-7.33301 3.33301 -13 7.33301 -17 12s-6.66699 11.334 -8 20.001v1c0 10 3.33301 20.333 10 31s15.167 20.334 25.5 29.001
s21.5 15.834 33.5 21.501s23 8.5 33 8.5c7.33301 0 15.5 -1.66699 24.5 -5s13.5 -10.333 13.5 -21c0 -11.333 -4.16699 -21.166 -12.5 -29.499s-18.333 -15.166 -30 -20.499s-23.834 -9.33301 -36.501 -12s-23.334 -4 -32.001 -4c0 -2.66699 2 -4.83398 6 -6.50098
s8.5 -2.83398 13.5 -3.50098s10 -1.16699 15 -1.5s8.83301 -0.5 11.5 -0.5c11.333 0 23 1.16699 35 3.5s22.667 4.83301 32 7.5c10.667 3.33301 17.334 6 20.001 8s4.33398 3 5.00098 3c2.66699 0 4 -1 4 -3v-2zM33.999 56.9971
c-1.33301 -1.33301 -3.5 -3.33398 -6.5 -6.00098s-3.5 -3.66699 -1.5 -3c2.66699 0.666992 7.5 2.66699 14.5 6s12.833 6.33301 17.5 9l10 7c4 3.33301 8.16699 7 12.5 11s7.16602 7.33301 8.49902 10c-1.33301 0 -4.16602 -0.833008 -8.49902 -2.5s-8.5 -3.5 -12.5 -5.5
l-5 -3l-14 -10c-4.66699 -3.33301 -9.66699 -7.66602 -15 -12.999zM26.999 159.996l-1.99902 3.99805c0 1.33301 0.5 2 1.5 2s1.83301 0.333008 2.5 1c19.333 4.66699 32.833 8.83398 40.5 12.501s14.167 7.5 19.5 11.5c8.66699 5.33301 13.667 8 15 8
c2 0 6 -1.83301 12 -5.5s15.333 -10.5 28 -20.5c14.667 -11.333 24.5 -18 29.5 -20s7.5 -4.33301 7.5 -7s-1.66699 -4 -5 -4c-9.33301 0 -21.333 1.66699 -36 5s-27 8 -37 14c-4 -2 -9.33301 -3.66699 -16 -5s-13.834 -2.16602 -21.501 -2.49902s-15 0 -22 1
s-12.5 2.83301 -16.5 5.5z" />
    <glyph glyph-name="edieresis" unicode="&#xeb;" horiz-adv-x="148" 
d="M157 35c-9.33301 -6 -19.667 -12.0029 -31 -18.0029s-23.166 -10.833 -35.499 -14.5s-25.333 -6 -39 -7s-26.834 0.5 -39.501 4.5c-7.33301 3.33301 -13 7.33301 -17 12s-6.66699 11.334 -8 20.001v1c0 10 3.33301 20.333 10 31s15.167 20.334 25.5 29.001
s21.5 15.834 33.5 21.501s23 8.5 33 8.5c7.33301 0 15.5 -1.66699 24.5 -5s13.5 -10.333 13.5 -21c0 -11.333 -4.16699 -21.166 -12.5 -29.499s-18.333 -15.166 -30 -20.499s-23.834 -9.33301 -36.501 -12s-23.334 -4 -32.001 -4c0 -2.66699 2 -4.83398 6 -6.50098
s8.5 -2.83398 13.5 -3.50098s10 -1.16699 15 -1.5s8.83301 -0.5 11.5 -0.5c11.333 0 23 1.16699 35 3.5s22.667 4.83301 32 7.5c10.667 3.33301 17.334 6 20.001 8s4.33398 3 5.00098 3c2.66699 0 4 -1 4 -3v-2zM33.999 56.9971
c-1.33301 -1.33301 -3.5 -3.33398 -6.5 -6.00098s-3.5 -3.66699 -1.5 -3c2.66699 0.666992 7.5 2.66699 14.5 6s12.833 6.33301 17.5 9l10 7c4 3.33301 8.16699 7 12.5 11s7.16602 7.33301 8.49902 10c-1.33301 0 -4.16602 -0.833008 -8.49902 -2.5s-8.5 -3.5 -12.5 -5.5
l-5 -3l-14 -10c-4.66699 -3.33301 -9.66699 -7.66602 -15 -12.999zM67.999 193.996c3.33301 0 8.33203 -1.66895 14.999 -5.00195s10.667 -6.66602 12 -9.99902c0 -10 -4.33301 -18 -13 -24l-11 -8c-4 6.66699 -7.16699 12.834 -9.5 18.501s-2.16602 12.167 0.500977 19.5
c3.33301 6 5.33301 9 6 9zM127.998 193.994c3.33301 0 8.33203 -1.66895 14.999 -5.00195s10.667 -6.66602 12 -9.99902c0 -10 -4.33301 -18 -13 -24l-11 -8c-4 6.66699 -7.16699 12.834 -9.5 18.501s-2.16602 12.167 0.500977 19.5c3.33301 6 5.33301 9 6 9z" />
    <glyph glyph-name="igrave" unicode="&#xec;" horiz-adv-x="142" 
d="M53 5c-10.667 6.66699 -16.0039 17.334 -16.0039 32.001v5c-2 -1.33301 -5.33301 -2.66602 -10 -3.99902l-14.5 -4c-5 -1.33301 -10 -2.5 -15 -3.5s-8.83301 -1.5 -11.5 -1.5c-0.666992 0 -1.66699 0.333008 -3 1s-2 1.66699 -2 3c0 0.666992 0.166992 1 0.5 1
s0.5 0.333008 0.5 1h1c0 1.33301 0.666992 2 2 2s2.66602 0.666992 3.99902 2c6.66699 3.33301 14.834 9.16602 24.501 17.499l29 26c9.66699 9 18 17.167 25 24.5l12.5 13l2 1c-1.33301 0 -0.666016 -0.333008 2.00098 -1s5.83398 -1.83398 9.50098 -3.50098
s7 -3.5 10 -5.5s3.83301 -4.33301 2.5 -7c-3.33301 -6 -7.16602 -11.833 -11.499 -17.5s-8.5 -11.5 -12.5 -17.5s-7.5 -12.167 -10.5 -18.5s-4.16699 -13.5 -3.5 -21.5c0 -1.33301 1.66699 -2.5 5 -3.5s7 -1.5 11 -1.5c8 0.666992 17.167 2 27.5 4l25.5 5l16 4
c0.666992 0 1.33398 0.166992 2.00098 0.5s1.66699 0.5 3 0.5h1l2.5 -5c0.333008 -0.666992 -1.16699 -2 -4.5 -4l-41 -20.5c-11.333 -5.66699 -25.333 -8.5 -42 -8.5c-7.33301 0 -14.333 1.66699 -21 5zM168.996 160c-4 -2.66699 -11.168 -4.66309 -21.501 -5.99609
s-20.666 -1.5 -30.999 -0.5s-19.5 3 -27.5 6s-12 7.83301 -12 14.5c0 5.33301 2.5 10.166 7.5 14.499s8.16699 7.16602 9.5 8.49902c2 2 5.16699 1.33301 9.5 -2l16 -12c6.33301 -4.66699 13.5 -8.83398 21.5 -12.501s16.333 -4.83398 25 -3.50098
c2.66699 -0.666992 4 -2 4 -4c0 -1.33301 -0.333008 -2.33301 -1 -3z" />
    <glyph glyph-name="iacute" unicode="&#xed;" horiz-adv-x="142" 
d="M53 5c-10.667 6.66699 -16.0039 17.334 -16.0039 32.001v5c-2 -1.33301 -5.33301 -2.66602 -10 -3.99902l-14.5 -4c-5 -1.33301 -10 -2.5 -15 -3.5s-8.83301 -1.5 -11.5 -1.5c-0.666992 0 -1.66699 0.333008 -3 1s-2 1.66699 -2 3c0 0.666992 0.166992 1 0.5 1
s0.5 0.333008 0.5 1h1c0 1.33301 0.666992 2 2 2s2.66602 0.666992 3.99902 2c6.66699 3.33301 14.834 9.16602 24.501 17.499l29 26c9.66699 9 18 17.167 25 24.5l12.5 13l2 1c-1.33301 0 -0.666016 -0.333008 2.00098 -1s5.83398 -1.83398 9.50098 -3.50098
s7 -3.5 10 -5.5s3.83301 -4.33301 2.5 -7c-3.33301 -6 -7.16602 -11.833 -11.499 -17.5s-8.5 -11.5 -12.5 -17.5s-7.5 -12.167 -10.5 -18.5s-4.16699 -13.5 -3.5 -21.5c0 -1.33301 1.66699 -2.5 5 -3.5s7 -1.5 11 -1.5c8 0.666992 17.167 2 27.5 4l25.5 5l16 4
c0.666992 0 1.33398 0.166992 2.00098 0.5s1.66699 0.5 3 0.5h1l2.5 -5c0.333008 -0.666992 -1.16699 -2 -4.5 -4l-41 -20.5c-11.333 -5.66699 -25.333 -8.5 -42 -8.5c-7.33301 0 -14.333 1.66699 -21 5zM72.9961 160c-0.666992 0.666992 -1.00098 1.66309 -1.00098 2.99609
c0 2 1.33301 3.33301 4 4c8.66699 -1.33301 17 -0.166016 25 3.50098s15.167 7.83398 21.5 12.501l16 12c4.33301 3.33301 7.5 4 9.5 2c1.33301 -1.33301 4.5 -4.16602 9.5 -8.49902s7.5 -9.16602 7.5 -14.499c0 -6.66699 -4 -11.5 -12 -14.5s-17.167 -5 -27.5 -6
s-20.666 -0.833008 -30.999 0.5s-17.5 3.33301 -21.5 6z" />
    <glyph glyph-name="icircumflex" unicode="&#xee;" horiz-adv-x="142" 
d="M53 5c-10.667 6.66699 -16.0039 17.334 -16.0039 32.001v5c-2 -1.33301 -5.33301 -2.66602 -10 -3.99902l-14.5 -4c-5 -1.33301 -10 -2.5 -15 -3.5s-8.83301 -1.5 -11.5 -1.5c-0.666992 0 -1.66699 0.333008 -3 1s-2 1.66699 -2 3c0 0.666992 0.166992 1 0.5 1
s0.5 0.333008 0.5 1h1c0 1.33301 0.666992 2 2 2s2.66602 0.666992 3.99902 2c6.66699 3.33301 14.834 9.16602 24.501 17.499l29 26c9.66699 9 18 17.167 25 24.5l12.5 13l2 1c-1.33301 0 -0.666016 -0.333008 2.00098 -1s5.83398 -1.83398 9.50098 -3.50098
s7 -3.5 10 -5.5s3.83301 -4.33301 2.5 -7c-3.33301 -6 -7.16602 -11.833 -11.499 -17.5s-8.5 -11.5 -12.5 -17.5s-7.5 -12.167 -10.5 -18.5s-4.16699 -13.5 -3.5 -21.5c0 -1.33301 1.66699 -2.5 5 -3.5s7 -1.5 11 -1.5c8 0.666992 17.167 2 27.5 4l25.5 5l16 4
c0.666992 0 1.33398 0.166992 2.00098 0.5s1.66699 0.5 3 0.5h1l2.5 -5c0.333008 -0.666992 -1.16699 -2 -4.5 -4l-41 -20.5c-11.333 -5.66699 -25.333 -8.5 -42 -8.5c-7.33301 0 -14.333 1.66699 -21 5zM44.9961 160l-1.99902 3.99805c0 1.33301 0.5 2 1.5 2
s1.83301 0.333008 2.5 1c19.333 4.66699 32.833 8.83398 40.5 12.501s14.167 7.5 19.5 11.5c8.66699 5.33301 13.667 8 15 8c2 0 6 -1.83301 12 -5.5s15.333 -10.5 28 -20.5c14.667 -11.333 24.5 -18 29.5 -20s7.5 -4.33301 7.5 -7s-1.66699 -4 -5 -4
c-9.33301 0 -21.333 1.66699 -36 5s-27 8 -37 14c-4 -2 -9.33301 -3.66699 -16 -5s-13.834 -2.16602 -21.501 -2.49902s-15 0 -22 1s-12.5 2.83301 -16.5 5.5z" />
    <glyph glyph-name="idieresis" unicode="&#xef;" horiz-adv-x="142" 
d="M53 5c-10.667 6.66699 -16.0039 17.334 -16.0039 32.001v5c-2 -1.33301 -5.33301 -2.66602 -10 -3.99902l-14.5 -4c-5 -1.33301 -10 -2.5 -15 -3.5s-8.83301 -1.5 -11.5 -1.5c-0.666992 0 -1.66699 0.333008 -3 1s-2 1.66699 -2 3c0 0.666992 0.166992 1 0.5 1
s0.5 0.333008 0.5 1h1c0 1.33301 0.666992 2 2 2s2.66602 0.666992 3.99902 2c6.66699 3.33301 14.834 9.16602 24.501 17.499l29 26c9.66699 9 18 17.167 25 24.5l12.5 13l2 1c-1.33301 0 -0.666016 -0.333008 2.00098 -1s5.83398 -1.83398 9.50098 -3.50098
s7 -3.5 10 -5.5s3.83301 -4.33301 2.5 -7c-3.33301 -6 -7.16602 -11.833 -11.499 -17.5s-8.5 -11.5 -12.5 -17.5s-7.5 -12.167 -10.5 -18.5s-4.16699 -13.5 -3.5 -21.5c0 -1.33301 1.66699 -2.5 5 -3.5s7 -1.5 11 -1.5c8 0.666992 17.167 2 27.5 4l25.5 5l16 4
c0.666992 0 1.33398 0.166992 2.00098 0.5s1.66699 0.5 3 0.5h1l2.5 -5c0.333008 -0.666992 -1.16699 -2 -4.5 -4l-41 -20.5c-11.333 -5.66699 -25.333 -8.5 -42 -8.5c-7.33301 0 -14.333 1.66699 -21 5zM76.9961 194c3.33301 0 8.33203 -1.66895 14.999 -5.00195
s10.667 -6.66602 12 -9.99902c0 -10 -4.33301 -18 -13 -24l-11 -8c-4 6.66699 -7.16699 12.834 -9.5 18.501s-2.16602 12.167 0.500977 19.5c3.33301 6 5.33301 9 6 9zM136.995 193.998c3.33301 0 8.33203 -1.66895 14.999 -5.00195s10.667 -6.66602 12 -9.99902
c0 -10 -4.33301 -18 -13 -24l-11 -8c-4 6.66699 -7.16699 12.834 -9.5 18.501s-2.16602 12.167 0.500977 19.5c3.33301 6 5.33301 9 6 9z" />
    <glyph glyph-name="ntilde" unicode="&#xf1;" horiz-adv-x="186" 
d="M199 40c3.33301 0 4.33691 -1.16211 3.00391 -3.49512s-2.66602 -4.16602 -3.99902 -5.49902s-4.5 -3.83301 -9.5 -7.5s-11.333 -7.5 -19 -11.5s-16 -7.5 -25 -10.5s-18.5 -4.5 -28.5 -4.5c-1.33301 0 -3.83301 0.166992 -7.5 0.5s-7.5 1.5 -11.5 3.5s-7.5 5 -10.5 9
s-4.5 9.66699 -4.5 17c0 5.33301 1.5 11.166 4.5 17.499l7.5 15.5c-3.33301 -2.66699 -9.83301 -7.33398 -19.5 -14.001l-30.5 -20.5c-10.667 -7 -20.834 -13.333 -30.501 -19s-16.5 -8.5 -20.5 -8.5c-12 0 -18 4.66699 -18 14c1.33301 5.33301 2.33301 8.33301 3 9
c3.33301 8.66699 8.66602 17.167 15.999 25.5l21 23.5c7.33301 8.66699 12.666 14.5 15.999 17.5s5.66602 5.83301 6.99902 8.5c0 1.33301 -1 2 -3 2c-9.33301 0 -18.5 -1.83301 -27.5 -5.5l-23.5 -9.5c-2 0 -3 1 -3 3c0 5.33301 11 12.333 33 21
c3.33301 1.33301 7.5 2.66602 12.5 3.99902s9.16699 1.66602 12.5 0.999023c2.66699 0 5.83398 -1.5 9.50098 -4.5s5.5 -6.5 5.5 -10.5c0 -2.66699 -2.33301 -7.83398 -7 -15.501s-10.667 -16.834 -18 -27.501l65 45.5c18.667 13.667 29.667 21.5 33 23.5
c4 1.33301 10.167 0.5 18.5 -2.5s12.5 -6.16699 12.5 -9.5c0 -2 -0.333008 -3.66699 -1 -5c-2 -5.33301 -6.66699 -13.5 -14 -24.5s-17.333 -28.167 -30 -51.5c-0.666992 -1.33301 -1.33398 -3 -2.00098 -5c0 -2.66699 5.33301 -4 16 -4c22.667 0 40.167 3.16699 52.5 9.5
s18.166 9.5 17.499 9.5h2zM53.0039 151.005c-5.33301 6.66699 -9.33203 11.501 -11.999 14.501s-4.33398 8.5 -5.00098 16.5c-2 11.333 1.66699 18 11 20c6 -1.33301 9.33301 -2.33301 10 -3c8.66699 -2.66699 17.667 -7.33398 27 -14.001s17.666 -13 24.999 -19
c9.33301 -6.66699 15.5 -11.5 18.5 -14.5s6.16699 -5.16699 9.5 -6.5c0.666992 0.666992 1 2 1 4c-0.666992 10 -0.5 15.167 0.5 15.5s3.16699 2.16602 6.5 5.49902c1.33301 1.33301 2.5 1 3.5 -1s1.83301 -4.5 2.5 -7.5s1.16699 -6 1.5 -9s0.5 -5.5 0.5 -7.5
s-1.33301 -5 -4 -9s-6 -6.33301 -10 -7c-1.33301 0 -4.66602 1.33301 -9.99902 4l-19 9.5c-7.33301 3.66699 -14.833 7.66699 -22.5 12s-14.167 8.16602 -19.5 11.499c-2.66699 0 -4.16699 -1.16699 -4.5 -3.5s-0.5 -4.66602 -0.5 -6.99902s-0.5 -4.16602 -1.5 -5.49902
s-3.83301 -1 -8.5 1z" />
    <glyph glyph-name="ograve" unicode="&#xf2;" horiz-adv-x="190" 
d="M22 26c0 5.33301 0.99707 10.668 2.99707 16.001c-7.33301 -4.66699 -14.833 -8.33398 -22.5 -11.001l-20.5 -7c-7.33301 -2.66699 -14 -4.66699 -20 -6c-0.666992 0 -1.66699 0.666992 -3 2c0 1.33301 1.33301 2.66602 4 3.99902c13.333 5.33301 27 12.166 41 20.499
s26.333 17.833 37 28.5c17.333 17.333 31.5 29.5 42.5 36.5s18.5 10.5 22.5 10.5h1h1l2 -2c1.33301 1.33301 3.16602 2 5.49902 2h5.5c12.667 0 21.667 -4.66699 27 -14s8 -18.666 8 -27.999c0 -14.667 -3.66699 -28.667 -11 -42c2 -1.33301 5.16699 -2.16602 9.5 -2.49902
s8.83301 -0.5 13.5 -0.5c10.667 0 18.834 1 24.501 3s8.83398 3 9.50098 3c2.66699 -1.33301 4 -2.66602 4 -3.99902l-1 -1l-4 -3c-3.33301 -2.66699 -10.5 -5.83398 -21.5 -9.50098s-24.167 -5.5 -39.5 -5.5h-1c-1.33301 0 -2.66602 0.166992 -3.99902 0.5
s-2.66602 0.5 -3.99902 0.5c-9.33301 -8.66699 -19.666 -15 -30.999 -19s-22.333 -6 -33 -6c-8.66699 0 -18.334 2.5 -29.001 7.5s-16 13.833 -16 26.5zM115.997 88.002c-2.66699 -5.33301 -3.99805 -12 -3.99805 -20c0 -2.66699 0.666992 -6.16699 2 -10.5
s4.66602 -8.83301 9.99902 -13.5c5.33301 5.33301 9.33301 11.833 12 19.5s4 14.834 4 21.501c0 5.33301 -1.83301 10.666 -5.5 15.999s-8.83398 8 -15.501 8c0 -1.33301 0.833008 -3 2.5 -5s2.5 -4.33301 2.5 -7s-2 -4.66699 -6 -6h-1
c0 -0.666992 -0.166992 -1.16699 -0.5 -1.5s-0.5 -0.833008 -0.5 -1.5zM54.999 29.002c0 -2 1.00195 -3.83105 3.00195 -5.49805s6.66699 -2.5 14 -2.5c5.33301 0 10.666 0.333008 15.999 1s10.333 2.66699 15 6c-8 5.33301 -13.333 12 -16 20s-4 14.667 -4 20l-4 -3.5
c-2.66699 -2.33301 -5.83398 -5.33301 -9.50098 -9s-7 -7.83398 -10 -12.501s-4.5 -9.33398 -4.5 -14.001zM178.001 160.004c-4 -2.66699 -11.168 -4.66309 -21.501 -5.99609s-20.666 -1.5 -30.999 -0.5s-19.5 3 -27.5 6s-12 7.83301 -12 14.5
c0 5.33301 2.5 10.166 7.5 14.499s8.16699 7.16602 9.5 8.49902c2 2 5.16699 1.33301 9.5 -2l16 -12c6.33301 -4.66699 13.5 -8.83398 21.5 -12.501s16.333 -4.83398 25 -3.50098c2.66699 -0.666992 4 -2 4 -4c0 -1.33301 -0.333008 -2.33301 -1 -3z" />
    <glyph glyph-name="oacute" unicode="&#xf3;" horiz-adv-x="190" 
d="M22 26c0 5.33301 0.99707 10.668 2.99707 16.001c-7.33301 -4.66699 -14.833 -8.33398 -22.5 -11.001l-20.5 -7c-7.33301 -2.66699 -14 -4.66699 -20 -6c-0.666992 0 -1.66699 0.666992 -3 2c0 1.33301 1.33301 2.66602 4 3.99902c13.333 5.33301 27 12.166 41 20.499
s26.333 17.833 37 28.5c17.333 17.333 31.5 29.5 42.5 36.5s18.5 10.5 22.5 10.5h1h1l2 -2c1.33301 1.33301 3.16602 2 5.49902 2h5.5c12.667 0 21.667 -4.66699 27 -14s8 -18.666 8 -27.999c0 -14.667 -3.66699 -28.667 -11 -42c2 -1.33301 5.16699 -2.16602 9.5 -2.49902
s8.83301 -0.5 13.5 -0.5c10.667 0 18.834 1 24.501 3s8.83398 3 9.50098 3c2.66699 -1.33301 4 -2.66602 4 -3.99902l-1 -1l-4 -3c-3.33301 -2.66699 -10.5 -5.83398 -21.5 -9.50098s-24.167 -5.5 -39.5 -5.5h-1c-1.33301 0 -2.66602 0.166992 -3.99902 0.5
s-2.66602 0.5 -3.99902 0.5c-9.33301 -8.66699 -19.666 -15 -30.999 -19s-22.333 -6 -33 -6c-8.66699 0 -18.334 2.5 -29.001 7.5s-16 13.833 -16 26.5zM115.997 88.002c-2.66699 -5.33301 -3.99805 -12 -3.99805 -20c0 -2.66699 0.666992 -6.16699 2 -10.5
s4.66602 -8.83301 9.99902 -13.5c5.33301 5.33301 9.33301 11.833 12 19.5s4 14.834 4 21.501c0 5.33301 -1.83301 10.666 -5.5 15.999s-8.83398 8 -15.501 8c0 -1.33301 0.833008 -3 2.5 -5s2.5 -4.33301 2.5 -7s-2 -4.66699 -6 -6h-1
c0 -0.666992 -0.166992 -1.16699 -0.5 -1.5s-0.5 -0.833008 -0.5 -1.5zM54.999 29.002c0 -2 1.00195 -3.83105 3.00195 -5.49805s6.66699 -2.5 14 -2.5c5.33301 0 10.666 0.333008 15.999 1s10.333 2.66699 15 6c-8 5.33301 -13.333 12 -16 20s-4 14.667 -4 20l-4 -3.5
c-2.66699 -2.33301 -5.83398 -5.33301 -9.50098 -9s-7 -7.83398 -10 -12.501s-4.5 -9.33398 -4.5 -14.001zM83.001 160.004c-0.666992 0.666992 -1.00098 1.66309 -1.00098 2.99609c0 2 1.33301 3.33301 4 4c8.66699 -1.33301 17 -0.166016 25 3.50098
s15.167 7.83398 21.5 12.501l16 12c4.33301 3.33301 7.5 4 9.5 2c1.33301 -1.33301 4.5 -4.16602 9.5 -8.49902s7.5 -9.16602 7.5 -14.499c0 -6.66699 -4 -11.5 -12 -14.5s-17.167 -5 -27.5 -6s-20.666 -0.833008 -30.999 0.5s-17.5 3.33301 -21.5 6z" />
    </font>
</defs>
</svg>
